<?xml version="1.0" encoding="UTF-8"?><svg id="a" xmlns="http://www.w3.org/2000/svg" viewBox="0 0 440 440"><path d="M431,90.92c-2.51,7.04-7.7,12.04-12.83,17.16-86.19,86.13-172.36,172.28-258.47,258.48-6.46,6.47-13.71,10.39-22.85,7.42-3.75-1.22-7.51-3.57-10.32-6.36-36.71-36.45-73.24-73.08-109.82-109.65-6.21-6.21-8.94-13.48-6.31-22.09,2.35-7.68,7.66-12.57,15.48-14.41,6.2-1.46,12-.19,17.11,3.67,1.74,1.32,3.33,2.85,4.88,4.4,30.29,30.26,60.56,60.52,90.82,90.81,1.16,1.16,2.13,2.52,4.15,4.94,1.32-2,2.03-3.57,3.17-4.71,82.25-82.31,164.55-164.56,246.8-246.88,6.98-6.99,14.73-10.38,24.5-6.87,7.5,2.7,11.32,8.66,13.69,15.84v8.23Z"/></svg>