<?xml version="1.0" encoding="UTF-8"?><svg id="a" xmlns="http://www.w3.org/2000/svg" xmlns:xlink="http://www.w3.org/1999/xlink" viewBox="0 0 600 600"><defs><style>.f{opacity:.5;}.g{opacity:.8;stroke:url(#e);stroke-width:.41px;}.g,.h,.i,.j{fill:none;stroke-miterlimit:10;}.h{stroke:url(#b);stroke-width:.27px;}.i{opacity:.1;stroke:url(#d);stroke-width:.73px;}.k{fill:#f97233;}.j{opacity:.04;stroke:url(#c);stroke-width:.36px;}</style><radialGradient id="b" cx="292.74" cy="268.84" fx="292.74" fy="268.84" r="136.32" gradientTransform="matrix(1, 0, 0, 1, 0, 0)" gradientUnits="userSpaceOnUse"><stop offset="0" stop-color="#fff"/><stop offset=".09" stop-color="#ffecd8"/><stop offset=".21" stop-color="#ffd4a7"/><stop offset=".33" stop-color="#ffc07d"/><stop offset=".46" stop-color="#ffb05a"/><stop offset=".59" stop-color="#ffa340"/><stop offset=".72" stop-color="#ff9a2d"/><stop offset=".86" stop-color="#ff9421"/><stop offset="1" stop-color="#ff931e"/></radialGradient><radialGradient id="c" cx="407.22" cy="378.88" fx="407.22" fy="378.88" r="119.04" xlink:href="#b"/><radialGradient id="d" cx="458.42" cy="256.4" fx="458.42" fy="256.4" r="120.19" xlink:href="#b"/><radialGradient id="e" cx="336.54" cy="365.75" fx="336.54" fy="365.75" r="89.62" xlink:href="#b"/></defs><g><path class="h" d="M427.38,131V406.55H197.44c-15.15-17.85-23.64-27.85-38.79-45.7l-.55-218.65"/><path class="j" d="M440.64,524.31h-117.72V233.45h168.59v239.98c-19.87,19.87-31.01,31.01-50.88,50.88Z"/><rect class="i" x="388.5" y="101.99" width="139.83" height="308.81"/><path class="g" d="M266.93,259.98v179.15c10.67,12.57,16.66,19.62,27.33,32.2h112.09"/></g><g class="f"><path class="k" d="M433.98,454.65c.09-.06,.3-.22,.55-.4-.31,.23-.49,.35-.55,.4Z"/><path class="k" d="M433.98,454.65s-.05,.04,0,0h0Z"/><path class="k" d="M435.65,453.43s.05-.04,0,0h0Z"/><path class="k" d="M435.65,453.43c-.09,.06-.3,.22-.55,.4,.31-.23,.49-.35,.55-.4Z"/><path class="k" d="M434.82,454.04c-3.08,2.22-3.77,6.54-1.55,9.61l-.67-.93-28.86,20.88v88.01c-3.25,.55-5.73,3.37-5.73,6.77,0,3.8,3.09,6.89,6.89,6.89s6.89-3.09,6.89-6.89c0-3.4-2.49-6.22-5.73-6.77v-86.82l27.91-20.19-.67-.93c2.23,3.07,6.54,3.77,9.62,1.54,3.08-2.23,3.77-6.54,1.54-9.62-2.23-3.08-6.54-3.77-9.62-1.54Zm-24.66,124.34c0,2.91-2.36,5.27-5.27,5.27s-5.27-2.36-5.27-5.27,2.36-5.27,5.27-5.27,5.27,2.36,5.27,5.27Zm31.78-114.49c-2.36,1.7-5.66,1.17-7.36-1.18-1.7-2.36-1.17-5.66,1.18-7.36,2.36-1.7,5.66-1.17,7.36,1.18,1.7,2.36,1.17,5.66-1.18,7.36Zm.58-.42l-.06,.04,.06-.04Zm-1.11,.8c.05-.04,.11-.08,.18-.13-.08,.06-.13,.1-.18,.13Z"/><path class="k" d="M347.95,406.68c-3.8,0-6.89,3.09-6.89,6.89,0,3.4,2.49,6.22,5.73,6.77v48.54c-3.25,.55-5.73,3.37-5.73,6.77,0,3.8,3.09,6.89,6.89,6.89s6.89-3.09,6.89-6.89c0-3.4-2.49-6.22-5.73-6.77v-48.54c3.25-.55,5.73-3.37,5.73-6.77,0-3.8-3.09-6.89-6.89-6.89Zm5.27,68.97c0,2.91-2.36,5.27-5.27,5.27s-5.27-2.36-5.27-5.27,2.36-5.27,5.27-5.27,5.27,2.36,5.27,5.27Zm-5.27-56.81c-2.91,0-5.27-2.36-5.27-5.27s2.36-5.27,5.27-5.27,5.27,2.36,5.27,5.27-2.36,5.27-5.27,5.27Z"/><path class="k" d="M450.65,372.85c.17-.13,.21-.16,0,0h0Z"/><path class="k" d="M449.16,373.98c-.15,.11-.12,.09,0,0h0Z"/><polygon class="k" points="457.29 383.07 457.29 383.07 457.29 383.07 457.29 383.07"/><path class="k" d="M450.31,373.1c.15-.11,.26-.2,.34-.26-.08,.06-.21,.16-.34,.26Z"/><path class="k" d="M449.92,373.4c.14-.1,.27-.2,.39-.3-.11,.08-.23,.18-.39,.3-.17,.13-.3,.23-.41,.31l.41-.31c-2.71,2.06-3.44,5.75-1.91,8.66l-63.07,48.08-.45,.35v88.15h2.31v-87.01l62.62-47.73c2.41,2.25,6.15,2.52,8.86,.45,3.02-2.3,3.6-6.63,1.3-9.65-2.3-3.02-6.63-3.6-9.65-1.3Zm7.37,9.67c.18-.14,.36-.27,.49-.37-.11,.08-.25,.19-.49,.37-.13,.1-.23,.17-.31,.24,.1-.07,.2-.16,.31-.24-2.31,1.76-5.62,1.31-7.39-1-1.76-2.31-1.32-5.63,1-7.39,2.31-1.76,5.63-1.32,7.39,1,1.76,2.31,1.32,5.62-1,7.39Zm.59-.45c.08-.06,.09-.07,0,0h0Zm-1.22,.93s.11-.09,.21-.16c-.11,.08-.18,.14-.21,.16Z"/><path class="k" d="M449.51,373.72c-.15,.11-.27,.2-.35,.27,.07-.05,.19-.14,.35-.27Z"/><path class="k" d="M385.64,518.65c-3.8,0-6.89,3.09-6.89,6.89s3.09,6.89,6.89,6.89,6.89-3.09,6.89-6.89-3.09-6.89-6.89-6.89Zm0,12.16c-2.91,0-5.27-2.36-5.27-5.27s2.36-5.27,5.27-5.27,5.27,2.36,5.27,5.27-2.36,5.27-5.27,5.27Z"/><path class="k" d="M373.37,456.5c0-3.8-3.09-6.89-6.89-6.89s-6.89,3.09-6.89,6.89c0,3.4,2.49,6.22,5.73,6.77v80.93c-3.25,.55-5.73,3.37-5.73,6.77,0,3.8,3.09,6.89,6.89,6.89s6.89-3.09,6.89-6.89c0-3.4-2.49-6.22-5.73-6.77v-80.93c3.25-.55,5.73-3.37,5.73-6.77Zm-12.16,0c0-2.91,2.36-5.27,5.27-5.27s5.27,2.36,5.27,5.27-2.36,5.27-5.27,5.27-5.27-2.36-5.27-5.27Zm10.54,94.47c0,2.91-2.36,5.27-5.27,5.27s-5.27-2.36-5.27-5.27,2.36-5.27,5.27-5.27,5.27,2.36,5.27,5.27Z"/><path class="k" d="M56.85,250.77c-1.28-1.4-.64-.7,0,0h0Z"/><path class="k" d="M57.44,251.41c-.12-.13-.3-.32-.59-.64,.23,.25,.45,.49,.59,.64Z"/><path class="k" d="M57.44,251.41c.21,.23,.17,.18,0,0h0Z"/><path class="k" d="M66.58,251.19c2.8-2.57,2.99-6.93,.42-9.73-2.57-2.8-6.93-2.99-9.73-.42-2.8,2.57-2.99,6.93-.42,9.73,2.57,2.8,6.93,2.99,9.73,.42Zm-8.22-8.96c2.14-1.96,5.48-1.82,7.45,.32-.17-.19-.34-.38-.45-.49,.09,.1,.23,.25,.45,.49,1.96,2.14,1.82,5.48-.32,7.45-2.14,1.96-5.48,1.82-7.45-.32-1.96-2.14-1.82-5.48,.32-7.45Zm7.9,.82c.16,.17,.13,.14,0,0h0Z"/><path class="k" d="M217.63,281.36c-3.4-.17-6.33,2.17-7.05,5.39l-15.89-.79-22.2,12.21h-61.28l-43.78-47.76-1.7,1.56,44.46,48.51h62.89l22.14-12.18,15.24,.76c.39,3.27,3.08,5.89,6.48,6.06-.39-.02-.77-.04-.96-.05,.15,0,.44,.02,.96,.05h0c3.79,.19,7.03-2.74,7.22-6.54,.19-3.79-2.74-7.03-6.54-7.22Zm-.6,12.14c-2.9-.14-5.14-2.62-5-5.52h0c.15-2.91,2.62-5.15,5.53-5.01-.73-.04-1.45-.07,0,0,.33,.02,.53,.03,.66,.03-.16,0-.41-.02-.66-.03,2.9,.14,5.15,2.62,5,5.53-.14,2.9-2.62,5.15-5.53,5Z"/><path class="k" d="M216.99,295.12c.38,.02,.74,.04,.92,.05-.14,0-.43-.02-.92-.05Z"/><path class="k" d="M215.98,295.07c-.17,0-.14,0,0,0h0Z"/><path class="k" d="M217.91,295.17c.17,0,.14,0,0,0h0Z"/><path class="k" d="M445.18,424.34c.08-.06,.15-.1,.18-.12-.04,.03-.1,.07-.18,.12Z"/><path class="k" d="M436.93,413.28c-2.84,1.87-3.83,5.49-2.51,8.51l-32.55,21.41v7.7c-3.25,.55-5.73,3.37-5.73,6.77,0,3.8,3.09,6.89,6.89,6.89s6.89-3.09,6.89-6.89c0-3.4-2.49-6.22-5.73-6.77v-6.46l31.52-20.73c2.25,2.41,5.97,2.94,8.81,1.07,3.17-2.09,4.06-6.37,1.97-9.54-2.09-3.17-6.37-4.06-9.54-1.97Zm-28.64,44.4c0,2.91-2.36,5.27-5.27,5.27s-5.27-2.36-5.27-5.27,2.36-5.27,5.27-5.27,5.27,2.36,5.27,5.27Zm30.17-43.47c.06-.04,.05-.04,0,0h0Zm5.15,9.23c-2.43,1.6-5.7,.92-7.3-1.51-1.6-2.43-.92-5.7,1.51-7.3,2.43-1.6,5.7-.92,7.3,1.51,1.6,2.43,.92,5.7-1.51,7.3Z"/><path class="k" d="M443.82,425.24c-.08,.06-.15,.1-.18,.12,.04-.03,.1-.07,.18-.12Z"/><path class="k" d="M445.36,424.23c.06-.04,.06-.04,0,0h0Z"/><path class="k" d="M444.5,424.79c-.26,.17-.5,.33-.68,.45,.15-.1,.35-.23,.68-.45Z"/><path class="k" d="M444.5,424.79c.26-.17,.5-.33,.68-.45-.15,.1-.35,.23-.68,.45Z"/><path class="k" d="M443.64,425.36c-.06,.04-.06,.04,0,0h0Z"/><path class="k" d="M544.42,306.89c-.01-.46-.02-.92-.03-1.05,0,.09,.01,.39,.03,1.05Z"/><path class="k" d="M537.36,300.18c-3.8,.1-6.81,3.26-6.71,7.06,.08,3.36,2.57,6.09,5.77,6.62l1.03,35.99-46.97,45.88h-14.93c-.55-3.25-3.37-5.73-6.77-5.73-3.8,0-6.89,3.09-6.89,6.89s3.09,6.89,6.89,6.89c3.4,0,6.22-2.49,6.77-5.73h15.87l48.01-46.89,.36-.35-1.06-36.97c3.29-.58,5.77-3.49,5.69-6.93-.1-3.8-3.26-6.81-7.06-6.71Zm-68.58,101.97c-2.91,0-5.27-2.36-5.27-5.27s2.36-5.27,5.27-5.27,5.27,2.36,5.27,5.27-2.36,5.27-5.27,5.27Zm68.93-89.82h-.08c-2.89,.05-5.29-2.24-5.36-5.13,0,.15,0,.29,.01,.41,0-.11,0-.25-.01-.41v0c-.07-2.91,2.23-5.33,5.14-5.4,2.91-.07,5.33,2.23,5.4,5.14,.07,2.89-2.21,5.3-5.1,5.4Zm-5.45-5.54c-.02-.68-.01-.44,0,0h0Z"/><path class="k" d="M544.42,306.89c.05,1.9,.02,.95,0,0h0Z"/><path class="k" d="M544.4,305.84s0-.05,0,0h0Z"/><path class="k" d="M420.31,312.51c-.2-.18-.25-.22,0,0h0Z"/><path class="k" d="M411.79,323.38c2.84,2.52,7.2,2.27,9.72-.57,2.52-2.84,2.27-7.2-.57-9.73,.71,.63,1.42,1.26,0,0-.32-.28-.51-.46-.64-.57,.16,.14,.4,.35,.64,.57-2.84-2.52-7.2-2.27-9.72,.57l.76-.86-36.59-32.54v-43.05l20.32-16.72h81.5c.55,3.25,3.37,5.73,6.77,5.73,3.8,0,6.89-3.09,6.89-6.89s-3.09-6.89-6.89-6.89c-3.4,0-6.22,2.49-6.77,5.73h-82.33l-21.8,17.94v45.18l37.37,33.23,.77-.86c-2.52,2.84-2.27,7.2,.57,9.72Zm72.2-109.32c2.91,0,5.27,2.36,5.27,5.27s-2.36,5.27-5.27,5.27-5.26-2.36-5.27-5.26v-.02c0-2.9,2.37-5.26,5.27-5.26Zm-70.71,108.48c.23,.2,.31,.27,0,0h0Zm-1.03-.91s.1,.09,.18,.16c-.09-.08-.16-.14-.18-.16Zm7.61-7.34c2.17,1.93,2.37,5.27,.44,7.44-1.93,2.17-5.27,2.37-7.44,.44-2.17-1.93-2.37-5.27-.44-7.44,1.93-2.17,5.27-2.37,7.44-.44Z"/><path class="k" d="M534.41,233.9c-.12-.12-.32-.32-.65-.65-.33-.33-.54-.54-.65-.65,.29,.29,1.01,1.01,1.3,1.3Z"/><path class="k" d="M533.1,232.59c-.14-.14-.18-.18,0,0h0Z"/><polygon class="k" points="542.36 224.65 542.35 224.65 542.35 224.65 542.36 224.65"/><path class="k" d="M534.41,233.9c.15,.15,.18,.18,0,0h0Z"/><path class="k" d="M568.05,306.97v-50.8l-23.82-23.82c1.91-2.69,1.67-6.44-.73-8.84-2.69-2.69-7.06-2.69-9.74,0-2.69,2.69-2.69,7.06,0,9.74,2.41,2.41,6.15,2.64,8.84,.74l23.14,23.14v49.84c-3.25,.55-5.73,3.37-5.73,6.77,0,3.8,3.09,6.89,6.89,6.89s6.89-3.09,6.89-6.89c0-3.4-2.49-6.22-5.73-6.77Zm-33.15-74.86c-2.06-2.06-2.06-5.4,0-7.45s5.4-2.06,7.45,0c-.06-.06-.13-.13-.19-.19,.06,.06,.11,.11,.19,.19,.16,.16,.27,.27,.36,.36l-.36-.36c2.05,2.06,2.05,5.4,0,7.45h0c-2.06,2.06-5.4,2.06-7.45,0Zm32,86.91c-2.91,0-5.27-2.36-5.27-5.27s2.36-5.27,5.26-5.27h.01c2.9,0,5.26,2.37,5.26,5.27s-2.36,5.27-5.27,5.27Z"/><path class="k" d="M262.99,22.78h104.49c.55,3.25,3.37,5.73,6.77,5.73,3.8,0,6.89-3.09,6.89-6.89s-3.09-6.89-6.89-6.89c-3.4,0-6.22,2.49-6.77,5.73h-105.29l-27.07,21.47,1.44,1.81,26.44-20.97Zm111.26-6.43c2.91,0,5.27,2.36,5.27,5.27s-2.36,5.27-5.27,5.27-5.27-2.36-5.27-5.27,2.36-5.27,5.27-5.27Z"/><path class="k" d="M234.72,52.52c.15-.12,.3-.24,.43-.34-.12,.09-.25,.2-.43,.34Z"/><polygon class="k" points="227.16 42.99 227.16 42.99 227.16 42.99 227.16 42.99"/><path class="k" d="M235.14,52.18c.68-.54,.44-.35,0,0h0Z"/><path class="k" d="M234.72,52.52c-.25,.2-.48,.38-.65,.52,.14-.11,.33-.26,.65-.52Z"/><path class="k" d="M234.07,53.03c-.29,.23-.23,.18,0,0h0Z"/><path class="k" d="M234.72,52.52c2.98-2.36,3.48-6.7,1.12-9.68-2.36-2.98-6.7-3.48-9.68-1.12-2.98,2.36-3.48,6.7-1.12,9.68,2.36,2.98,6.7,3.48,9.68,1.12Zm-7.56-9.53c-.06,.05-.13,.1-.19,.15l.19-.15,.44-.35c-.12,.1-.28,.22-.44,.35,2.28-1.81,5.6-1.42,7.4,.86,1.81,2.28,1.42,5.6-.85,7.41-2.28,1.81-5.6,1.42-7.41-.85-1.81-2.28-1.42-5.6,.85-7.4Zm-.36,.29c-.31,.24-.46,.36,0,0h0Zm.92-.73c.14-.11,.11-.09,0,0h0Z"/><path class="k" d="M92.96,246.71c2.69-2.69,2.69-7.06,0-9.74-2.69-2.69-7.06-2.69-9.74,0-2.69,2.69-2.69,7.06,0,9.74,2.69,2.69,7.06,2.69,9.74,0Zm-8.6-8.6c2.06-2.06,5.4-2.06,7.45,0,2.06,2.06,2.06,5.4,0,7.45-2.06,2.06-5.4,2.06-7.45,0-2.06-2.06-2.06-5.4,0-7.45Z"/><path class="k" d="M120.14,283.64c.14,.14,.18,.18,0,0h0Z"/><path class="k" d="M129.23,282.98c2.69-2.69,2.69-7.06,0-9.74-2.41-2.41-6.15-2.64-8.84-.73l-26.61-26.61-1.63,1.63,26.61,26.61c-1.9,2.69-1.67,6.44,.73,8.84-.25-.25-.5-.5-.65-.65,.12,.12,.32,.32,.65,.65l.65,.65c-.14-.14-.4-.4-.65-.65,2.69,2.68,7.06,2.68,9.74,0Zm-8.6-8.6h0c2.06-2.06,5.4-2.06,7.45,0,2.06,2.06,2.06,5.4,0,7.45-2.06,2.06-5.4,2.06-7.45,0-2.05-2.06-2.06-5.4,0-7.45Z"/><path class="k" d="M107.26,237.14c-.18-.18-.15-.15,0,0h0Z"/><path class="k" d="M108.56,238.44c.15,.15,.18,.18,0,0h0Z"/><path class="k" d="M162.97,283.11c2.69-2.69,2.69-7.06,0-9.74-2.41-2.41-6.16-2.64-8.84-.73l-35.74-35.75c1.9-2.69,1.67-6.44-.73-8.84-2.69-2.69-7.06-2.69-9.74,0-2.69,2.69-2.69,7.06,0,9.74,2.41,2.41,6.15,2.64,8.84,.73l35.74,35.75c-1.9,2.69-1.67,6.44,.74,8.84,2.69,2.69,7.06,2.69,9.74,0Zm-46.65-54.11c-.39-.39-.64-.64,0,0h0Zm-7.26,7.64c-2.06-2.06-2.06-5.4,0-7.45,2.06-2.06,5.4-2.06,7.45,0,2.06,2.06,2.06,5.4,0,7.45-2.06,2.06-5.4,2.06-7.45,0Zm45.32,37.87h0c2.06-2.06,5.4-2.06,7.45,0,2.06,2.06,2.06,5.4,0,7.45-2.06,2.06-5.4,2.06-7.45,0-2.06-2.06-2.06-5.4,0-7.45Z"/><path class="k" d="M303.16,300.15l.34-.34v-29.9h-50.77c-.55-3.25-3.37-5.73-6.77-5.73-3.8,0-6.89,3.09-6.89,6.89s3.09,6.89,6.89,6.89c3.4,0,6.22-2.49,6.77-5.73h48.46v26.64l-40.81,40.8c-2.69-1.9-6.44-1.67-8.84,.73-2.69,2.69-2.69,7.06,0,9.74,2.69,2.69,7.06,2.69,9.74,0,2.41-2.41,2.64-6.16,.73-8.84l41.14-41.14Zm-57.2-23.82c-2.91,0-5.27-2.36-5.27-5.27s2.36-5.27,5.27-5.27,5.27,2.36,5.27,5.26h0c0,2.92-2.37,5.28-5.27,5.28Zm14.18,72.66c-2.06,2.06-5.4,2.06-7.45,0-2.06-2.06-2.06-5.4,0-7.45,2.05-2.05,5.4-2.06,7.45,0h0c2.05,2.06,2.05,5.4,0,7.46Z"/><path class="k" d="M552.76,266.68c-3.8,0-6.89,3.09-6.89,6.89,0,3.4,2.49,6.22,5.73,6.77v47.69c-3.25,.55-5.73,3.37-5.73,6.77,0,3.8,3.09,6.89,6.89,6.89s6.89-3.09,6.89-6.89c0-3.4-2.49-6.22-5.73-6.77v-47.69c3.25-.55,5.73-3.37,5.73-6.77,0-3.8-3.09-6.89-6.89-6.89Zm5.27,68.12c0,2.91-2.36,5.27-5.27,5.27s-5.27-2.36-5.27-5.27,2.36-5.27,5.27-5.27,5.27,2.36,5.27,5.27Zm-5.26-55.97h-.02c-2.9,0-5.26-2.37-5.26-5.27s2.36-5.27,5.27-5.27,5.27,2.36,5.27,5.27-2.36,5.26-5.26,5.27Z"/><path class="k" d="M493.17,111.1c3.8,0,6.88-3.09,6.89-6.88v1.15h35.77l14.8,23.21v69.25h-40.25l-19.92-26.9c2.28-2.38,2.6-6.12,.58-8.85-2.26-3.05-6.58-3.7-9.63-1.44-3.05,2.26-3.7,6.58-1.44,9.63,2.02,2.73,5.7,3.52,8.64,2.03l20.61,27.84h43.72V127.91l-15.85-24.85h-37.04v1.15c0-3.79-3.09-6.88-6.89-6.88s-6.89,3.09-6.89,6.89,3.09,6.89,6.89,6.89Zm-11.9,58.21c-1.73-2.34-1.24-5.64,1.1-7.37,2.34-1.73,5.64-1.24,7.37,1.1,1.73,2.34,1.24,5.64-1.1,7.37-2.34,1.73-5.64,1.24-7.37-1.1Zm11.9-70.37c2.91,0,5.27,2.36,5.27,5.27s-2.36,5.27-5.27,5.27-5.27-2.36-5.27-5.27,2.36-5.27,5.27-5.27Z"/><path class="k" d="M491.05,162.08c-.19-.26-.38-.52-.51-.69,.1,.14,.26,.35,.51,.69Z"/><path class="k" d="M491.37,162.52c.13,.17,.21,.28,.26,.35-.06-.08-.15-.2-.26-.35Z"/><path class="k" d="M491.05,162.08c.11,.15,.22,.3,.32,.44-.09-.12-.19-.26-.32-.44Z"/><path class="k" d="M491.63,162.87c.07,.1,.09,.12,0,0h0Z"/><path class="k" d="M490.54,161.39c-.2-.27-.16-.21,0,0h0Z"/><path class="k" d="M566.9,157.19c-3.8,0-6.89,3.09-6.89,6.89,0,3.4,2.49,6.22,5.73,6.77v35.24c-3.25,.55-5.73,3.37-5.73,6.77,0,3.8,3.09,6.89,6.89,6.89s6.89-3.09,6.89-6.89c0-3.4-2.49-6.22-5.73-6.77v-35.24c3.25-.55,5.73-3.37,5.73-6.77,0-3.8-3.09-6.89-6.89-6.89Zm5.27,55.67c0,2.91-2.36,5.27-5.27,5.27s-5.27-2.36-5.27-5.27,2.36-5.27,5.27-5.27h0c2.91,0,5.27,2.36,5.27,5.27Zm-5.27-43.51c-2.91,0-5.27-2.36-5.27-5.27s2.36-5.27,5.27-5.27,5.27,2.36,5.27,5.27-2.36,5.27-5.27,5.27Z"/><path class="k" d="M342.4,239.81c3.8,0,6.89-3.09,6.89-6.89s-3.09-6.89-6.89-6.89c-3.4,0-6.22,2.49-6.77,5.73h-104.7l-49.23-52.63v-27l31.13-26.07c2.51,2.13,6.26,2.23,8.87,.05,2.91-2.44,3.3-6.79,.86-9.7-2.44-2.91-6.79-3.3-9.7-.86-2.61,2.18-3.17,5.9-1.51,8.74l-31.55,26.41-.41,.35v28.99l50.2,53.66,.34,.36h105.7c.55,3.25,3.37,5.73,6.77,5.73ZM213.9,116.8c-.2,.16-.39,.32-.51,.43,.1-.08,.26-.22,.51-.43,1.11-.93,.56-.47,0,0,2.23-1.87,5.56-1.57,7.42,.66,1.87,2.23,1.57,5.56-.66,7.43-2.23,1.86-5.55,1.57-7.42-.65h0c-1.86-2.24-1.57-5.57,.66-7.43Zm128.5,110.85c2.91,0,5.27,2.36,5.27,5.27s-2.36,5.27-5.27,5.27-5.27-2.36-5.27-5.27,2.36-5.27,5.27-5.27Z"/><path class="k" d="M221.71,126.12c-.13,.11-.22,.19-.32,.27,.1-.09,.21-.18,.32-.27Z"/><path class="k" d="M222.32,125.61c.31-.26,.24-.2,0,0h0Z"/><path class="k" d="M221.71,126.12c.23-.19,.46-.38,.62-.52-.13,.11-.32,.27-.62,.52Z"/><polygon class="k" points="213.9 116.8 213.9 116.8 213.9 116.8 213.9 116.8"/><path class="k" d="M221.03,126.69c-.22,.19-.18,.15,0,0h0Z"/><path class="k" d="M221.39,126.39c-.14,.12-.27,.23-.36,.3,.08-.07,.21-.17,.36-.3Z"/><path class="k" d="M252.73,162.92c-.55-3.25-3.37-5.73-6.77-5.73-3.8,0-6.89,3.09-6.89,6.89s3.09,6.89,6.89,6.89c3.4,0,6.22-2.49,6.77-5.73h82.98v34.2c-3.25,.55-5.73,3.37-5.73,6.77,0,3.8,3.09,6.89,6.89,6.89s6.89-3.09,6.89-6.89c0-3.4-2.49-6.22-5.73-6.77v-36.51h-85.29Zm-6.77,6.43c-2.91,0-5.27-2.36-5.27-5.27s2.36-5.27,5.27-5.27,5.27,2.36,5.27,5.26h0c0,2.92-2.37,5.28-5.27,5.28Zm96.18,36.86c0,2.91-2.36,5.27-5.27,5.27s-5.27-2.36-5.27-5.27,2.36-5.27,5.27-5.27,5.27,2.36,5.27,5.27Z"/><path class="k" d="M303.49,211.63v-18.77h-56.31c-.55-3.25-3.37-5.73-6.77-5.73-3.8,0-6.89,3.09-6.89,6.89s3.09,6.89,6.89,6.89c3.4,0,6.22-2.49,6.77-5.73h54v16.46c-3.25,.55-5.73,3.37-5.73,6.77,0,3.8,3.09,6.89,6.89,6.89s6.89-3.09,6.89-6.89c0-3.4-2.49-6.22-5.73-6.77Zm-63.08-12.35c-2.91,0-5.27-2.36-5.27-5.27s2.36-5.27,5.27-5.27,5.27,2.36,5.27,5.27-2.36,5.27-5.27,5.27Zm61.93,24.39c-2.91,0-5.27-2.36-5.27-5.27s2.36-5.27,5.27-5.27,5.27,2.36,5.27,5.27-2.36,5.27-5.27,5.27Z"/><path class="k" d="M81.32,220.48c.55,3.25,3.37,5.73,6.77,5.73,3.8,0,6.89-3.09,6.89-6.89s-3.09-6.89-6.89-6.89c-3.4,0-6.22,2.49-6.77,5.73H39.87c-.55-3.25-3.37-5.73-6.77-5.73-3.8,0-6.89,3.09-6.89,6.89s3.09,6.89,6.89,6.89c3.4,0,6.22-2.49,6.77-5.73h41.44Zm6.77-6.42c2.91,0,5.27,2.36,5.27,5.27s-2.36,5.27-5.27,5.27-5.27-2.36-5.27-5.27,2.36-5.27,5.27-5.27Zm-54.99,10.54c-2.91,0-5.27-2.36-5.27-5.27s2.36-5.27,5.27-5.27,5.27,2.36,5.27,5.27-2.36,5.27-5.27,5.27Z"/><path class="k" d="M91.69,175.73v2.31h41.33c.55,3.25,3.37,5.73,6.77,5.73,3.8,0,6.89-3.09,6.89-6.89s-3.09-6.89-6.89-6.89c-3.4,0-6.22,2.49-6.77,5.73h-41.33Zm48.1-4.12c2.91,0,5.27,2.36,5.27,5.27s-2.36,5.27-5.27,5.27-5.27-2.36-5.27-5.27,2.36-5.27,5.27-5.27Z"/><path class="k" d="M91.69,176.88c0-3.8-3.09-6.89-6.89-6.89s-6.89,3.09-6.89,6.89,3.09,6.89,6.89,6.89,6.89-3.09,6.89-6.89Zm-6.89,5.27c-2.91,0-5.27-2.36-5.27-5.27s2.36-5.27,5.27-5.27,5.27,2.36,5.27,5.27-2.36,5.27-5.27,5.27Z"/><path class="k" d="M333.25,255.58c0-3.8-3.09-6.89-6.89-6.89-3.4,0-6.22,2.49-6.77,5.73h-41.44c-.55-3.25-3.37-5.73-6.77-5.73-3.8,0-6.89,3.09-6.89,6.89s3.09,6.89,6.89,6.89c3.4,0,6.22-2.49,6.77-5.73h41.44c.55,3.25,3.37,5.73,6.77,5.73,3.8,0,6.89-3.09,6.89-6.89Zm-61.88,5.27c-2.91,0-5.27-2.36-5.27-5.27s2.36-5.27,5.27-5.27,5.27,2.36,5.27,5.27-2.36,5.27-5.27,5.27Zm54.99,0c-2.91,0-5.27-2.36-5.27-5.27s2.36-5.27,5.27-5.27,5.27,2.36,5.27,5.27-2.36,5.27-5.27,5.27Z"/><path class="k" d="M307.97,93.33s-.13,.12-.28,.28c.14-.14,.24-.24,.28-.28Z"/><path class="k" d="M297.47,84.34c-2.69,2.69-2.69,7.06,0,9.74,2.69,2.69,7.06,2.69,9.74,0,2.41-2.41,2.64-6.15,.73-8.84l18.76-18.76-1.63-1.63-18.76,18.76c-2.69-1.9-6.44-1.67-8.84,.73Zm8.6,8.6c-2.06,2.06-5.4,2.06-7.45,0s-2.06-5.4,0-7.45c2.05-2.05,5.39-2.06,7.45,0h0c2.05,2.06,2.05,5.4,0,7.46Z"/><polygon class="k" points="327.03 57.07 327.03 57.07 327.03 57.07 327.03 57.07"/><path class="k" d="M335.63,55.93c-2.69-2.69-7.06-2.69-9.74,0-2.69,2.69-2.69,7.06,0,9.74,2.69,2.69,7.06,2.69,9.74,0,2.69-2.69,2.69-7.06,0-9.74Zm-1.14,8.6c-2.06,2.06-5.4,2.06-7.45,0-2.06-2.06-2.06-5.4,0-7.45-.2,.2-.4,.4-.51,.51,.09-.09,.25-.25,.51-.51,1.03-1.03,.51-.51,0,0,2.06-2.05,5.4-2.05,7.45,0,2.06,2.06,2.06,5.4,0,7.45Z"/><path class="k" d="M334.98,66.32c-.18,.18-.15,.15,0,0h0Z"/><path class="k" d="M124.36,200.9c3.8,0,6.89-3.09,6.89-6.89s-3.09-6.89-6.89-6.89c-3.4,0-6.22,2.49-6.77,5.73H61.75v-33.91l22.92-27.72c2.86,1.64,6.57,1.06,8.73-1.57,2.42-2.93,2.01-7.28-.92-9.7-2.93-2.42-7.28-2.01-9.7,.92-2.17,2.62-2.05,6.38,.1,8.87l-23.44,28.36v37.04h58.15c.55,3.25,3.37,5.73,6.77,5.73Zm-39.85-79.57c.05-.07,.05-.06,0,0h0Zm-.09,.11c-.07,.09-.16,.19-.26,.32,.11-.14,.2-.24,.26-.32Zm-.51,.61c-.06,.07-.12,.15-.17,.21,.05-.06,.11-.14,.17-.21Zm.11-.14c1.85-2.24,5.18-2.56,7.42-.7,2.24,1.85,2.56,5.18,.7,7.42-1.85,2.24-5.18,2.56-7.42,.71h0c-2.24-1.86-2.55-5.18-.7-7.42Zm40.33,66.82c2.91,0,5.27,2.36,5.27,5.27s-2.36,5.27-5.27,5.27-5.27-2.36-5.27-5.27h0c0-2.91,2.36-5.27,5.27-5.27Z"/><path class="k" d="M93.73,129.27c.38-.46,.58-.7,0,0h0Z"/><path class="k" d="M93.4,129.67c-1.21,1.46-.61,.73,0,0h0Z"/><path class="k" d="M93.4,129.67c.13-.16,.24-.29,.33-.4-.1,.12-.21,.26-.33,.4Z"/><path class="k" d="M504.38,118.41c-.33-.01-.72-.03-1.01-.04,.16,0,.36,.02,.64,.03,.15,0,.25,.01,.37,.02Z"/><path class="k" d="M504.63,118.42c.72,.03,.5,.02,0,0h0Z"/><path class="k" d="M503.37,118.37c-.7-.03-.48-.02,0,0h0Z"/><path class="k" d="M496.99,123.82l-44.05-1.93v44.91l-18.68,11.61c-2.18-2.47-5.89-3.09-8.78-1.3-3.23,2-4.22,6.26-2.22,9.49s6.26,4.22,9.49,2.21c2.89-1.8,3.97-5.39,2.73-8.44l19.77-12.28v-43.78l41.64,1.83c.41,3.27,3.11,5.88,6.51,6.03,3.79,.17,7.02-2.78,7.18-6.58,.17-3.79-2.79-7.02-6.58-7.18-3.4-.15-6.32,2.21-7.02,5.43Zm-65.4,63.81l.09-.06s-.07,.04-.09,.06Zm.31-.19c-2.47,1.53-5.73,.77-7.26-1.7-1.53-2.47-.77-5.73,1.7-7.26,2.47-1.53,5.72-.77,7.26,1.7,1.53,2.47,.77,5.72-1.7,7.26Zm72.03-67.43c2.9,.13,5.16,2.59,5.04,5.5-.13,2.9-2.59,5.16-5.5,5.04-.11,0-.19,0-.27-.01,.09,0,.18,0,.27,.01-2.9-.13-5.16-2.59-5.03-5.49h0c.13-2.91,2.59-5.17,5.5-5.04Zm.13,10.56c-.08,0-.19,0-.32-.01,.12,0,.23,.01,.32,.01Zm-1.19-.05c-.34-.02-.26-.01,0,0h0Z"/><path class="k" d="M504.38,118.41c.09,0,.18,0,.26,.01h-.26Z"/><path class="k" d="M426.09,176.74c.11-.07,.19-.12,.24-.15-.06,.03-.13,.08-.24,.15Z"/><path class="k" d="M424.73,177.58c.14-.09,.38-.23,.75-.47,.21-.13,.38-.23,.51-.32-.4,.25-.98,.61-1.27,.79Z"/><path class="k" d="M426,176.8s.06-.04,.09-.06c-.03,.02-.05,.03-.09,.06Z"/><path class="k" d="M424.69,177.61c-.16,.1-.2,.12,0,0h0Z"/><path class="k" d="M424.73,177.58l-.04,.03,.04-.03Z"/><path class="k" d="M426.33,176.59c.09-.06,.1-.06,0,0h0Z"/><path class="k" d="M398,198.99c0,3.8,3.09,6.89,6.89,6.89,3.4,0,6.22-2.49,6.77-5.74h50.36c.55,3.25,3.37,5.74,6.77,5.74,3.8,0,6.89-3.09,6.89-6.89s-3.09-6.89-6.89-6.89c-3.4,0-6.22,2.49-6.77,5.73h-50.36c-.55-3.25-3.37-5.73-6.77-5.73-3.8,0-6.89,3.09-6.89,6.89Zm70.79-5.27c2.91,0,5.27,2.36,5.27,5.27s-2.36,5.27-5.27,5.27-5.27-2.36-5.27-5.27,2.36-5.27,5.27-5.27Zm-63.9,0c2.91,0,5.27,2.36,5.27,5.27s-2.36,5.27-5.27,5.27-5.27-2.36-5.27-5.27,2.36-5.27,5.27-5.27Z"/><path class="k" d="M347.95,40.23c-3.8,0-6.89,3.09-6.89,6.89s3.09,6.89,6.89,6.89c3.4,0,6.22-2.49,6.77-5.73h35.87l51.04,43.51,.32,.27h25.6c.55,3.25,3.37,5.73,6.77,5.73,3.8,0,6.89-3.09,6.89-6.89s-3.09-6.89-6.89-6.89c-3.4,0-6.22,2.49-6.77,5.73h-24.75l-51.04-43.51-.32-.27h-36.73c-.55-3.25-3.37-5.73-6.77-5.73Zm126.38,45.41c2.91,0,5.27,2.36,5.27,5.27s-2.36,5.27-5.27,5.27-5.27-2.36-5.27-5.26v-.02c0-2.9,2.37-5.26,5.27-5.26Zm-126.38-33.25c-2.91,0-5.27-2.36-5.27-5.27s2.36-5.27,5.27-5.27,5.26,2.36,5.27,5.26v.02c0,2.9-2.37,5.26-5.27,5.26Z"/><path class="k" d="M498.09,150.39c-.09-.1-.15-.17-.19-.21,.05,.05,.11,.12,.19,.21Z"/><path class="k" d="M498.9,151.3c.14,.16,.26,.29,.32,.36-.05-.06-.15-.17-.32-.36Z"/><path class="k" d="M497.9,150.18c-.07-.08-.08-.09,0,0h0Z"/><path class="k" d="M499.23,151.67c.07,.07,.06,.07,0,0h0Z"/><path class="k" d="M526.19,181.99c.38,.43,.28,.31,0,0h0Z"/><path class="k" d="M525.38,181.07c-.06-.06-.11-.12-.16-.18,.05,.05,.09,.1,.16,.18Z"/><path class="k" d="M525.06,180.71c-.07-.08-.07-.08,0,0h0Z"/><path class="k" d="M525.22,180.89c-.07-.08-.13-.14-.16-.18,.04,.04,.09,.1,.16,.18Z"/><path class="k" d="M535.44,182.03c2.84-2.52,3.09-6.89,.57-9.72-2.26-2.54-5.99-2.99-8.78-1.25l-18.08-20.34-.86,.76c2.83-2.52,3.09-6.88,.56-9.72-2.52-2.84-6.89-3.09-9.72-.57-2.84,2.52-3.09,6.89-.57,9.72-.17-.19-.34-.38-.47-.53,.11,.13,.26,.29,.47,.53,.14,.16,.25,.28,.34,.39-.11-.12-.22-.25-.34-.39,2.52,2.84,6.88,3.09,9.72,.57l-.86,.76,18.08,20.34c-2.06,2.57-2.05,6.33,.21,8.87,2.52,2.84,6.89,3.09,9.72,.57Zm-27.31-38.65l-.05-.06s.04,.04,.05,.06Zm-8.36,6.46c-1.93-2.17-1.74-5.51,.44-7.44,2.17-1.93,5.51-1.74,7.44,.44,1.93,2.17,1.74,5.51-.44,7.44-2.17,1.93-5.51,1.74-7.44-.44Zm27.6,23.1h0c2.17-1.93,5.51-1.74,7.44,.44,1.93,2.17,1.74,5.51-.44,7.44-2.17,1.93-5.51,1.74-7.44-.44-1.93-2.17-1.74-5.51,.44-7.44Zm7.65,.67c.55,.61,.34,.38,0,0h0Z"/><path class="k" d="M525.72,181.46c-.14-.16-.25-.28-.34-.39,.11,.12,.22,.25,.34,.39Z"/><path class="k" d="M526.19,181.99c-.11-.13-.26-.29-.47-.53,.17,.19,.34,.38,.47,.53Z"/><path class="k" d="M402.61,154.19h19.74c.55,3.25,3.37,5.73,6.77,5.73,3.8,0,6.89-3.09,6.89-6.89s-3.09-6.89-6.89-6.89c-3.4,0-6.22,2.49-6.77,5.73h-18.91l-36.53-29.92-75.97-2.28-15.59,15.53c-2.68-1.91-6.43-1.68-8.84,.72-2.69,2.68-2.7,7.05-.02,9.74,2.68,2.69,7.05,2.7,9.74,.02,2.41-2.4,2.65-6.15,.75-8.84l14.88-14.83,74.19,2.23,36.55,29.94Zm26.51-6.42c2.91,0,5.27,2.36,5.27,5.27s-2.36,5.27-5.27,5.27-5.27-2.36-5.27-5.27,2.36-5.27,5.27-5.27Zm-154.02-3.23c-2.06,2.05-5.4,2.05-7.45-.01-2.05-2.06-2.04-5.4,.01-7.45-.51,.51-1.03,1.02,0,0,.08-.08,.13-.13,.19-.19,.64-.64,.39-.39,0,0-.06,.06-.13,.13-.19,.19,2.06-2.05,5.4-2.04,7.45,.01h.01c2.05,2.07,2.04,5.41-.02,7.46Z"/><path class="k" d="M276.24,145.68c.14-.14,.24-.24,.34-.34-.11,.11-.22,.22-.34,.34Z"/><path class="k" d="M276.58,145.34c.07-.07,.13-.13,.19-.19-.05,.05-.11,.11-.19,.19Z"/><path class="k" d="M276.77,145.15c.35-.35,.26-.26,0,0h0Z"/><path class="k" d="M276.24,145.68c-.67,.67-1.35,1.34,0,0h0Z"/><polygon class="k" points="267.66 137.06 267.66 137.06 267.66 137.06 267.66 137.06"/><path class="k" d="M412.21,89.06c.13,.09,.28,.2,.48,.34,1.9,1.32,.33,.23-.48-.34Z"/><path class="k" d="M412.21,89.06c-.07-.05-.11-.08-.16-.11,.05,.03,.1,.07,.16,.11Z"/><path class="k" d="M412.05,88.95c-.28-.2-.37-.26,0,0h0Z"/><path class="k" d="M368.6,67.01c-2.17,3.11-1.41,7.42,1.7,9.59,2.78,1.94,6.49,1.53,8.81-.79l23.1,17.18c-.87,2.79,.07,5.94,2.6,7.7,3.11,2.17,7.42,1.41,9.59-1.7,2.17-3.11,1.41-7.42-1.7-9.59-3.04-2.12-7.2-1.43-9.42,1.51l-22.83-16.98c1.43-2.99,.56-6.66-2.25-8.62-3.11-2.17-7.42-1.41-9.59,1.7Zm2.89,8.45c.43,.3,.68,.48,0,0h0Zm-.53-.37l.09,.06-.09-.06Zm40.81,15.64c2.38,1.66,2.97,4.96,1.3,7.34-1.66,2.38-4.96,2.97-7.34,1.3-2.13-1.49-2.81-4.28-1.74-6.56l.66-.88-.08-.06c1.7-2.24,4.88-2.77,7.2-1.14Zm-33.19-16.76h0c-1.67,2.39-4.95,2.97-7.33,1.31-2.38-1.66-2.97-4.96-1.3-7.34,1.66-2.38,4.96-2.97,7.34-1.3,2.38,1.66,2.97,4.95,1.31,7.34Z"/><path class="k" d="M378.83,65.75c.28,.2,.37,.26,0,0h0Z"/><path class="k" d="M378.19,65.31c-1.56-1.09-.78-.54,0,0h0Z"/><path class="k" d="M378.19,65.31c.3,.21,.5,.35,.64,.45-.17-.12-.4-.28-.64-.45Z"/><path class="k" d="M355.44,92.9c-.66-.46-.44-.31,0,0h0Z"/><path class="k" d="M363.81,81.94c-3.11-2.17-7.42-1.41-9.59,1.7-2.17,3.11-1.41,7.42,1.7,9.59-.17-.12-.33-.23-.48-.33,.13,.09,.28,.2,.48,.34,.35,.24,.57,.4,.71,.49-.17-.12-.44-.3-.71-.49,2.77,1.93,6.46,1.53,8.78-.76l37.6,29.29,.31,.24h25.41c.55,3.25,3.37,5.73,6.77,5.73,3.8,0,6.89-3.09,6.89-6.89s-3.09-6.89-6.89-6.89c-3.4,0-6.22,2.49-6.77,5.73h-24.62l-37.36-29.11c1.45-2.99,.58-6.68-2.23-8.64Zm70.99,33.63c2.91,0,5.27,2.36,5.27,5.27s-2.36,5.27-5.27,5.27-5.27-2.36-5.27-5.27,2.36-5.27,5.27-5.27Zm-77.95-23.67c-2.38-1.66-2.97-4.96-1.3-7.34,1.66-2.38,4.96-2.97,7.34-1.3,2.38,1.66,2.97,4.95,1.31,7.34v.02c-1.68,2.37-4.96,2.95-7.34,1.29Z"/><path class="k" d="M356.63,93.73c.21,.15,.27,.19,0,0h0Z"/><path class="k" d="M507.59,239.23c-3.4,0-6.22,2.49-6.77,5.73h-97.08v26.61l19.57,17.46c-1.75,2.79-1.3,6.52,1.24,8.79,2.83,2.53,7.2,2.28,9.73-.56,2.53-2.83,2.28-7.2-.55-9.73-2.54-2.27-6.3-2.28-8.87-.23l-18.8-16.77v-23.27h94.77c.55,3.25,3.37,5.73,6.77,5.73,3.8,0,6.89-3.09,6.89-6.89s-3.09-6.89-6.89-6.89Zm-74.96,49.52c-.54-.48-1.08-.97,0,0,1.08,.97,.54,.48,0,0,2.17,1.94,2.36,5.27,.42,7.44-1.94,2.17-5.27,2.36-7.44,.42-2.17-1.94-2.36-5.27-.42-7.44h0c1.94-2.17,5.27-2.36,7.44-.43Zm74.96-37.36c-2.91,0-5.27-2.36-5.27-5.27h0c0-2.91,2.36-5.28,5.27-5.28s5.27,2.36,5.27,5.27-2.36,5.27-5.27,5.27Z"/><path class="k" d="M424.54,297.82c-.25-.22-.5-.44-.65-.58,.13,.11,.33,.29,.65,.58Z"/><path class="k" d="M425.13,298.34c-.08-.07-.19-.17-.33-.29,.13,.11,.24,.21,.33,.29Z"/><path class="k" d="M425.13,298.34c.32,.28,.24,.22,0,0h0Z"/><path class="k" d="M423.83,297.18c-.12-.11-.15-.13,0,0h0Z"/><path class="k" d="M423.88,297.23s-.04-.04-.06-.05c.02,.02,.03,.03,.06,.05Z"/><polygon class="k" points="432.63 288.74 432.63 288.74 432.63 288.74 432.63 288.74"/><path class="k" d="M117.71,127.07c.99,3.67,4.77,5.85,8.44,4.86,3.67-.99,5.85-4.77,4.86-8.44-.88-3.29-4.02-5.36-7.3-5.05l-10.13-37.64,38.62-38.62h40.42c.55,3.25,3.37,5.73,6.77,5.73,3.8,0,6.89-3.09,6.89-6.89s-3.09-6.89-6.89-6.89c-3.4,0-6.22,2.49-6.77,5.73h-41.38l-40.24,40.23,10.48,38.94c-2.99,1.38-4.66,4.74-3.78,8.03ZM199.39,35.75c2.91,0,5.27,2.36,5.27,5.27s-2.36,5.27-5.27,5.27-5.27-2.36-5.27-5.27h0c0-2.91,2.36-5.28,5.27-5.28Zm-69.94,88.15l-.09-.34,.09,.34c.08,.31,.14,.51,.17,.63-.04-.16-.11-.39-.17-.63,.76,2.81-.91,5.7-3.72,6.46-2.81,.76-5.7-.91-6.46-3.72-.75-2.81,.91-5.7,3.72-6.46h0c2.81-.76,5.7,.91,6.46,3.72Zm-.16-.59c-.06-.24-.08-.31,0,0h0Z"/><path class="k" d="M117.94,127.94c-.04-.16-.12-.43-.23-.87-.67-2.51,.03,.12,.23,.87Z"/><path class="k" d="M117.94,127.94c.07,.27,.06,.22,0,0h0Z"/><path class="k" d="M211.21,96.41l-48.34,35.58c-2.37-2.29-6.11-2.62-8.85-.6-3.06,2.25-3.72,6.57-1.46,9.63,2.25,3.06,6.57,3.71,9.63,1.46-.05,.04-.11,.08-.16,.12l.16-.12c1.53-1.13,.76-.56,0,0,2.74-2.02,3.53-5.69,2.05-8.63l47.73-35.14h59.89l33.23-33.16-1.63-1.63-32.56,32.49h-59.69Zm-49.98,44.77c-2.34,1.72-5.65,1.22-7.37-1.12-1.72-2.34-1.22-5.65,1.12-7.37-.58,.43-1.17,.86,0,0,.13-.1,.23-.17,.32-.24-.1,.07-.21,.15-.32,.24,2.34-1.72,5.64-1.22,7.36,1.12h0c1.72,2.35,1.22,5.65-1.12,7.37Z"/><polygon class="k" points="154.98 132.69 154.98 132.69 154.98 132.69 154.98 132.69"/><path class="k" d="M161.58,142.93c-.3,.22-.4,.3,0,0h0Z"/><path class="k" d="M162.03,142.6c-.19,.14-.33,.25-.44,.33,.13-.09,.28-.2,.44-.33Z"/><path class="k" d="M314.02,55c-2.68-2.69-7.05-2.69-9.74-.01-2.69,2.68-2.69,7.05-.01,9.74,2.68,2.69,7.05,2.69,9.74,.01-.67,.67-1.34,1.34,0,0,.47-.47,.68-.68,.74-.74-.1,.09-.42,.42-.74,.74,2.69-2.68,2.69-7.05,0-9.74Zm-8.03,.57s.03-.03,0,0h0Zm-.58,8.02c-2.05-2.06-2.05-5.4,0-7.45,2.06-2.05,5.4-2.05,7.45,0,2.05,2.06,2.05,5.4,0,7.45-2.06,2.05-5.4,2.05-7.45,0Z"/><path class="k" d="M314.76,64s.03-.03,0,0h0Z"/><path class="k" d="M198.98,67.86l-30.58,25.33c-2.5-2.15-6.25-2.26-8.87-.1,.27-.23,.55-.45,.71-.58-.13,.11-.35,.29-.71,.58-1.46,1.21-.73,.61,0,0-2.92,2.42-3.33,6.77-.91,9.7,2.42,2.92,6.77,3.33,9.7,.91,2.62-2.17,3.2-5.88,1.56-8.73l29.94-24.81h62.16l16.63-17.28-1.66-1.6-15.95,16.58h-62.01Zm-31.19,34.18c.15-.13,.19-.16,0,0h0Zm-.78,.64s.06-.05,.1-.08l-.1,.08Zm.27-.22c-2.24,1.85-5.57,1.54-7.42-.7-1.85-2.24-1.54-5.57,.7-7.42,2.24-1.85,5.57-1.54,7.42,.7,1.85,2.24,1.54,5.57-.7,7.42Z"/><path class="k" d="M277.87,42.04c.21-.22,.34-.35,.4-.42-.08,.08-.22,.23-.4,.42Z"/><path class="k" d="M277.28,42.65c.09-.09,.17-.18,.29-.31-.1,.11-.2,.21-.29,.31Z"/><path class="k" d="M276.88,43.07c-.07,.07-.07,.08,0,0h0Z"/><path class="k" d="M276.88,43.07c.08-.08,.22-.23,.4-.42-.21,.22-.34,.35-.4,.42Z"/><path class="k" d="M277.58,42.34c.1-.11,.2-.21,.29-.31-.09,.09-.17,.18-.29,.31Z"/><path class="k" d="M278.27,41.62c.07-.07,.07-.08,0,0h0Z"/><path class="k" d="M277.76,52.08c2.74,2.63,7.11,2.55,9.74-.19,2.63-2.74,2.55-7.11-.19-9.74-2.74-2.63-7.11-2.55-9.74,.19-2.63,2.74-2.55,7.11,.19,9.74Zm8.29-1.01c-.46,.48-.3,.32,0,0h0Zm-7.31-7.61c2.02-2.1,5.36-2.16,7.45-.14,2.1,2.02,2.16,5.36,.14,7.45-2.02,2.1-5.36,2.16-7.45,.14-2.09-2.02-2.16-5.36-.14-7.45Z"/><path class="k" d="M160.23,92.51c.2-.17,.16-.13,0,0h0Z"/><path class="k" d="M130.64,82.65c-2.72,2.65-2.78,7.02-.13,9.74,2.65,2.72,7.02,2.78,9.74,.13-.3,.29-.59,.58-.72,.7,.09-.09,.3-.29,.72-.7,.42-.4,.62-.61,.72-.7-.12,.12-.41,.4-.72,.7,2.44-2.37,2.72-6.12,.85-8.83l18.77-18.27c2.66,1.94,6.41,1.76,8.85-.61,2.72-2.65,2.78-7.02,.13-9.74-2.65-2.72-7.02-2.78-9.74-.13-2.44,2.37-2.72,6.12-.85,8.83l-18.77,18.27c-2.66-1.94-6.41-1.76-8.85,.61Zm.85,1.43c-.33,.32-.51,.5,0,0h0Zm7.63,7.29c-2.08,2.03-5.43,1.98-7.45-.1-2.03-2.08-1.98-5.43,.1-7.45,2.08-2.03,5.42-1.98,7.45,.1h0c2.03,2.09,1.98,5.43-.1,7.46Zm21.12-35.27c2.08-2.03,5.43-1.98,7.45,.1,2.03,2.08,1.98,5.43-.1,7.45-2.08,2.03-5.43,1.98-7.45-.1-2.03-2.08-1.98-5.43,.1-7.45Zm-.28,.27c-.33,.32-.51,.5,0,0h0Z"/><path class="k" d="M140.96,91.82c.07-.07,.08-.07,0,0h0Z"/><path class="k" d="M139.53,93.22c-.08,.07-.07,.07,0,0h0Z"/><path class="k" d="M168.72,64.8c-.42,.4-.62,.61-.72,.7,.12-.12,.42-.4,.72-.7Z"/><path class="k" d="M169.44,64.11c.08-.07,.07-.07,0,0h0Z"/><path class="k" d="M168.72,64.8c.3-.29,.59-.58,.72-.7-.09,.09-.3,.29-.72,.7Z"/><path class="k" d="M168.01,65.5c-.07,.07-.08,.07,0,0h0Z"/><path class="k" d="M251.64,119.89c.34-.27,.55-.44,.68-.54-.63,.5-2.69,2.14-.68,.54Z"/><path class="k" d="M251.64,119.89c-2.66,2.12-3.32,5.82-1.73,8.7l-38.18,30.37c-2.45-2.2-6.2-2.39-8.87-.27,.1-.08,.19-.15,.28-.23-.09,.07-.17,.13-.28,.23-.08,.06-.13,.1-.19,.15,.06-.05,.13-.1,.19-.15-2.97,2.36-3.47,6.71-1.1,9.68,2.36,2.97,6.71,3.47,9.68,1.1,2.66-2.12,3.32-5.82,1.73-8.7l38.18-30.37c2.45,2.2,6.21,2.39,8.87,.27,2.97-2.36,3.47-6.71,1.1-9.68-2.36-2.97-6.71-3.47-9.68-1.1Zm-41.82,48.81l.19-.15c-.09,.08-.16,.12-.19,.15Zm.61-.49c-2.28,1.81-5.6,1.43-7.41-.84-1.81-2.28-1.43-5.6,.84-7.41,2.28-1.81,5.6-1.43,7.41,.84,1.81,2.28,1.43,5.6-.84,7.41Zm48.78-38.8c.15-.12,.31-.24,.43-.34-.1,.08-.23,.18-.43,.34-2.27,1.81-5.59,1.43-7.4-.84h0c-1.8-2.29-1.43-5.6,.85-7.41,2.28-1.81,5.6-1.43,7.41,.84,1.81,2.28,1.43,5.6-.84,7.41Zm.62-.49s.04-.03,0,0h0Zm-1.2,.95c-.09,.07-.08,.06,0,0h0Z"/><path class="k" d="M252.33,119.34c.2-.16,.25-.2,0,0h0Z"/><path class="k" d="M203.64,158.07c.1-.08,.08-.07,0,0h0Z"/><path class="k" d="M203.51,158.17c.05-.04,.1-.08,.13-.1l-.13,.1Z"/><path class="k" d="M202.68,158.84c-.63,.5-1.08,.86,0,0h0Z"/><path class="k" d="M203.15,158.46c.15-.12,.28-.22,.36-.29-.1,.08-.22,.18-.36,.29Z"/><path class="k" d="M475.67,291.56c0-3.8-3.09-6.89-6.89-6.89s-6.89,3.09-6.89,6.89c0,3.4,2.49,6.22,5.73,6.77v48.54c-3.25,.55-5.73,3.37-5.73,6.77,0,3.8,3.09,6.89,6.89,6.89s6.89-3.09,6.89-6.89c0-3.4-2.49-6.22-5.73-6.77v-48.54c3.25-.55,5.73-3.37,5.73-6.77Zm-12.16,0c0-2.91,2.36-5.27,5.27-5.27s5.27,2.36,5.27,5.27c0,2.51-1.76,4.61-4.12,5.13v-.06h-2.31v.06c-2.35-.53-4.12-2.63-4.12-5.13Zm10.54,62.08c0,2.91-2.36,5.27-5.27,5.27s-5.27-2.36-5.27-5.27,2.36-5.27,5.27-5.27,5.27,2.36,5.27,5.27Z"/><path class="k" d="M495.07,291.56c0-3.8-3.09-6.89-6.89-6.89s-6.89,3.09-6.89,6.89c0,3.4,2.49,6.22,5.73,6.77v48.54c-3.25,.55-5.73,3.37-5.73,6.77,0,3.8,3.09,6.89,6.89,6.89s6.89-3.09,6.89-6.89c0-3.4-2.49-6.22-5.73-6.77v-48.54c3.25-.55,5.73-3.37,5.73-6.77Zm-12.16,0c0-2.91,2.36-5.27,5.27-5.27s5.27,2.36,5.27,5.27c0,2.51-1.76,4.61-4.12,5.13v-.06h-2.31v.06c-2.35-.53-4.12-2.63-4.12-5.13Zm10.54,62.08c0,2.91-2.36,5.27-5.27,5.27s-5.27-2.36-5.27-5.27,2.36-5.27,5.27-5.27,5.27,2.36,5.27,5.27Z"/><path class="k" d="M514.47,291.56c0-3.8-3.09-6.89-6.89-6.89s-6.89,3.09-6.89,6.89c0,3.4,2.49,6.22,5.73,6.77v48.54c-3.25,.55-5.73,3.37-5.73,6.77,0,3.8,3.09,6.89,6.89,6.89s6.89-3.09,6.89-6.89c0-3.4-2.49-6.22-5.73-6.77v-48.54c3.25-.55,5.73-3.37,5.73-6.77Zm-12.16,0c0-2.91,2.36-5.27,5.27-5.27s5.27,2.36,5.27,5.27c0,2.51-1.77,4.61-4.12,5.13v-.06h-2.31v.06c-2.35-.53-4.12-2.62-4.12-5.13Zm10.54,62.08c0,2.91-2.36,5.27-5.27,5.27s-5.27-2.36-5.27-5.27,2.36-5.27,5.27-5.27,5.27,2.36,5.27,5.27Z"/><path class="k" d="M216.34,251.7v-2.31h-39.69l-21.71-25.65c2.12-2.52,2.2-6.28,0-8.87-2.45-2.9-6.81-3.26-9.71-.81-2.9,2.45-3.26,6.81-.81,9.71,2.2,2.6,5.92,3.14,8.75,1.46l22.4,26.47h40.76Zm-70.68-28.97c.47,.55,.94,1.11,0,0-.94-1.11-.47-.56,0,0-1.88-2.22-1.6-5.55,.62-7.43,2.22-1.88,5.55-1.6,7.43,.62,1.88,2.22,1.6,5.55-.62,7.43h0c-2.22,1.88-5.55,1.6-7.43-.62Z"/><path class="k" d="M223.23,243.66c-3.8,0-6.89,3.09-6.89,6.89s3.09,6.89,6.89,6.89,6.89-3.09,6.89-6.89-3.09-6.89-6.89-6.89Zm0,12.16c-2.91,0-5.27-2.36-5.27-5.27s2.36-5.27,5.27-5.27,5.27,2.36,5.27,5.27-2.36,5.27-5.27,5.27Z"/><path class="k" d="M154.94,214.87c-1.23-1.45-.61-.72,0,0h0Z"/><path class="k" d="M154.94,214.87c.21,.25,.42,.5,.56,.66-.11-.13-.28-.33-.56-.66Z"/><polygon class="k" points="145.66 222.73 145.66 222.73 145.66 222.73 145.66 222.73"/><path class="k" d="M155.55,215.59c.11,.13,.14,.17,0,0h0Z"/><path class="k" d="M155.49,215.53s.04,.05,.05,.06l-.05-.06Z"/><path class="k" d="M363.47,297.93c.16,.05,.13,.04,0,0h0Z"/><path class="k" d="M363.27,297.87c.08,.03,.15,.05,.2,.07-.05-.02-.12-.04-.2-.07Z"/><path class="k" d="M362.37,297.57c-.1-.03-.19-.06-.27-.09,.09,.03,.18,.06,.27,.09Z"/><path class="k" d="M361.58,297.32c-.07-.02-.07-.02,0,0h0Z"/><path class="k" d="M362.1,297.49c-.24-.08-.43-.14-.52-.17,.07,.02,.24,.08,.52,.17Z"/><path class="k" d="M362.37,297.57c.06,.02,.11,.03,.18,.06,.34,.11,.55,.18,.72,.23-.24-.08-.58-.19-.9-.29Z"/><path class="k" d="M303.49,372.11v-44.51l28.23-22.27c2.55-.01,16.6-.08,21.94,0,.42,2.44,2.11,4.59,4.63,5.41,3.61,1.17,7.51-.81,8.68-4.42,1.17-3.61-.81-7.51-4.42-8.68-3.61-1.17-7.51,.81-8.68,4.42-.1,.32-.15,.64-.21,.96-5.91-.08-22.18,0-22.35,.01h-.4l-29.29,23.11-.44,.35v45.62c-3.25,.55-5.73,3.37-5.73,6.77,0,3.8,3.09,6.89,6.89,6.89s6.89-3.09,6.89-6.89c0-3.4-2.49-6.22-5.73-6.77Zm51.91-69.55c.9-2.77,3.88-4.28,6.64-3.38,2.76,.9,4.28,3.88,3.38,6.64-.9,2.76-3.88,4.28-6.64,3.38-1.38-.45-.69-.22,0,0-2.77-.9-4.28-3.88-3.38-6.64Zm-53.07,81.6c-2.91,0-5.27-2.36-5.27-5.27s2.36-5.27,5.26-5.27h.02c2.9,0,5.26,2.37,5.26,5.27s-2.36,5.27-5.27,5.27Z"/><path class="k" d="M331.12,350.69c-.11,.09-.23,.18-.33,.26,.1-.08,.2-.15,.33-.26Z"/><path class="k" d="M330.79,350.95c-.15,.11-.26,.21-.34,.27,.09-.07,.21-.16,.34-.27Z"/><path class="k" d="M330.44,351.22s-.06,.05-.09,.07c.02-.02,.05-.04,.09-.07Z"/><path class="k" d="M331.83,350.13c.17-.13,.21-.17,0,0h0Z"/><path class="k" d="M331.12,350.69c.36-.28,.58-.45,.72-.56-.16,.13-.44,.34-.72,.56Z"/><path class="k" d="M330.36,351.28c-.13,.1-.11,.09,0,0h0Z"/><path class="k" d="M384.14,393.8l46.93-34.6-45.04-33.3h-36.17l-18.25,14.22,.71,.91c-2.34-2.99-6.67-3.53-9.66-1.19-3,2.34-3.53,6.67-1.2,9.67,2.33,3,6.67,3.53,9.67,1.2,2.99-2.33,3.53-6.67,1.2-9.66l.71,.9,17.62-13.74h34.61l41.92,30.99-44.41,32.75c-2.37-2.28-6.11-2.61-8.85-.59-3.06,2.25-3.71,6.57-1.46,9.63,2.25,3.06,6.58,3.71,9.63,1.46,2.74-2.02,3.53-5.69,2.05-8.63Zm-59.97-53.11s-.11,.08-.18,.14c.08-.06,.13-.1,.18-.14Zm5.95,8.73c-2.29,1.79-5.61,1.38-7.4-.92-1.79-2.29-1.38-5.61,.92-7.4-.12,.1-.25,.19-.35,.27,.09-.07,.21-.16,.35-.27,2.29-1.79,5.61-1.38,7.4,.92,1.79,2.29,1.38,5.61-.92,7.4Zm-7.05-7.87l.04-.03-.04,.03Zm58.25,59.44c.05-.04,.1-.08,.15-.11l-.15,.11Zm-.2,.14c-2.34,1.73-5.65,1.23-7.37-1.11-1.73-2.34-1.23-5.65,1.11-7.37,2.34-1.72,5.64-1.23,7.37,1.11h0c1.72,2.34,1.22,5.65-1.11,7.37Z"/><path class="k" d="M374.37,391c.44-.33,.67-.49,0,0h0Z"/><path class="k" d="M373.91,391.34c.19-.14,.34-.25,.46-.34-.14,.1-.3,.22-.46,.34Z"/><path class="k" d="M373.91,391.34c-.76,.56-1.53,1.13,0,0h0Z"/><path class="k" d="M389.99,347.58c.1-.08,.12-.09,0,0h0Z"/><path class="k" d="M389.7,347.8c.14-.11,.23-.17,.29-.22-.07,.05-.16,.13-.29,.22Z"/><path class="k" d="M388.79,348.49c-.1,.08-.19,.15-.27,.21,.07-.05,.15-.12,.27-.21Z"/><path class="k" d="M388.52,348.7c-.25,.19-.2,.15,0,0h0Z"/><path class="k" d="M355.46,374c-.1,.08-.12,.09,0,0h0Z"/><path class="k" d="M356.66,373.09c.1-.08,.19-.15,.27-.21-.07,.05-.15,.12-.27,.21Z"/><path class="k" d="M355.75,373.78c.13-.1,.28-.22,.49-.37,.17-.13,.3-.23,.42-.32-.28,.22-.64,.49-.91,.69Z"/><path class="k" d="M356.92,372.88c.26-.2,.2-.15,0,0h0Z"/><path class="k" d="M364.61,384.35c2.7-2.07,3.43-5.75,1.89-8.67l22.13-16.94-.7-.92c2.31,3.01,6.64,3.59,9.65,1.28,3.02-2.31,3.59-6.64,1.28-9.66-2.31-3.02-6.64-3.59-9.66-1.28,.17-.13,.34-.26,.49-.37-.13,.1-.28,.22-.49,.37-.17,.13-.3,.23-.42,.32,.13-.1,.27-.21,.42-.32-3.01,2.31-3.59,6.64-1.28,9.65l-.7-.91-22.13,16.94c-2.41-2.24-6.16-2.51-8.86-.44-3.02,2.31-3.59,6.64-1.28,9.66,2.31,3.02,6.64,3.59,9.66,1.28Zm25.59-34.9c2.31-1.77,5.62-1.33,7.39,.98,1.77,2.31,1.33,5.62-.98,7.39-2.31,1.77-5.62,1.33-7.39-.98s-1.33-5.62,.98-7.39Zm6.82,8.06l-.03,.02,.03-.02Zm-1,.77s.04-.03,.07-.06l-.07,.06Zm-39.78,23.81c-1.77-2.31-1.33-5.62,.98-7.39,2.31-1.77,5.62-1.33,7.39,.98h0c1.77,2.31,1.32,5.62-.98,7.39,.25-.19,.49-.37,.6-.46-.09,.07-.26,.2-.6,.46-.23,.18-.38,.29-.49,.37,.13-.1,.3-.23,.49-.37-2.31,1.77-5.62,1.33-7.39-.98Zm6.74,1.48s-.02,.02,0,0h0Z"/><path class="k" d="M355.75,373.78c-.14,.11-.23,.17-.29,.22l.29-.22Z"/><path class="k" d="M362.06,358.67c2.41,2.24,6.16,2.5,8.86,.44,3.02-2.31,3.59-6.64,1.28-9.66-2.31-3.02-6.64-3.59-9.66-1.28-2.7,2.07-3.43,5.75-1.89,8.67l-22.22,17.01c-2.41-2.24-6.16-2.51-8.86-.44-3.02,2.31-3.59,6.64-1.28,9.66,2.31,3.02,6.64,3.59,9.66,1.28,2.7-2.07,3.43-5.75,1.89-8.67l22.22-17.01Zm1.47-9.22c2.31-1.77,5.62-1.33,7.39,.98,1.77,2.31,1.33,5.62-.98,7.39,.15-.12,.3-.23,.42-.32-.1,.08-.23,.18-.42,.32-2.31,1.77-5.62,1.33-7.39-.98h0c-1.76-2.31-1.32-5.63,.98-7.39Zm5.98,8.7c-.36,.27-.26,.2,0,0h0Zm-32.55,24.92c.27-.21,.54-.41,.63-.48-.07,.05-.25,.19-.63,.48-1.15,.88-.58,.44,0,0-2.31,1.77-5.62,1.33-7.39-.98-1.77-2.31-1.33-5.62,.98-7.39,2.31-1.77,5.62-1.33,7.39,.98,1.77,2.31,1.33,5.62-.98,7.39Z"/><path class="k" d="M363.33,347.58c.1-.08,.12-.09,0,0h0Z"/><path class="k" d="M362.55,348.17c.43-.33,.66-.51,.77-.59-.15,.11-.46,.35-.77,.59Z"/><path class="k" d="M362.55,348.17c-.35,.27-.69,.53-.82,.62,.09-.07,.32-.25,.82-.62Z"/><path class="k" d="M361.74,348.79c-.06,.04-.05,.04,0,0h0Z"/><path class="k" d="M329.99,373.09c.1-.08,.19-.15,.27-.21-.07,.05-.15,.12-.27,.21Z"/><path class="k" d="M328.8,374c-.1,.08-.12,.09,0,0h0Z"/><path class="k" d="M329.09,373.78c.13-.1,.28-.22,.49-.37,.17-.13,.3-.23,.42-.32-.28,.22-.64,.49-.91,.69Z"/><path class="k" d="M329.09,373.78c-.14,.11-.23,.17-.29,.22,.07-.05,.16-.13,.29-.22Z"/><path class="k" d="M330.26,372.88c.26-.2,.2-.15,0,0h0Z"/></g></svg>