<?xml version="1.0" encoding="utf-8"?>
<!-- Generator: Adobe Illustrator 26.2.1, SVG Export Plug-In . SVG Version: 6.00 Build 0)  -->
<svg version="1.1" id="Layer_1" xmlns="http://www.w3.org/2000/svg" xmlns:xlink="http://www.w3.org/1999/xlink" x="0px" y="0px"
	 viewBox="0 0 445.1 211.8" style="enable-background:new 0 0 445.1 211.8;" xml:space="preserve">
<style type="text/css">
	.st0{opacity:0.5;}
	.st1{clip-path:url(#SVGID_00000145058215818872594510000013447986698219981483_);}
	.st2{fill:#CCCCCC;}
</style>
<g class="st0">
	<g id="a">
		<g>
			<defs>
				<rect id="SVGID_1_" x="0.2" y="-8.4" width="453.2" height="235.1"/>
			</defs>
			<clipPath id="SVGID_00000138544656607860579440000006511205021389242521_">
				<use xlink:href="#SVGID_1_"  style="overflow:visible;"/>
			</clipPath>
			<g style="clip-path:url(#SVGID_00000138544656607860579440000006511205021389242521_);">
				<g>
					<path class="st2" d="M453.7,131.4c-0.7,0-1.4,0.5-1.5,1.2h-20.4l-8.3-8.3h-71.2l-13.6,13.6h-24l-16.5-16.5h-27.9l-24.4,24.4
						h-62.9l-17.7,17.7H158l-12.2,12.2h-22.1L97,202.4c-0.6-0.4-1.4-0.3-1.9,0.3c-0.6,0.6-0.6,1.7,0,2.3c0.6,0.6,1.7,0.6,2.3,0
						c0.5-0.5,0.6-1.3,0.3-1.9l26.4-26.4h22.1l12.2-12.2h7.1l17.7-17.7h62.9l24.4-24.4h27.2l16.5,16.5H339l13.6-13.6H423l8.3,8.3
						h20.8c0.2,0.7,0.8,1.2,1.5,1.2c0.9,0,1.6-0.7,1.6-1.6S454.6,131.4,453.7,131.4L453.7,131.4z"/>
					<path class="st2" d="M456.5,52.6c-0.7,0-1.4,0.5-1.6,1.2h-32.9l-6.9,6.9h-46.3l-9-9h-20.9l-3.7,3.7h-32.2l-17.1-17.2h-33.3
						l-14.9,14.9h-30.2l-19.4-19.4h-19.7l-15.5,15.5H142l-23-23h-13.2L88.3,8.8c0.3-0.6,0.3-1.4-0.3-1.9c-0.6-0.6-1.7-0.6-2.3,0
						s-0.6,1.7,0,2.3c0.5,0.5,1.3,0.6,1.9,0.3l17.8,17.8h13.2l23,23h11.8L169,34.6h19L207.4,54h30.9l14.9-14.8h32.6l17.1,17.2h32.9
						l3.7-3.7h20.1l9,9h47l6.9-6.9H455c0.2,0.7,0.8,1.2,1.6,1.2c0.9,0,1.6-0.7,1.6-1.6S457.4,52.6,456.5,52.6L456.5,52.6z"/>
					<path class="st2" d="M451.9,99.4c-0.7,0-1.4,0.5-1.5,1.2h-63.3l-18.9-18.9h-25.4L328,96.4h-36.9l-16.3-16.3h-27l-6.2,6.2H218
						l-9.7-9.7h-19.1L178.8,87h-20.1l-14-14h-25.4l-18.2-18.2H37.9l-14-14c0.4-0.6,0.3-1.4-0.3-1.9c-0.6-0.6-1.7-0.6-2.3,0
						s-0.6,1.7,0,2.3c0.5,0.5,1.3,0.6,1.9,0.3l14.3,14.3h63.3l18.2,18.2h25.4l14,14h20.8l10.4-10.4H208l9.7,9.7h24.3l6.2-6.2h26.3
						l16.3,16.3h37.6l14.7-14.7h24.7l18.9,18.9h63.7c0.2,0.7,0.8,1.2,1.5,1.2c0.9,0,1.6-0.7,1.6-1.6S452.8,99.4,451.9,99.4
						L451.9,99.4z"/>
					<path class="st2" d="M422.8,115.4l9.6,9.6H450c0.2,0.7,0.8,1.2,1.5,1.2c0.9,0,1.6-0.7,1.6-1.6s-0.7-1.6-1.6-1.6
						c-0.7,0-1.4,0.5-1.5,1.2h-17.2l-9.6-9.6h-39.4l-20.4-20.4h-16.2L334.3,107h-47.8l-14.3-14.3H251l-11.5,11.5h-35.7l-10.6-10.6
						h-43.7L124,118.9H73.5l-9.8,9.8c-0.6-0.4-1.4-0.3-1.9,0.3c-0.6,0.6-0.6,1.7,0,2.3c0.6,0.6,1.7,0.6,2.3,0
						c0.5-0.5,0.6-1.3,0.3-1.9l9.6-9.6h50.6l25.4-25.4h43l10.6,10.6h36.5l11.5-11.5h20.4l14.3,14.3h48.5L347.6,95H363l20.4,20.4
						L422.8,115.4L422.8,115.4z"/>
					<path class="st2" d="M367,87.8c-0.6-0.6-1.7-0.6-2.3,0s-0.6,1.7,0,2.3c0.5,0.5,1.3,0.6,1.9,0.3l16.1,16.1h41.3l11.2,11.2H449
						c0.2,0.7,0.8,1.2,1.5,1.2c0.9,0,1.6-0.7,1.6-1.6s-0.7-1.6-1.6-1.6c-0.7,0-1.4,0.5-1.5,1.2h-13.4l-11.2-11.2h-41.3l-15.9-15.9
						C367.6,89.1,367.5,88.3,367,87.8L367,87.8z"/>
					<path class="st2" d="M369.7,116.3c0.6,0.6,1.7,0.6,2.3,0s0.6-1.7,0-2.3c-0.5-0.5-1.3-0.6-1.9-0.3l-11-11h-10.6l-12.8,12.8
						h-47.5l-14.6-14.6h-19.1L240.2,115h-38.3c-0.2-0.7-0.8-1.2-1.6-1.2c-0.9,0-1.6,0.7-1.6,1.6s0.7,1.6,1.6,1.6
						c0.7,0,1.4-0.5,1.6-1.2h38.7l14.2-14.2h18.4l14.6,14.6H336l12.8-12.8h9.9l10.8,10.8C369.1,114.9,369.2,115.7,369.7,116.3z"/>
					<path class="st2" d="M355.5,116.3h-9.9l-8.6,8.6h-22.4c-0.2-0.7-0.8-1.2-1.5-1.2c-0.9,0-1.6,0.7-1.6,1.6s0.7,1.6,1.6,1.6
						c0.7,0,1.4-0.5,1.5-1.2h22.8l8.6-8.6h9.5c0.2,0.7,0.8,1.2,1.5,1.2c0.9,0,1.6-0.7,1.6-1.6s-0.7-1.6-1.6-1.6
						C356.3,115.1,355.7,115.6,355.5,116.3L355.5,116.3z"/>
					<path class="st2" d="M68.6,172.6h21.5l16.7-16.7h41.5l20.5-20.5h73l22.2-22.2c0.6,0.3,1.4,0.3,1.9-0.3c0.6-0.6,0.6-1.7,0-2.3
						s-1.7-0.6-2.3,0c-0.5,0.5-0.6,1.3-0.3,1.9l-22,22h-73L148,155h-41.5l-16.7,16.7H68.3l-15.8,15.8H25.3c-0.2-0.7-0.8-1.2-1.5-1.2
						c-0.9,0-1.6,0.7-1.6,1.6s0.7,1.6,1.6,1.6c0.7,0,1.4-0.5,1.5-1.2h27.5L68.6,172.6L68.6,172.6z"/>
					<path class="st2" d="M194.7,129.8H235l19.6-19.6c0.6,0.3,1.4,0.3,1.9-0.3c0.6-0.6,0.6-1.7,0-2.3c-0.6-0.6-1.7-0.6-2.3,0
						c-0.5,0.5-0.6,1.3-0.3,1.9L234.6,129h-39.5l-12.1-12.1h-24.1l-17.8,17.8H96.4c-0.2-0.7-0.8-1.2-1.6-1.2c-0.9,0-1.6,0.7-1.6,1.6
						s0.7,1.6,1.6,1.6c0.7,0,1.4-0.5,1.6-1.2h45l17.8-17.8h23.4L194.7,129.8L194.7,129.8z"/>
					<path class="st2" d="M78.4,158L92,144.4h54.9l18.6-18.6h11.9c0.2,0.7,0.8,1.2,1.6,1.2c0.9,0,1.6-0.7,1.6-1.6s-0.7-1.6-1.6-1.6
						c-0.8,0-1.4,0.5-1.6,1.2h-12.3l-18.6,18.6H91.6L78,157.1H58.7l-9.9,9.9c-0.6-0.4-1.4-0.3-1.9,0.3c-0.6,0.6-0.6,1.7,0,2.3
						c0.6,0.6,1.7,0.6,2.3,0c0.5-0.5,0.6-1.3,0.3-1.9L59,158L78.4,158L78.4,158z"/>
					<path class="st2" d="M90,124.6h39l22.9-22.9h34.5l9.5,9.6h25.6c0.2,0.7,0.8,1.2,1.6,1.2c0.9,0,1.6-0.7,1.6-1.6
						s-0.7-1.6-1.6-1.6c-0.7,0-1.4,0.5-1.6,1.2h-25.3l-9.6-9.6h-35.2l-22.9,22.9H90c-0.2-0.7-0.8-1.2-1.6-1.2
						c-0.9,0-1.6,0.7-1.6,1.6s0.7,1.6,1.6,1.6C89.2,125.8,89.8,125.3,90,124.6L90,124.6z"/>
					<path class="st2" d="M47.1,150.9c0.7,0,1.4-0.5,1.6-1.2h15.7l19.9-19.9h50.8l20.8-20.8h27.8l12.4,12.4H229
						c0.2,0.7,0.8,1.2,1.6,1.2c0.9,0,1.6-0.7,1.6-1.6s-0.7-1.6-1.6-1.6c-0.8,0-1.4,0.5-1.6,1.2h-32.4l-12.4-12.4h-28.5L134.8,129H84
						l-19.9,19.9H48.7c-0.2-0.7-0.8-1.2-1.6-1.2c-0.9,0-1.6,0.7-1.6,1.6S46.2,150.9,47.1,150.9L47.1,150.9z"/>
					<path class="st2" d="M102.9,184.4l17.3-17.3h27l26-26h65.4c0.2,0.7,0.8,1.2,1.6,1.2c0.9,0,1.6-0.7,1.6-1.6s-0.7-1.6-1.6-1.6
						c-0.8,0-1.4,0.5-1.6,1.2h-65.7l-26,26h-27l-17.3,17.3H74.9l-17.3,17.3c-0.6-0.4-1.4-0.3-1.9,0.3c-0.6,0.6-0.6,1.7,0,2.3
						c0.6,0.6,1.7,0.6,2.3,0c0.5-0.5,0.6-1.3,0.3-1.9l17-17H102.9z"/>
					<path class="st2" d="M453.9,64c0.9,0,1.6-0.7,1.6-1.6s-0.7-1.6-1.6-1.6c-0.7,0-1.4,0.5-1.5,1.2h-26.1l-10,10h-43
						c-0.2-0.7-0.8-1.2-1.5-1.2c-0.9,0-1.6,0.7-1.6,1.6s0.7,1.6,1.6,1.6c0.7,0,1.4-0.5,1.5-1.2h43.3l10-10h25.8
						C452.6,63.5,453.2,64,453.9,64z"/>
					<path class="st2" d="M400.9,65.5c-0.7,0-1.4,0.5-1.5,1.2h-36.3l-7.4-7.4h-56.6l-14.4-14.4h-27.4l-18.1,18.1h-39.8l-16.3-16.3
						h-17.5l-11.9,11.9h-17.3l-15.3-15.3H41.1c-0.2-0.7-0.8-1.2-1.6-1.2c-0.9,0-1.6,0.7-1.6,1.6s0.7,1.6,1.6,1.6
						c0.7,0,1.4-0.5,1.6-1.2h79.7L136,59.4h18L166,47.5h16.8L199,63.8h40.5l18.1-18.1h26.7l14.4,14.4h56.6l7.4,7.4h36.6
						c0.2,0.7,0.8,1.2,1.5,1.2c0.9,0,1.6-0.7,1.6-1.6S401.8,65.5,400.9,65.5L400.9,65.5z"/>
					<path class="st2" d="M227.3,77.3h-7.4l-7.9-7.9h-30.1l-7.2,7.2h-16.3l-8.6-8.6h-26.3l-20-20h-60c-0.2-0.7-0.8-1.2-1.5-1.2
						c-0.9,0-1.6,0.7-1.6,1.6s0.7,1.6,1.6,1.6c0.7,0,1.4-0.5,1.5-1.2h59.7l20,20h26.3l8.6,8.6h17l7.2-7.2h29.4l7.9,7.9h8.1l6.6-6.6
						h40.5l16.5,16.5h29.5l11.9-11.9h26.2c0.2,0.7,0.8,1.2,1.6,1.2c0.9,0,1.6-0.7,1.6-1.6s-0.7-1.6-1.6-1.6c-0.7,0-1.4,0.5-1.6,1.2
						h-26.6l-11.9,11.9h-28.8l-16.5-16.5h-41.2L227.3,77.3L227.3,77.3z"/>
					<path class="st2" d="M417.6,78l8.6,8.6H449c0.2,0.7,0.8,1.2,1.5,1.2c0.9,0,1.6-0.7,1.6-1.6s-0.7-1.6-1.6-1.6
						c-0.7,0-1.4,0.5-1.5,1.2h-22.4l-8.6-8.6h-39.5c-0.2-0.7-0.8-1.2-1.6-1.2c-0.9,0-1.6,0.7-1.6,1.6s0.7,1.6,1.6,1.6
						c0.8,0,1.4-0.5,1.6-1.2L417.6,78L417.6,78z"/>
					<path class="st2" d="M454.4,94.1c-0.7,0-1.4,0.5-1.5,1.2h-31.5l-8.8-8.8h-28.3c-0.2-0.7-0.8-1.2-1.5-1.2
						c-0.9,0-1.6,0.7-1.6,1.6s0.7,1.6,1.6,1.6c0.8,0,1.4-0.5,1.5-1.2h27.9l8.8,8.8h31.9c0.2,0.7,0.8,1.2,1.5,1.2
						c0.9,0,1.6-0.7,1.6-1.6S455.3,94.1,454.4,94.1L454.4,94.1z"/>
					<path class="st2" d="M257.3,58.2c-0.2-0.7-0.8-1.2-1.6-1.2c-0.9,0-1.6,0.7-1.6,1.6s0.7,1.6,1.6,1.6c0.7,0,1.4-0.5,1.6-1.2h13.2
						l20.2,20.2h25.4l8.4-8.3h29.1c0.2,0.7,0.8,1.2,1.5,1.2c0.9,0,1.6-0.7,1.6-1.6s-0.7-1.6-1.6-1.6c-0.8,0-1.4,0.5-1.5,1.2h-29.5
						l-8.4,8.3H291l-20.2-20.2H257.3L257.3,58.2z"/>
					<path class="st2" d="M280,54.9c-0.6-0.6-1.7-0.6-2.3,0s-0.6,1.7,0,2.3c0.5,0.5,1.3,0.6,1.9,0.3l15.8,15.8H312l8.1-8.1h28.1
						c0.2,0.7,0.8,1.2,1.5,1.2c0.9,0,1.6-0.7,1.6-1.6s-0.7-1.6-1.6-1.6c-0.7,0-1.4,0.5-1.5,1.2h-28.5l-8.1,8.1h-15.9l-15.5-15.5
						C280.6,56.3,280.5,55.5,280,54.9L280,54.9z"/>
					<path class="st2" d="M69.2,106.5l-16.1,16.1c-0.6-0.3-1.4-0.3-1.9,0.3c-0.6,0.6-0.6,1.7,0,2.3s1.7,0.6,2.3,0
						c0.5-0.5,0.6-1.3,0.3-1.9l15.9-15.9h56.1l19.6-19.6c0.6,0.3,1.4,0.3,1.9-0.3c0.6-0.6,0.6-1.7,0-2.3c-0.6-0.6-1.7-0.6-2.3,0
						c-0.5,0.5-0.6,1.3-0.3,1.9l-19.3,19.3H69.2L69.2,106.5z"/>
					<path class="st2" d="M24.3,66.8h16.9l7.9,7.9h18l9.1-9.1h22.5l15.8,15.8h24.2c0.2,0.7,0.8,1.2,1.6,1.2c0.9,0,1.6-0.7,1.6-1.6
						s-0.7-1.6-1.6-1.6c-0.7,0-1.4,0.5-1.6,1.2h-23.9L99.1,64.8H75.9l-9.1,9.1H49.5L41.6,66H24.7L9.8,51c0.4-0.6,0.3-1.4-0.3-1.9
						c-0.6-0.6-1.7-0.6-2.3,0s-0.6,1.7,0,2.3c0.5,0.5,1.3,0.6,1.9,0.3L24.3,66.8L24.3,66.8z"/>
					<path class="st2" d="M101.1,97L89.5,85.4H75.4L64.5,96.3H48.7l-8.1,8.1c-0.6-0.3-1.4-0.3-1.9,0.3c-0.6,0.6-0.6,1.7,0,2.3
						s1.7,0.6,2.3,0c0.5-0.5,0.6-1.3,0.3-1.9l7.9-7.9h15.8l10.9-10.9h13.4l11.6,11.6h21.6l8.6-8.6c0.6,0.3,1.4,0.3,1.9-0.3
						c0.6-0.6,0.6-1.7,0-2.3s-1.7-0.6-2.3,0c-0.5,0.5-0.6,1.3-0.3,1.9l-8.4,8.4L101.1,97L101.1,97z"/>
					<path class="st2" d="M79.1,102.4c0.2,0.7,0.8,1.2,1.6,1.2c0.9,0,1.6-0.7,1.6-1.6s-0.7-1.6-1.6-1.6c-0.7,0-1.4,0.5-1.6,1.2H55.4
						l-17.9,17.9c-0.6-0.3-1.4-0.3-1.9,0.3c-0.6,0.6-0.6,1.7,0,2.3s1.7,0.6,2.3,0c0.5-0.5,0.6-1.3,0.3-1.9l17.7-17.7H79.1z"/>
					<path class="st2" d="M42.4,89.4h17.1l8.2-8.2H101l6.9,6.9h13.2c0.2,0.7,0.8,1.2,1.6,1.2c0.9,0,1.6-0.7,1.6-1.6
						s-0.7-1.6-1.6-1.6c-0.7,0-1.4,0.5-1.6,1.2h-12.9l-6.9-6.9h-34l-8.2,8.2H42l-24,24c-0.6-0.3-1.4-0.3-1.9,0.3
						c-0.6,0.6-0.6,1.7,0,2.3c0.6,0.6,1.7,0.6,2.3,0c0.5-0.5,0.6-1.3,0.3-1.9L42.4,89.4L42.4,89.4z"/>
					<path class="st2" d="M106.2,80.9c0.6,0.6,1.7,0.6,2.3,0c0.6-0.6,0.6-1.7,0-2.3c-0.5-0.5-1.3-0.6-1.9-0.3l-6.7-6.7H81.6
						c-0.2-0.7-0.8-1.2-1.6-1.2c-0.9,0-1.6,0.7-1.6,1.6s0.7,1.6,1.6,1.6c0.7,0,1.4-0.5,1.6-1.2h17.9L106,79
						C105.6,79.6,105.7,80.4,106.2,80.9z"/>
					<path class="st2" d="M23.8,11.2c0.7,0,1.4-0.5,1.5-1.2h22.2l4.5,4.5h26.3l19.6,19.6h19.4c0.2,0.7,0.8,1.2,1.6,1.2
						c0.9,0,1.6-0.7,1.6-1.6s-0.7-1.6-1.6-1.6c-0.7,0-1.4,0.5-1.6,1.2H98.2L78.6,13.7H52.4l-4.5-4.5H25.3C25.1,8.5,24.5,8,23.8,8
						c-0.9,0-1.6,0.7-1.6,1.6S22.8,11.2,23.8,11.2L23.8,11.2z"/>
					<path class="st2" d="M8.9,20.2c0.8,0,1.4-0.5,1.6-1.2h36.2l3.9,3.9h21.7l16.9,17H112c0.2,0.7,0.8,1.2,1.6,1.2
						c0.9,0,1.6-0.7,1.6-1.6s-0.7-1.6-1.6-1.6c-0.8,0-1.4,0.5-1.6,1.2H89.6l-16.9-17H50.9L47,18.1H10.5c-0.2-0.7-0.8-1.2-1.6-1.2
						c-0.9,0-1.6,0.7-1.6,1.6S8.1,20.2,8.9,20.2L8.9,20.2z"/>
					<path class="st2" d="M34.4,23.2c-0.6-0.6-1.7-0.6-2.3,0c-0.6,0.6-0.6,1.7,0,2.3c0.5,0.5,1.3,0.6,1.9,0.3L44.4,36H70
						c0.2,0.7,0.8,1.2,1.6,1.2c0.9,0,1.6-0.7,1.6-1.6S72.5,34,71.6,34c-0.7,0-1.4,0.5-1.6,1.2H44.7l-10-10
						C35,24.5,35,23.7,34.4,23.2z"/>
				</g>
			</g>
		</g>
	</g>
</g>
</svg>
