<?xml version="1.0" encoding="UTF-8"?><svg xmlns="http://www.w3.org/2000/svg" xmlns:xlink="http://www.w3.org/1999/xlink" viewBox="0 0 525.41 251.29"><defs><style>.ky{fill:url(#hb);}.ky,.l`,.la,.lb,.lc,.ld,.le,.lf,.lg,.lh,.li,.lj,.lk,.ll,.lm,.ln,.lo,.lp,.lq,.lr,.ls,.lt,.lu,.lv,.lw,.lx,.ly,.m`,.ma,.mb,.mc,.md,.me,.mf,.mg,.mh,.mi,.mj,.mk,.ml,.mm,.mn,.mo,.mp,.mq,.mr,.ms,.mt,.mu,.mv,.mw,.mx,.my,.n`,.na,.nb,.nc,.nd,.ne,.nf,.ng,.nh,.ni,.nj,.nk,.nl{mix-blend-mode:multiply;}.l`{fill:url(#hc);}.nm{fill:url(#kr);}.nn{fill:url(#ks);}.no{fill:url(#be);}.np{fill:url(#hk);}.np,.nq,.nr,.ns,.nt,.nu,.nv,.nw,.nx,.ny,.o`,.oa,.ob,.oc,.od,.oe,.of,.og,.oh,.oi,.oj,.ok,.ol,.om,.on,.oo,.op,.oq,.or,.os,.ot,.ou,.ov,.ow,.ox,.oy,.p`,.pa,.pb,.pc,.pd{opacity:.7;}.pe{fill:url(#t);}.pf{fill:url(#bu);}.pg{fill:url(#ki);}.ph{fill:url(#kd);}.pi{fill:url(#bq);}.pj{fill:url(#kw);}.nr{fill:url(#il);}.ns{fill:url(#hl);}.la{fill:url(#fq);}.pk{fill:#fff;}.pl{fill:url(#eq);}.pm{fill:url(#da);}.pn{fill:url(#eh);}.po{fill:url(#ds);}.pp{fill:url(#ca);}.pq{fill:url(#ap);}.pr{fill:url(#dp);}.ps{fill:url(#r);}.lb{fill:url(#eu);}.pt{fill:url(#jn);}.pu{fill:url(#bk);}.pv{fill:url(#d`);}.pw{fill:url(#ai);}.px{fill:url(#ch);}.nt{fill:url(#hv);}.nu{fill:url(#hw);}.py{fill:url(#ku);}.nv{fill:url(#if);}.q`{fill:url(#kn);}.qa{fill:url(#y);}.lc{fill:url(#h`);}.qb{fill:url(#dh);}.ld{fill:url(#fr);}.qc{fill:url(#l);}.qd{fill:url(#cy);}.le{fill:url(#fc);}.qe{fill:url(#dr);}.qf{fill:url(#jx);}.qg{fill:url(#ef);}.qh{fill:url(#ji);}.qi{fill:url(#bl);}.qj{fill:url(#kv);}.lf{fill:url(#gb);}.qk{fill:url(#cm);}.ql{fill:url(#bp);}.qm{fill:url(#af);}.lg{fill:url(#es);}.qn{fill:url(#jg);}.qo{fill:url(#br);}.lh{fill:url(#fj);}.qp{fill:url(#aq);}.qq{fill:url(#u);}.qr{fill:url(#js);}.qs{fill:url(#ah);}.li{fill:url(#gn);}.qt{fill:url(#dd);}.qu{isolation:isolate;}.qv{fill:url(#b`);}.qw{fill:url(#hu);}.qx{fill:url(#v);}.lj{fill:url(#gm);}.qy{fill:url(#kb);}.nw{fill:url(#io);}.r`{fill:url(#ck);}.ra{fill:url(#jd);}.rb{fill:url(#av);}.lk{fill:url(#gy);}.nx{fill:url(#hh);}.rc{fill:url(#a`);}.ll{fill:url(#fn);}.rd{fill:url(#jf);}.lm{fill:url(#gj);}.re{fill:url(#as);}.rf{fill:url(#dt);}.rg{fill:url(#m);}.ln{fill:url(#gl);}.ny{fill:url(#is);}.rh{fill:url(#jk);}.ri{fill:url(#bh);}.rj{fill:url(#ei);}.rk{fill:url(#ke);}.rl{fill:url(#aw);}.rm{fill:url(#do);}.o`{fill:url(#ix);}.lo{fill:url(#gc);}.rn{fill:url(#jh);}.lp{fill:url(#go);}.ro{fill:url(#kx);}.rp{fill:url(#hs);}.rq{fill:url(#du);}.rr{fill:url(#dg);}.rs{fill:url(#bm);}.oa{fill:url(#ij);}.lq{fill:url(#gp);}.ob{fill:url(#id);}.rt{fill:url(#ba);}.ru{fill:url(#ht);}.rv{fill:url(#ao);}.oc{fill:url(#in);}.lr{fill:url(#fy);}.od{fill:url(#ir);}.rw{fill:url(#eb);}.rx{fill:url(#ek);}.ry{fill:url(#ec);}.oe{fill:url(#hi);}.s`{fill:url(#bj);}.sa{fill:url(#bd);}.sb{fill:url(#jy);}.sc{fill:url(#eg);}.sd{fill:url(#ce);}.se{fill:url(#f);}.sf{fill:url(#bg);}.ls{fill:url(#gs);}.lt{fill:url(#fo);}.sg{fill:url(#ae);}.sh{fill:url(#db);}.si{fill:url(#bi);}.lu{fill:url(#fp);}.sj{fill:url(#dc);}.sk{fill:url(#bo);}.lv{fill:url(#ey);}.lw{fill:url(#et);}.sl{fill:url(#dq);}.sm{fill:url(#je);}.lx{fill:url(#b);opacity:.5;}.of{fill:url(#ii);}.sn{fill:url(#kt);}.so{fill:url(#jm);}.sp{fill:url(#p);}.sq{fill:url(#dj);}.sr{fill:url(#jc);}.ss{opacity:.4;}.ly{fill:url(#fe);}.st{fill:url(#g);}.su{fill:url(#bb);}.sv{fill:url(#ka);}.sw{fill:url(#kc);}.sx{fill:url(#ad);}.sy{fill:url(#ab);}.og{fill:url(#it);}.t`{fill:url(#cb);}.ta{fill:url(#ak);}.tb{fill:url(#cg);}.m`{fill:url(#fk);}.tc{fill:url(#au);}.td{fill:url(#ko);}.ma{fill:url(#gx);}.mb{fill:url(#fi);}.te{fill:url(#bf);}.mc{fill:url(#gf);}.md{fill:url(#fs);}.me{fill:url(#ga);}.tf{fill:url(#hf);}.tg{fill:url(#c`);}.th{fill:url(#cf);}.mf{fill:url(#gi);}.ti{fill:url(#kl);}.tj{fill:url(#i);}.tk{fill:url(#ep);}.oh{fill:url(#im);}.mg{fill:url(#fu);}.tl{fill:url(#dv);}.tm{fill:url(#jl);}.tn{fill:url(#el);}.oi{fill:url(#hx);}.oj{fill:url(#hj);}.mh{fill:url(#fm);}.to{fill:url(#jq);}.tp{fill:url(#di);}.tq{fill:url(#kj);}.tr{fill:url(#dx);}.ts{fill:url(#dy);}.tt{fill:url(#bc);}.tu{fill:url(#aj);}.tv{fill:url(#ci);}.tw{fill:url(#kf);}.tx{fill:url(#ar);}.ty{fill:url(#bv);}.u`{fill:url(#h);}.mi{fill:url(#ha);}.ua{fill:url(#cn);}.mj{fill:url(#gr);}.ub{fill:url(#cx);}.uc{fill:url(#em);}.mk{fill:url(#ew);}.ok{fill:url(#iw);}.ud{fill:url(#d);}.ue{fill:url(#e);}.uf{fill:url(#by);}.ol{fill:url(#iq);}.ug{fill:url(#am);}.om{fill:url(#ik);}.uh{fill:url(#k`);}.ml{fill:url(#fv);}.ui{fill:url(#dm);}.on{fill:url(#ie);}.oo{fill:url(#ic);}.mm{fill:url(#gg);}.uj{fill:url(#cw);}.mn{fill:url(#g`);}.uk{fill:url(#hr);}.ul{fill:url(#bw);}.um{fill:url(#jp);}.mo{fill:url(#fg);}.un{fill:url(#jt);}.op{fill:url(#ia);}.uo{fill:url(#co);}.up{fill:url(#x);}.mp{fill:url(#gq);}.uq{fill:url(#hd);}.ur{fill:url(#jj);}.us{fill:url(#at);}.mq{fill:url(#gd);}.ut{fill:url(#kk);}.uu{fill:url(#aa);}.uv{fill:url(#s);}.uw{fill:url(#bx);}.ux{fill:url(#he);}.uy{fill:url(#kg);}.v`{fill:url(#jo);}.va{fill:url(#jv);}.vb{fill:url(#kh);}.vc{fill:url(#ee);}.vd{fill:url(#bn);}.ve{fill:url(#n);}.mr{fill:url(#ge);}.vf{fill:url(#df);}.vg{opacity:.6;}.vh{fill:url(#ac);}.vi{fill:url(#cs);}.oq{fill:url(#iv);}.vj{fill:url(#kp);}.vk{fill:url(#jw);}.ms{fill:url(#gt);}.vl{fill:url(#jr);}.or{fill:url(#ih);}.vm{fill:url(#cj);}.mt{fill:url(#er);}.vn{fill:url(#cc);}.vo{fill:url(#ej);}.os{fill:url(#iy);}.vp{fill:url(#w);}.mu{fill:url(#f`);}.vq{fill:url(#dn);}.vr{fill:url(#dl);}.mv{fill:url(#fw);}.vs{fill:url(#en);}.mw{fill:url(#fh);}.ot{fill:url(#hy);}.ou{fill:url(#ig);}.vt{fill:url(#al);}.vu{fill:url(#ho);}.ov{fill:url(#j`);}.vv{fill:url(#cp);}.vw{fill:url(#j);}.vx{fill:url(#cl);}.mx{fill:url(#fd);}.vy{fill:url(#ed);}.w`{fill:url(#o);}.my{fill:url(#fl);}.wa{fill:url(#dw);}.ow{fill:url(#ib);}.ox{fill:url(#hn);}.n`{fill:url(#gh);}.wb{fill:url(#an);}.wc{fill:url(#bt);}.oy{fill:url(#i`);}.wd{fill:url(#cv);}.we{fill:url(#ax);}.p`{fill:url(#iu);}.wf{fill:url(#q);}.wg{fill:url(#ag);}.wh{fill:url(#cr);}.wi{fill:url(#hg);}.wj{fill:url(#hp);}.wk{fill:url(#ay);}.wl{fill:url(#de);}.na{fill:url(#gv);}.wm{fill:url(#kq);}.wn{fill:url(#k);}.wo{fill:url(#cu);}.wp{fill:url(#c);mix-blend-mode:screen;}.wq{fill:url(#km);}.wr{fill:url(#hq);}.pa{fill:url(#hm);}.ws{fill:url(#bs);}.wt{fill:url(#ju);}.nc{fill:url(#ev);}.nd{fill:url(#fb);}.wu{fill:url(#cd);}.ne{fill:url(#fx);}.wv{fill:url(#eo);}.nf{fill:url(#fa);}.pb{fill:url(#jb);}.ww{opacity:.3;}.wx{fill:url(#ea);}.wy{fill:url(#cq);}.ng{fill:url(#ex);}.nh{fill:url(#gw);}.ni{fill:url(#ft);}.x`{fill:url(#dk);}.xa{fill:url(#e`);}.pc{fill:url(#ip);}.nj{fill:url(#gu);}.pd{fill:url(#ja);}.nk{fill:url(#gk);}.xb{fill:url(#ct);}.nl{fill:url(#ff);}</style><radialGradient id="b" cx="1898.94" cy="340.05" fx="1898.94" fy="340.05" r="115.8" gradientTransform="translate(1347 -158.71) rotate(-180) scale(.66 -.89)" gradientUnits="userSpaceOnUse"><stop offset=".12" stop-color="#00001b"/><stop offset=".17" stop-color="#1a1a33"/><stop offset=".3" stop-color="#565668"/><stop offset=".43" stop-color="#898996"/><stop offset=".56" stop-color="#b4b4bb"/><stop offset=".68" stop-color="#d4d4d9"/><stop offset=".8" stop-color="#ececee"/><stop offset=".91" stop-color="#fafafa"/><stop offset="1" stop-color="#fff"/></radialGradient><radialGradient id="c" cx="435.67" cy="136.32" fx="435.67" fy="136.32" r="119.05" gradientTransform="translate(525.3) rotate(-180) scale(1 -1)" gradientUnits="userSpaceOnUse"><stop offset=".28" stop-color="#fff"/><stop offset=".41" stop-color="#fcfcfc"/><stop offset=".51" stop-color="#f2f2f2"/><stop offset=".59" stop-color="#e2e2e2"/><stop offset=".67" stop-color="#ccc"/><stop offset=".74" stop-color="#afafaf"/><stop offset=".81" stop-color="#8c8c8c"/><stop offset=".88" stop-color="#616161"/><stop offset=".94" stop-color="#323232"/><stop offset="1" stop-color="#000"/></radialGradient><radialGradient id="d" cx="345.73" cy="150.89" fx="345.73" fy="150.89" r="314.76" gradientTransform="translate(525.3) rotate(-180) scale(1 -1)" gradientUnits="userSpaceOnUse"><stop offset="0" stop-color="#f97233"/><stop offset="1" stop-color="#fff"/></radialGradient><radialGradient id="e" cx="345.74" fx="345.74" r="314.77" xlink:href="#d"/><radialGradient id="f" cx="345.72" fx="345.72" r="314.75" xlink:href="#d"/><radialGradient id="g" cx="345.73" fx="345.73" r="314.76" xlink:href="#d"/><radialGradient id="h" cx="345.74" fx="345.74" r="314.77" xlink:href="#d"/><radialGradient id="i" cx="345.74" fx="345.74" r="314.76" xlink:href="#d"/><radialGradient id="j" cx="345.74" fx="345.74" r="314.77" xlink:href="#d"/><radialGradient id="k" cx="345.73" fx="345.73" r="314.76" xlink:href="#d"/><radialGradient id="l" cx="345.74" fx="345.74" r="314.77" xlink:href="#d"/><radialGradient id="m" cx="345.74" fx="345.74" r="314.77" xlink:href="#d"/><radialGradient id="n" cx="345.74" fx="345.74" r="314.77" xlink:href="#d"/><radialGradient id="o" cx="345.73" fx="345.73" r="314.76" xlink:href="#d"/><radialGradient id="p" cx="345.74" fx="345.74" r="314.77" xlink:href="#d"/><radialGradient id="q" cx="345.74" fx="345.74" r="314.77" xlink:href="#d"/><radialGradient id="r" cx="345.73" fx="345.73" r="314.76" xlink:href="#d"/><radialGradient id="s" cx="345.73" fx="345.73" r="314.76" xlink:href="#d"/><radialGradient id="t" cy="150.89" fy="150.89" r="314.76" xlink:href="#d"/><radialGradient id="u" cx="345.74" cy="150.89" fx="345.74" fy="150.89" r="314.77" xlink:href="#d"/><radialGradient id="v" cx="345.72" cy="150.89" fx="345.72" fy="150.89" r="314.75" xlink:href="#d"/><radialGradient id="w" cx="345.73" cy="150.89" fx="345.73" fy="150.89" r="314.76" xlink:href="#d"/><radialGradient id="x" cx="345.74" cy="150.89" fx="345.74" fy="150.89" r="314.77" xlink:href="#d"/><radialGradient id="y" cx="345.74" cy="150.89" fx="345.74" fy="150.89" r="314.76" xlink:href="#d"/><radialGradient id="a`" cx="345.74" cy="150.89" fx="345.74" fy="150.89" r="314.77" xlink:href="#d"/><radialGradient id="aa" cx="345.73" cy="150.89" fx="345.73" fy="150.89" r="314.76" xlink:href="#d"/><radialGradient id="ab" cx="345.74" cy="150.89" fx="345.74" fy="150.89" r="314.77" xlink:href="#d"/><radialGradient id="ac" cx="345.74" cy="150.89" fx="345.74" fy="150.89" r="314.77" xlink:href="#d"/><radialGradient id="ad" cx="345.74" cy="150.89" fx="345.74" fy="150.89" r="314.77" xlink:href="#d"/><radialGradient id="ae" cx="345.73" cy="150.89" fx="345.73" fy="150.89" r="314.76" xlink:href="#d"/><radialGradient id="af" cx="345.74" cy="150.89" fx="345.74" fy="150.89" r="314.77" xlink:href="#d"/><radialGradient id="ag" cx="345.74" cy="150.89" fx="345.74" fy="150.89" r="314.77" xlink:href="#d"/><radialGradient id="ah" cx="345.73" cy="150.89" fx="345.73" fy="150.89" r="314.81" xlink:href="#d"/><radialGradient id="ai" cx="345.73" cy="150.89" fx="345.73" fy="150.89" r="314.76" xlink:href="#d"/><radialGradient id="aj" cy="150.89" fy="150.89" r="314.76" xlink:href="#d"/><radialGradient id="ak" cx="345.74" cy="150.89" fx="345.74" fy="150.89" r="314.77" xlink:href="#d"/><radialGradient id="al" cx="345.72" cy="150.89" fx="345.72" fy="150.89" r="314.75" xlink:href="#d"/><radialGradient id="am" cx="345.73" cy="150.89" fx="345.73" fy="150.89" r="314.76" xlink:href="#d"/><radialGradient id="an" cx="345.74" cy="150.89" fx="345.74" fy="150.89" r="314.77" xlink:href="#d"/><radialGradient id="ao" cx="345.74" cy="150.89" fx="345.74" fy="150.89" r="314.76" xlink:href="#d"/><radialGradient id="ap" cx="345.74" cy="150.89" fx="345.74" fy="150.89" r="314.77" xlink:href="#d"/><radialGradient id="aq" cx="345.73" cy="150.89" fx="345.73" fy="150.89" r="314.76" xlink:href="#d"/><radialGradient id="ar" cx="345.74" cy="150.89" fx="345.74" fy="150.89" r="314.77" xlink:href="#d"/><radialGradient id="as" cx="345.74" cy="150.89" fx="345.74" fy="150.89" r="314.77" xlink:href="#d"/><radialGradient id="at" cx="345.74" cy="150.89" fx="345.74" fy="150.89" r="314.77" xlink:href="#d"/><radialGradient id="au" cx="345.73" cy="150.89" fx="345.73" fy="150.89" r="314.76" xlink:href="#d"/><radialGradient id="av" cx="345.74" cy="150.89" fx="345.74" fy="150.89" r="314.77" xlink:href="#d"/><radialGradient id="aw" cx="345.74" cy="150.89" fx="345.74" fy="150.89" r="314.77" xlink:href="#d"/><radialGradient id="ax" cx="345.73" cy="150.89" fx="345.73" fy="150.89" r="314.76" xlink:href="#d"/><radialGradient id="ay" cx="345.73" cy="150.89" fx="345.73" fy="150.89" r="314.76" xlink:href="#d"/><radialGradient id="b`" cy="150.89" fy="150.89" r="314.76" xlink:href="#d"/><radialGradient id="ba" cx="345.74" cy="150.89" fx="345.74" fy="150.89" r="314.77" xlink:href="#d"/><radialGradient id="bb" cx="345.72" cy="150.89" fx="345.72" fy="150.89" r="314.75" xlink:href="#d"/><radialGradient id="bc" cx="345.73" cy="150.89" fx="345.73" fy="150.89" r="314.76" xlink:href="#d"/><radialGradient id="bd" cx="345.74" cy="150.89" fx="345.74" fy="150.89" r="314.77" xlink:href="#d"/><radialGradient id="be" cx="345.74" cy="150.89" fx="345.74" fy="150.89" r="314.76" xlink:href="#d"/><radialGradient id="bf" cx="345.74" cy="150.89" fx="345.74" fy="150.89" r="314.77" xlink:href="#d"/><radialGradient id="bg" cx="345.73" cy="150.89" fx="345.73" fy="150.89" r="314.76" xlink:href="#d"/><radialGradient id="bh" cx="345.74" cy="150.89" fx="345.74" fy="150.89" r="314.77" xlink:href="#d"/><radialGradient id="bi" cx="345.74" cy="150.89" fx="345.74" fy="150.89" r="314.77" xlink:href="#d"/><radialGradient id="bj" cx="345.74" cy="150.89" fx="345.74" fy="150.89" r="314.77" xlink:href="#d"/><radialGradient id="bk" cx="345.73" cy="150.89" fx="345.73" fy="150.89" r="314.76" xlink:href="#d"/><radialGradient id="bl" cx="345.74" cy="150.89" fx="345.74" fy="150.89" r="314.77" xlink:href="#d"/><radialGradient id="bm" cx="345.74" cy="150.89" fx="345.74" fy="150.89" r="314.77" xlink:href="#d"/><radialGradient id="bn" cx="345.73" cy="150.89" fx="345.73" fy="150.89" r="314.76" xlink:href="#d"/><radialGradient id="bo" cx="345.73" cy="150.89" fx="345.73" fy="150.89" r="314.76" xlink:href="#d"/><radialGradient id="bp" cy="150.89" fy="150.89" r="314.76" xlink:href="#d"/><radialGradient id="bq" cx="345.74" cy="150.89" fx="345.74" fy="150.89" r="314.77" xlink:href="#d"/><radialGradient id="br" cx="345.72" cy="150.89" fx="345.72" fy="150.89" r="314.75" xlink:href="#d"/><radialGradient id="bs" cx="345.73" cy="150.89" fx="345.73" fy="150.89" r="314.76" xlink:href="#d"/><radialGradient id="bt" cx="345.74" cy="150.89" fx="345.74" fy="150.89" r="314.77" xlink:href="#d"/><radialGradient id="bu" cx="345.74" cy="150.89" fx="345.74" fy="150.89" r="314.76" xlink:href="#d"/><radialGradient id="bv" cx="345.74" cy="150.89" fx="345.74" fy="150.89" r="314.77" xlink:href="#d"/><radialGradient id="bw" cx="345.73" cy="150.89" fx="345.73" fy="150.89" r="314.76" xlink:href="#d"/><radialGradient id="bx" cx="345.74" cy="150.89" fx="345.74" fy="150.89" r="314.77" xlink:href="#d"/><radialGradient id="by" cx="345.74" cy="150.89" fx="345.74" fy="150.89" r="314.77" xlink:href="#d"/><radialGradient id="c`" cx="345.74" cy="150.89" fx="345.74" fy="150.89" r="314.77" xlink:href="#d"/><radialGradient id="ca" cx="345.73" cy="150.89" fx="345.73" fy="150.89" r="314.76" xlink:href="#d"/><radialGradient id="cb" cx="345.74" cy="150.89" fx="345.74" fy="150.89" r="314.77" xlink:href="#d"/><radialGradient id="cc" cx="345.74" cy="150.89" fx="345.74" fy="150.89" r="314.77" xlink:href="#d"/><radialGradient id="cd" cx="345.73" cy="150.89" fx="345.73" fy="150.89" r="314.76" xlink:href="#d"/><radialGradient id="ce" cx="345.73" cy="150.89" fx="345.73" fy="150.89" r="314.76" xlink:href="#d"/><radialGradient id="cf" cx="345.73" cy="150.89" fx="345.73" fy="150.89" r="314.76" xlink:href="#d"/><radialGradient id="cg" cx="345.74" cy="150.89" fx="345.74" fy="150.89" r="314.77" xlink:href="#d"/><radialGradient id="ch" cx="345.72" cy="150.89" fx="345.72" fy="150.89" r="314.75" xlink:href="#d"/><radialGradient id="ci" cx="345.73" cy="150.89" fx="345.73" fy="150.89" r="314.76" xlink:href="#d"/><radialGradient id="cj" cx="345.74" cy="150.89" fx="345.74" fy="150.89" r="314.77" xlink:href="#d"/><radialGradient id="ck" cx="345.74" cy="150.89" fx="345.74" fy="150.89" r="314.76" xlink:href="#d"/><radialGradient id="cl" cx="345.74" cy="150.89" fx="345.74" fy="150.89" r="314.77" xlink:href="#d"/><radialGradient id="cm" cx="345.73" cy="150.89" fx="345.73" fy="150.89" r="314.76" xlink:href="#d"/><radialGradient id="cn" cx="345.74" cy="150.89" fx="345.74" fy="150.89" r="314.77" xlink:href="#d"/><radialGradient id="co" cx="345.74" cy="150.89" fx="345.74" fy="150.89" r="314.77" xlink:href="#d"/><radialGradient id="cp" cx="345.74" cy="150.89" fx="345.74" fy="150.89" r="314.77" xlink:href="#d"/><radialGradient id="cq" cx="345.73" cy="150.89" fx="345.73" fy="150.89" r="314.76" xlink:href="#d"/><radialGradient id="cr" cx="345.74" cy="150.89" fx="345.74" fy="150.89" r="314.77" xlink:href="#d"/><radialGradient id="cs" cx="345.74" cy="150.89" fx="345.74" fy="150.89" r="314.77" xlink:href="#d"/><radialGradient id="ct" cx="345.73" cy="150.89" fx="345.73" fy="150.89" r="314.76" xlink:href="#d"/><radialGradient id="cu" cx="345.73" cy="150.89" fx="345.73" fy="150.89" r="314.76" xlink:href="#d"/><radialGradient id="cv" cx="345.73" cy="150.89" fx="345.73" fy="150.89" r="314.76" xlink:href="#d"/><radialGradient id="cw" cx="345.74" cy="150.89" fx="345.74" fy="150.89" r="314.77" xlink:href="#d"/><radialGradient id="cx" cx="345.72" cy="150.89" fx="345.72" fy="150.89" r="314.75" xlink:href="#d"/><radialGradient id="cy" cx="345.73" cy="150.89" fx="345.73" fy="150.89" r="314.76" xlink:href="#d"/><radialGradient id="d`" cx="345.74" cy="150.89" fx="345.74" fy="150.89" r="314.77" xlink:href="#d"/><radialGradient id="da" cx="345.74" cy="150.89" fx="345.74" fy="150.89" r="314.76" xlink:href="#d"/><radialGradient id="db" cx="345.74" cy="150.89" fx="345.74" fy="150.89" r="314.77" xlink:href="#d"/><radialGradient id="dc" cx="345.73" cy="150.89" fx="345.73" fy="150.89" r="314.76" xlink:href="#d"/><radialGradient id="dd" cx="345.74" cy="150.89" fx="345.74" fy="150.89" r="314.77" xlink:href="#d"/><radialGradient id="de" cx="345.74" cy="150.89" fx="345.74" fy="150.89" r="314.77" xlink:href="#d"/><radialGradient id="df" cx="345.74" cy="150.89" fx="345.74" fy="150.89" r="314.77" xlink:href="#d"/><radialGradient id="dg" cx="345.73" cy="150.89" fx="345.73" fy="150.89" r="314.76" xlink:href="#d"/><radialGradient id="dh" cx="345.74" cy="150.89" fx="345.74" fy="150.89" r="314.77" xlink:href="#d"/><radialGradient id="di" cx="345.74" cy="150.89" fx="345.74" fy="150.89" r="314.77" xlink:href="#d"/><radialGradient id="dj" cx="345.73" cy="150.89" fx="345.73" fy="150.89" r="314.76" xlink:href="#d"/><radialGradient id="dk" cx="345.73" cy="150.89" fx="345.73" fy="150.89" r="314.76" xlink:href="#d"/><radialGradient id="dl" cx="345.73" cy="150.89" fx="345.73" fy="150.89" r="314.76" xlink:href="#d"/><radialGradient id="dm" cx="345.74" cy="150.89" fx="345.74" fy="150.89" r="314.77" xlink:href="#d"/><radialGradient id="dn" cx="345.72" cy="150.89" fx="345.72" fy="150.89" r="314.75" xlink:href="#d"/><radialGradient id="do" cx="345.73" cy="150.89" fx="345.73" fy="150.89" r="314.76" xlink:href="#d"/><radialGradient id="dp" cx="345.74" cy="150.89" fx="345.74" fy="150.89" r="314.77" xlink:href="#d"/><radialGradient id="dq" cx="345.74" cy="150.89" fx="345.74" fy="150.89" r="314.76" xlink:href="#d"/><radialGradient id="dr" cx="345.74" cy="150.89" fx="345.74" fy="150.89" r="314.77" xlink:href="#d"/><radialGradient id="ds" cx="345.73" cy="150.89" fx="345.73" fy="150.89" r="314.76" xlink:href="#d"/><radialGradient id="dt" cx="345.74" cy="150.89" fx="345.74" fy="150.89" r="314.77" xlink:href="#d"/><radialGradient id="du" cx="345.74" cy="150.89" fx="345.74" fy="150.89" r="314.77" xlink:href="#d"/><radialGradient id="dv" cx="345.74" cy="150.89" fx="345.74" fy="150.89" r="314.77" xlink:href="#d"/><radialGradient id="dw" cx="345.73" cy="150.89" fx="345.73" fy="150.89" r="314.76" xlink:href="#d"/><radialGradient id="dx" cx="345.74" cy="150.89" fx="345.74" fy="150.89" r="314.77" xlink:href="#d"/><radialGradient id="dy" cx="345.74" cy="150.89" fx="345.74" fy="150.89" r="314.77" xlink:href="#d"/><radialGradient id="e`" cx="345.73" cy="150.89" fx="345.73" fy="150.89" r="314.76" xlink:href="#d"/><radialGradient id="ea" cx="345.73" cy="150.89" fx="345.73" fy="150.89" r="314.76" xlink:href="#d"/><radialGradient id="eb" cy="150.89" fy="150.89" r="314.76" xlink:href="#d"/><radialGradient id="ec" cx="345.74" cy="150.89" fx="345.74" fy="150.89" r="314.77" xlink:href="#d"/><radialGradient id="ed" cx="345.72" cy="150.89" fx="345.72" fy="150.89" r="314.75" xlink:href="#d"/><radialGradient id="ee" cx="345.73" cy="150.89" fx="345.73" fy="150.89" r="314.76" xlink:href="#d"/><radialGradient id="ef" cx="345.74" cy="150.89" fx="345.74" fy="150.89" r="314.77" xlink:href="#d"/><radialGradient id="eg" cx="345.74" cy="150.89" fx="345.74" fy="150.89" r="314.76" xlink:href="#d"/><radialGradient id="eh" cx="345.74" cy="150.89" fx="345.74" fy="150.89" r="314.77" xlink:href="#d"/><radialGradient id="ei" cx="345.73" cy="150.89" fx="345.73" fy="150.89" r="314.76" xlink:href="#d"/><radialGradient id="ej" cx="345.74" cy="150.89" fx="345.74" fy="150.89" r="314.77" xlink:href="#d"/><radialGradient id="ek" cx="345.74" cy="150.89" fx="345.74" fy="150.89" r="314.77" xlink:href="#d"/><radialGradient id="el" cx="345.74" cy="150.89" fx="345.74" fy="150.89" r="314.77" xlink:href="#d"/><radialGradient id="em" cx="345.73" cy="150.89" fx="345.73" fy="150.89" r="314.76" xlink:href="#d"/><radialGradient id="en" cx="345.74" cy="150.89" fx="345.74" fy="150.89" r="314.77" xlink:href="#d"/><radialGradient id="eo" cx="345.74" cy="150.89" fx="345.74" fy="150.89" r="314.77" xlink:href="#d"/><radialGradient id="ep" cx="345.73" cy="150.89" fx="345.73" fy="150.89" r="314.76" xlink:href="#d"/><radialGradient id="eq" cx="345.73" cy="150.89" fx="345.73" fy="150.89" r="314.76" xlink:href="#d"/><radialGradient id="er" cx="345.74" cy="150.89" fx="345.74" fy="150.89" r="314.76" xlink:href="#d"/><radialGradient id="es" cx="345.73" cy="150.89" fx="345.73" fy="150.89" r="314.76" xlink:href="#d"/><radialGradient id="et" cx="345.74" cy="150.89" fx="345.74" fy="150.89" r="314.76" xlink:href="#d"/><radialGradient id="eu" cx="345.73" cy="150.9" fx="345.73" fy="150.9" r="314.76" xlink:href="#d"/><radialGradient id="ev" cx="345.73" cy="150.89" fx="345.73" fy="150.89" r="314.76" xlink:href="#d"/><radialGradient id="ew" cx="345.74" cy="150.89" fx="345.74" fy="150.89" r="314.76" xlink:href="#d"/><radialGradient id="ex" cx="345.74" cy="150.89" fx="345.74" fy="150.89" r="314.77" xlink:href="#d"/><radialGradient id="ey" cx="345.74" cy="150.89" fx="345.74" fy="150.89" r="314.76" xlink:href="#d"/><radialGradient id="f`" cx="345.74" cy="150.89" fx="345.74" fy="150.89" r="314.76" xlink:href="#d"/><radialGradient id="fa" cx="345.73" cy="150.89" fx="345.73" fy="150.89" r="314.76" xlink:href="#d"/><radialGradient id="fb" cx="345.74" cy="150.89" fx="345.74" fy="150.89" r="314.76" xlink:href="#d"/><radialGradient id="fc" cx="345.74" cy="150.89" fx="345.74" fy="150.89" r="314.76" xlink:href="#d"/><radialGradient id="fd" cx="345.74" cy="150.89" fx="345.74" fy="150.89" r="314.76" xlink:href="#d"/><radialGradient id="fe" cx="345.74" cy="150.89" fx="345.74" fy="150.89" r="314.76" xlink:href="#d"/><radialGradient id="ff" cx="345.74" cy="150.89" fx="345.74" fy="150.89" r="314.76" xlink:href="#d"/><radialGradient id="fg" cx="345.73" cy="150.89" fx="345.73" fy="150.89" r="314.76" xlink:href="#d"/><radialGradient id="fh" cx="345.74" cy="150.89" fx="345.74" fy="150.89" r="314.77" xlink:href="#d"/><radialGradient id="fi" cx="345.74" cy="150.89" fx="345.74" fy="150.89" r="314.76" xlink:href="#d"/><radialGradient id="fj" cx="345.74" cy="150.89" fx="345.74" fy="150.89" r="314.76" xlink:href="#d"/><radialGradient id="fk" cx="345.73" cy="150.89" fx="345.73" fy="150.89" r="314.76" xlink:href="#d"/><radialGradient id="fl" cx="345.74" cy="150.89" fx="345.74" fy="150.89" r="314.76" xlink:href="#d"/><radialGradient id="fm" cx="345.74" cy="150.89" fx="345.74" fy="150.89" r="314.76" xlink:href="#d"/><radialGradient id="fn" cx="345.74" cy="150.89" fx="345.74" fy="150.89" r="314.77" xlink:href="#d"/><radialGradient id="fo" cx="345.74" cy="150.89" fx="345.74" fy="150.89" r="314.76" xlink:href="#d"/><radialGradient id="fp" cx="345.74" cy="150.89" fx="345.74" fy="150.89" r="314.76" xlink:href="#d"/><radialGradient id="fq" cx="345.74" cy="150.89" fx="345.74" fy="150.89" r="314.76" xlink:href="#d"/><radialGradient id="fr" cx="345.74" cy="150.89" fx="345.74" fy="150.89" r="314.76" xlink:href="#d"/><radialGradient id="fs" cx="345.74" cy="150.89" fx="345.74" fy="150.89" r="314.76" xlink:href="#d"/><radialGradient id="ft" cx="345.74" cy="150.89" fx="345.74" fy="150.89" r="314.77" xlink:href="#d"/><radialGradient id="fu" cx="345.74" cy="150.89" fx="345.74" fy="150.89" r="314.76" xlink:href="#d"/><radialGradient id="fv" cx="345.74" cy="150.89" fx="345.74" fy="150.89" r="314.76" xlink:href="#d"/><radialGradient id="fw" cx="345.74" cy="150.89" fx="345.74" fy="150.89" r="314.77" xlink:href="#d"/><radialGradient id="fx" cx="345.74" cy="150.89" fx="345.74" fy="150.89" r="314.76" xlink:href="#d"/><radialGradient id="fy" cx="345.74" cy="150.89" fx="345.74" fy="150.89" r="314.76" xlink:href="#d"/><radialGradient id="g`" cx="345.74" cy="150.89" fx="345.74" fy="150.89" r="314.77" xlink:href="#d"/><radialGradient id="ga" cx="345.73" cy="150.89" fx="345.73" fy="150.89" r="314.76" xlink:href="#d"/><radialGradient id="gb" cx="345.74" cy="150.89" fx="345.74" fy="150.89" r="314.77" xlink:href="#d"/><radialGradient id="gc" cx="345.74" cy="150.89" fx="345.74" fy="150.89" r="314.77" xlink:href="#d"/><radialGradient id="gd" cx="345.74" cy="150.89" fx="345.74" fy="150.89" r="314.76" xlink:href="#d"/><radialGradient id="ge" cx="345.73" cy="150.89" fx="345.73" fy="150.89" r="314.76" xlink:href="#d"/><radialGradient id="gf" cx="345.73" cy="150.89" fx="345.73" fy="150.89" r="314.76" xlink:href="#d"/><radialGradient id="gg" cx="345.74" cy="150.89" fx="345.74" fy="150.89" r="314.76" xlink:href="#d"/><radialGradient id="gh" cx="345.74" cy="150.89" fx="345.74" fy="150.89" r="314.77" xlink:href="#d"/><radialGradient id="gi" cx="345.73" cy="150.89" fx="345.73" fy="150.89" r="314.76" xlink:href="#d"/><radialGradient id="gj" cx="345.73" cy="150.89" fx="345.73" fy="150.89" r="314.76" xlink:href="#d"/><radialGradient id="gk" cx="345.74" cy="150.89" fx="345.74" fy="150.89" r="314.77" xlink:href="#d"/><radialGradient id="gl" cx="345.74" cy="150.89" fx="345.74" fy="150.89" r="314.77" xlink:href="#d"/><radialGradient id="gm" cx="345.74" cy="150.89" fx="345.74" fy="150.89" r="314.76" xlink:href="#d"/><radialGradient id="gn" cx="345.74" cy="150.89" fx="345.74" fy="150.89" r="314.77" xlink:href="#d"/><radialGradient id="go" cx="345.74" cy="150.89" fx="345.74" fy="150.89" r="314.76" xlink:href="#d"/><radialGradient id="gp" cx="345.74" cy="150.89" fx="345.74" fy="150.89" r="314.76" xlink:href="#d"/><radialGradient id="gq" cx="345.74" cy="150.89" fx="345.74" fy="150.89" r="314.76" xlink:href="#d"/><radialGradient id="gr" cx="345.74" cy="150.89" fx="345.74" fy="150.89" r="314.76" xlink:href="#d"/><radialGradient id="gs" cx="345.74" cy="150.89" fx="345.74" fy="150.89" r="314.76" xlink:href="#d"/><radialGradient id="gt" cx="345.74" cy="150.89" fx="345.74" fy="150.89" r="314.76" xlink:href="#d"/><radialGradient id="gu" cx="345.74" cy="150.89" fx="345.74" fy="150.89" r="314.76" xlink:href="#d"/><radialGradient id="gv" cx="345.73" cy="150.89" fx="345.73" fy="150.89" r="314.77" xlink:href="#d"/><radialGradient id="gw" cx="345.74" cy="150.89" fx="345.74" fy="150.89" r="314.76" xlink:href="#d"/><radialGradient id="gx" cx="345.74" cy="150.89" fx="345.74" fy="150.89" r="314.76" xlink:href="#d"/><radialGradient id="gy" cx="345.73" cy="150.89" fx="345.73" fy="150.89" r="314.76" xlink:href="#d"/><radialGradient id="h`" cx="345.74" cy="150.89" fx="345.74" fy="150.89" r="314.76" xlink:href="#d"/><radialGradient id="ha" cx="345.74" cy="150.89" fx="345.74" fy="150.89" r="314.76" xlink:href="#d"/><radialGradient id="hb" cx="345.73" cy="150.89" fx="345.73" fy="150.89" r="314.77" xlink:href="#d"/><radialGradient id="hc" cx="345.73" cy="150.89" fx="345.73" fy="150.89" r="314.77" xlink:href="#d"/><radialGradient id="hd" cx="345.74" cy="150.89" fx="345.74" fy="150.89" r="314.76" xlink:href="#d"/><radialGradient id="he" cx="345.74" cy="150.89" fx="345.74" fy="150.89" r="314.76" xlink:href="#d"/><radialGradient id="hf" cx="345.74" cy="150.9" fx="345.74" fy="150.9" r="314.77" xlink:href="#d"/><radialGradient id="hg" cx="345.73" cy="150.9" fx="345.73" fy="150.9" r="314.76" xlink:href="#d"/><radialGradient id="hh" cx="345.74" cy="150.89" fx="345.74" fy="150.89" r="314.76" xlink:href="#d"/><radialGradient id="hi" cx="345.74" cy="150.89" fx="345.74" fy="150.89" r="314.76" xlink:href="#d"/><radialGradient id="hj" cx="345.74" cy="150.89" fx="345.74" fy="150.89" r="314.76" xlink:href="#d"/><radialGradient id="hk" cx="345.74" cy="150.89" fx="345.74" fy="150.89" r="314.76" xlink:href="#d"/><radialGradient id="hl" cx="345.74" cy="150.89" fx="345.74" fy="150.89" r="314.76" xlink:href="#d"/><radialGradient id="hm" cx="345.74" cy="150.89" fx="345.74" fy="150.89" r="314.76" xlink:href="#d"/><radialGradient id="hn" cx="345.74" cy="150.89" fx="345.74" fy="150.89" r="314.76" xlink:href="#d"/><radialGradient id="ho" cx="345.74" cy="150.89" fx="345.74" fy="150.89" r="314.76" xlink:href="#d"/><radialGradient id="hp" cx="345.74" cy="150.89" fx="345.74" fy="150.89" r="314.76" xlink:href="#d"/><radialGradient id="hq" cx="345.74" cy="150.89" fx="345.74" fy="150.89" r="314.76" xlink:href="#d"/><radialGradient id="hr" cx="345.74" cy="150.89" fx="345.74" fy="150.89" r="314.76" xlink:href="#d"/><radialGradient id="hs" cx="345.74" cy="150.89" fx="345.74" fy="150.89" r="314.76" xlink:href="#d"/><radialGradient id="ht" cx="345.74" cy="150.89" fx="345.74" fy="150.89" r="314.76" xlink:href="#d"/><radialGradient id="hu" cx="345.74" cy="150.89" fx="345.74" fy="150.89" r="314.76" xlink:href="#d"/><radialGradient id="hv" cx="345.73" cy="150.89" fx="345.73" fy="150.89" r="314.76" xlink:href="#d"/><radialGradient id="hw" cx="345.73" cy="150.89" fx="345.73" fy="150.89" r="314.76" xlink:href="#d"/><radialGradient id="hx" cx="345.74" cy="150.89" fx="345.74" fy="150.89" r="314.76" xlink:href="#d"/><radialGradient id="hy" cx="345.74" cy="150.89" fx="345.74" fy="150.89" r="314.76" xlink:href="#d"/><radialGradient id="i`" cx="345.74" cy="150.89" fx="345.74" fy="150.89" r="314.76" xlink:href="#d"/><radialGradient id="ia" cx="345.74" cy="150.89" fx="345.74" fy="150.89" r="314.76" xlink:href="#d"/><radialGradient id="ib" cx="345.74" cy="150.89" fx="345.74" fy="150.89" r="314.76" xlink:href="#d"/><radialGradient id="ic" cx="345.74" cy="150.89" fx="345.74" fy="150.89" r="314.76" xlink:href="#d"/><radialGradient id="id" cx="345.74" cy="150.89" fx="345.74" fy="150.89" r="314.77" xlink:href="#d"/><radialGradient id="ie" cx="345.74" cy="150.89" fx="345.74" fy="150.89" r="314.76" xlink:href="#d"/><radialGradient id="if" cx="345.74" cy="150.89" fx="345.74" fy="150.89" r="314.76" xlink:href="#d"/><radialGradient id="ig" cx="345.74" cy="150.89" fx="345.74" fy="150.89" r="314.76" xlink:href="#d"/><radialGradient id="ih" cx="345.74" cy="150.89" fx="345.74" fy="150.89" r="314.76" xlink:href="#d"/><radialGradient id="ii" cx="345.74" cy="150.89" fx="345.74" fy="150.89" r="314.76" xlink:href="#d"/><radialGradient id="ij" cx="345.74" cy="150.89" fx="345.74" fy="150.89" r="314.76" xlink:href="#d"/><radialGradient id="ik" cx="345.74" cy="150.89" fx="345.74" fy="150.89" r="314.76" xlink:href="#d"/><radialGradient id="il" cx="345.73" cy="150.89" fx="345.73" fy="150.89" r="314.76" xlink:href="#d"/><radialGradient id="im" cx="345.74" cy="150.89" fx="345.74" fy="150.89" r="314.76" xlink:href="#d"/><radialGradient id="in" cx="345.74" cy="150.89" fx="345.74" fy="150.89" r="314.76" xlink:href="#d"/><radialGradient id="io" cx="345.74" cy="150.89" fx="345.74" fy="150.89" r="314.76" xlink:href="#d"/><radialGradient id="ip" cx="345.74" cy="150.89" fx="345.74" fy="150.89" r="314.76" xlink:href="#d"/><radialGradient id="iq" cx="345.74" cy="150.89" fx="345.74" fy="150.89" r="314.76" xlink:href="#d"/><radialGradient id="ir" cx="345.74" cy="150.89" fx="345.74" fy="150.89" r="314.76" xlink:href="#d"/><radialGradient id="is" cx="345.74" cy="150.89" fx="345.74" fy="150.89" r="314.76" xlink:href="#d"/><radialGradient id="it" cx="345.74" cy="150.89" fx="345.74" fy="150.89" r="314.77" xlink:href="#d"/><radialGradient id="iu" cx="345.74" cy="150.89" fx="345.74" fy="150.89" r="314.76" xlink:href="#d"/><radialGradient id="iv" cx="345.74" cy="150.89" fx="345.74" fy="150.89" r="314.76" xlink:href="#d"/><radialGradient id="iw" cx="345.74" cy="150.89" fx="345.74" fy="150.89" r="314.76" xlink:href="#d"/><radialGradient id="ix" cx="345.74" cy="150.89" fx="345.74" fy="150.89" r="314.76" xlink:href="#d"/><radialGradient id="iy" cx="345.74" cy="150.89" fx="345.74" fy="150.89" r="314.76" xlink:href="#d"/><radialGradient id="j`" cx="345.74" cy="150.89" fx="345.74" fy="150.89" r="314.76" xlink:href="#d"/><radialGradient id="ja" cx="345.74" cy="150.89" fx="345.74" fy="150.89" r="314.76" xlink:href="#d"/><radialGradient id="jb" cx="345.74" cy="150.89" fx="345.74" fy="150.89" r="314.76" xlink:href="#d"/><radialGradient id="jc" cx="345.74" cy="150.89" fx="345.74" fy="150.89" r="314.76" xlink:href="#d"/><radialGradient id="jd" cx="345.74" cy="150.89" fx="345.74" fy="150.89" r="314.76" xlink:href="#d"/><radialGradient id="je" cx="345.74" cy="150.89" fx="345.74" fy="150.89" r="314.76" xlink:href="#d"/><radialGradient id="jf" cx="345.74" cy="150.89" fx="345.74" fy="150.89" r="314.76" xlink:href="#d"/><radialGradient id="jg" cx="345.74" cy="150.89" fx="345.74" fy="150.89" r="314.77" xlink:href="#d"/><radialGradient id="jh" cx="345.74" cy="150.89" fx="345.74" fy="150.89" r="314.76" xlink:href="#d"/><radialGradient id="ji" cx="345.74" cy="150.89" fx="345.74" fy="150.89" r="314.76" xlink:href="#d"/><radialGradient id="jj" cx="345.74" cy="150.89" fx="345.74" fy="150.89" r="314.76" xlink:href="#d"/><radialGradient id="jk" cx="345.73" cy="150.89" fx="345.73" fy="150.89" r="314.76" xlink:href="#d"/><radialGradient id="jl" cx="345.74" cy="150.89" fx="345.74" fy="150.89" r="314.76" xlink:href="#d"/><radialGradient id="jm" cx="345.74" cy="150.89" fx="345.74" fy="150.89" r="314.77" xlink:href="#d"/><radialGradient id="jn" cx="345.74" cy="150.89" fx="345.74" fy="150.89" r="314.76" xlink:href="#d"/><radialGradient id="jo" cx="345.74" cy="150.89" fx="345.74" fy="150.89" r="314.77" xlink:href="#d"/><radialGradient id="jp" cx="345.74" cy="150.89" fx="345.74" fy="150.89" r="314.76" xlink:href="#d"/><radialGradient id="jq" cx="345.74" cy="150.89" fx="345.74" fy="150.89" r="314.76" xlink:href="#d"/><radialGradient id="jr" cx="345.74" cy="150.89" fx="345.74" fy="150.89" r="314.76" xlink:href="#d"/><radialGradient id="js" cx="345.74" cy="150.89" fx="345.74" fy="150.89" r="314.76" xlink:href="#d"/><radialGradient id="jt" cx="345.74" cy="150.89" fx="345.74" fy="150.89" r="314.76" xlink:href="#d"/><radialGradient id="ju" cx="345.74" cy="150.89" fx="345.74" fy="150.89" r="314.77" xlink:href="#d"/><radialGradient id="jv" cx="345.74" cy="150.89" fx="345.74" fy="150.89" r="314.76" xlink:href="#d"/><radialGradient id="jw" cx="345.73" cy="150.9" fx="345.73" fy="150.9" r="314.76" xlink:href="#d"/><radialGradient id="jx" cx="345.74" cy="150.89" fx="345.74" fy="150.89" r="314.77" xlink:href="#d"/><radialGradient id="jy" cx="345.74" cy="150.89" fx="345.74" fy="150.89" r="314.76" xlink:href="#d"/><radialGradient id="k`" cx="345.74" cy="150.89" fx="345.74" fy="150.89" r="314.77" xlink:href="#d"/><radialGradient id="ka" cx="345.74" cy="150.89" fx="345.74" fy="150.89" r="314.76" xlink:href="#d"/><radialGradient id="kb" cx="345.73" cy="150.89" fx="345.73" fy="150.89" r="314.76" xlink:href="#d"/><radialGradient id="kc" cx="345.73" cy="150.89" fx="345.73" fy="150.89" r="314.76" xlink:href="#d"/><radialGradient id="kd" cx="345.73" cy="150.89" fx="345.73" fy="150.89" r="314.76" xlink:href="#d"/><radialGradient id="ke" cx="345.74" cy="150.89" fx="345.74" fy="150.89" r="314.76" xlink:href="#d"/><radialGradient id="kf" cx="345.74" cy="150.89" fx="345.74" fy="150.89" r="314.76" xlink:href="#d"/><radialGradient id="kg" cx="345.74" cy="150.89" fx="345.74" fy="150.89" r="314.76" xlink:href="#d"/><radialGradient id="kh" cx="345.74" cy="150.89" fx="345.74" fy="150.89" r="314.76" xlink:href="#d"/><radialGradient id="ki" cx="345.74" cy="150.89" fx="345.74" fy="150.89" r="314.76" xlink:href="#d"/><radialGradient id="kj" cx="345.74" cy="150.89" fx="345.74" fy="150.89" r="314.76" xlink:href="#d"/><radialGradient id="kk" cx="345.74" cy="150.89" fx="345.74" fy="150.89" r="314.76" xlink:href="#d"/><radialGradient id="kl" cx="345.74" cy="150.89" fx="345.74" fy="150.89" r="314.76" xlink:href="#d"/><radialGradient id="km" cx="345.74" cy="150.89" fx="345.74" fy="150.89" r="314.76" xlink:href="#d"/><radialGradient id="kn" cx="345.74" cy="150.89" fx="345.74" fy="150.89" r="314.76" xlink:href="#d"/><radialGradient id="ko" cx="345.74" cy="150.89" fx="345.74" fy="150.89" r="314.76" xlink:href="#d"/><radialGradient id="kp" cx="345.74" cy="150.89" fx="345.74" fy="150.89" r="314.76" xlink:href="#d"/><radialGradient id="kq" cx="345.74" cy="150.89" fx="345.74" fy="150.89" r="314.76" xlink:href="#d"/><radialGradient id="kr" cx="345.73" cy="150.89" fx="345.73" fy="150.89" r="314.76" xlink:href="#d"/><radialGradient id="ks" cx="345.73" cy="150.89" fx="345.73" fy="150.89" r="314.76" xlink:href="#d"/><radialGradient id="kt" cx="345.74" cy="150.89" fx="345.74" fy="150.89" r="314.76" xlink:href="#d"/><radialGradient id="ku" cx="345.73" cy="150.89" fx="345.73" fy="150.89" r="314.76" xlink:href="#d"/><radialGradient id="kv" cx="345.74" cy="150.89" fx="345.74" fy="150.89" r="314.76" xlink:href="#d"/><radialGradient id="kw" cx="345.74" cy="150.89" fx="345.74" fy="150.89" r="314.76" xlink:href="#d"/><radialGradient id="kx" cx="345.73" cy="150.89" fx="345.73" fy="150.89" r="314.76" xlink:href="#d"/></defs><g class="qu"><g id="a"><g class="vg"><rect class="pk" x="-.11" y=".06" width="525.52" height="251.29"/><g><path class="lx" d="M16.67,144.11c0,56.95,34.23,103.13,76.46,103.13,42.23,0,76.46-46.17,76.46-103.13,0-56.96-34.23-103.13-76.46-103.13-42.23,0-76.46,46.17-76.46,103.13Z"/><path class="wp" d="M73.02,98.19c14.24-17.83,9.2-25.45,7.21-42.58-1.99-17.13,5.11-39.57,5.11-39.57,121.51,7.89,142.97,67.19,150.01,115.24,6.4,43.67-4.13,82.67-17.22,111.9h-38.32c-1.65-4.19-3.65-8.16-5.97-12.42-14.43-26.49-50.67-25.59-64.97-21.47-14.3,4.12-30.27,4.26-37.4-2.95-7.12-7.21-4.13-13.06-2.01-19.39,2.12-6.33,3.07-6.4,2.38-8.28-.58-1.55-2.27-2.53-6.29-5.02-4.02-2.49-5.54-7.1-3.22-10.79,2.09-3.33,4.38-4.49,4.45-4.52-.11-.08-.7-.65-3.59-3.74-4-4.26-3.01-9.34,.35-12.04,3.36-2.71,4.59-6.2,4.59-6.2,0,0-10.6-5.35-14.78-12.37-4.19-7.02,5.44-7.98,19.68-25.8Z"/></g><g class="ww"><g><path class="ud" d="M497.66,94.66c-.67,0-1.2-.54-1.2-1.2s.54-1.21,1.2-1.21,1.21,.54,1.21,1.21-.54,1.2-1.21,1.2Z"/><path class="ue" d="M490.54,94.66c-.66,0-1.21-.54-1.21-1.2s.54-1.21,1.21-1.21,1.21,.54,1.21,1.21-.54,1.2-1.21,1.2Z"/><path class="se" d="M483.41,94.66c-.66,0-1.2-.54-1.2-1.2s.54-1.21,1.2-1.21,1.2,.54,1.2,1.21-.54,1.2-1.2,1.2Z"/><path class="st" d="M476.28,94.66c-.66,0-1.2-.54-1.2-1.2s.54-1.21,1.2-1.21,1.21,.54,1.21,1.21-.54,1.2-1.21,1.2Z"/><path class="u`" d="M469.15,94.66c-.66,0-1.21-.54-1.21-1.2s.54-1.21,1.21-1.21,1.21,.54,1.21,1.21-.54,1.2-1.21,1.2Z"/><path class="tj" d="M462.03,94.66c-.67,0-1.21-.54-1.21-1.2s.54-1.21,1.21-1.21,1.2,.54,1.2,1.21-.54,1.2-1.2,1.2Z"/><path class="vw" d="M454.9,94.66c-.67,0-1.2-.54-1.2-1.2s.54-1.21,1.2-1.21,1.21,.54,1.21,1.21-.54,1.2-1.21,1.2Z"/><path class="wn" d="M447.78,94.66c-.67,0-1.21-.54-1.21-1.2s.54-1.21,1.21-1.21,1.21,.54,1.21,1.21-.54,1.2-1.21,1.2Z"/><path class="qc" d="M440.65,94.66c-.67,0-1.21-.54-1.21-1.2s.54-1.21,1.21-1.21,1.2,.54,1.2,1.21-.54,1.2-1.2,1.2Z"/><path class="rg" d="M433.52,94.66c-.66,0-1.21-.54-1.21-1.2,0-.67,.54-1.21,1.21-1.21s1.21,.54,1.21,1.21-.54,1.2-1.21,1.2Z"/><path class="ve" d="M426.4,94.66c-.67,0-1.21-.54-1.21-1.2s.54-1.21,1.21-1.21,1.21,.54,1.21,1.21-.54,1.2-1.21,1.2Z"/><path class="w`" d="M419.27,94.66c-.67,0-1.21-.54-1.21-1.2s.54-1.21,1.21-1.21,1.2,.54,1.2,1.21-.54,1.2-1.2,1.2Z"/><path class="sp" d="M412.14,94.66c-.67,0-1.21-.54-1.21-1.2s.54-1.21,1.21-1.21,1.21,.54,1.21,1.21-.54,1.2-1.21,1.2Z"/><path class="wf" d="M405.02,94.66c-.67,0-1.2-.54-1.2-1.2s.54-1.21,1.2-1.21,1.21,.54,1.21,1.21-.54,1.2-1.21,1.2Z"/><path class="ps" d="M397.89,94.66c-.67,0-1.2-.54-1.2-1.2s.54-1.21,1.2-1.21,1.21,.54,1.21,1.21-.54,1.2-1.21,1.2Z"/><path class="uv" d="M390.76,94.66c-.67,0-1.21-.54-1.21-1.2s.54-1.21,1.21-1.21,1.21,.54,1.21,1.21-.54,1.2-1.21,1.2Z"/><path class="pe" d="M497.66,101.78c-.67,0-1.2-.54-1.2-1.2s.54-1.2,1.2-1.2,1.21,.54,1.21,1.2-.54,1.2-1.21,1.2Z"/><path class="qq" d="M490.54,101.78c-.66,0-1.21-.54-1.21-1.2s.54-1.2,1.21-1.2,1.21,.54,1.21,1.2-.54,1.2-1.21,1.2Z"/><path class="qx" d="M483.41,101.78c-.66,0-1.2-.54-1.2-1.2s.54-1.2,1.2-1.2,1.2,.54,1.2,1.2-.54,1.2-1.2,1.2Z"/><path class="vp" d="M476.28,101.78c-.66,0-1.2-.54-1.2-1.2s.54-1.2,1.2-1.2,1.21,.54,1.21,1.2-.54,1.2-1.21,1.2Z"/><path class="up" d="M469.15,101.78c-.66,0-1.21-.54-1.21-1.2s.54-1.2,1.21-1.2,1.21,.54,1.21,1.2-.54,1.2-1.21,1.2Z"/><path class="qa" d="M462.03,101.78c-.67,0-1.21-.54-1.21-1.2s.54-1.2,1.21-1.2,1.2,.54,1.2,1.2-.54,1.2-1.2,1.2Z"/><path class="rc" d="M454.9,101.78c-.67,0-1.2-.54-1.2-1.2s.54-1.2,1.2-1.2,1.21,.54,1.21,1.2-.54,1.2-1.21,1.2Z"/><path class="uu" d="M447.78,101.78c-.67,0-1.21-.54-1.21-1.2s.54-1.2,1.21-1.2,1.21,.54,1.21,1.2-.54,1.2-1.21,1.2Z"/><path class="sy" d="M440.65,101.78c-.67,0-1.21-.54-1.21-1.2s.54-1.2,1.21-1.2,1.2,.54,1.2,1.2-.54,1.2-1.2,1.2Z"/><path class="vh" d="M433.52,101.78c-.66,0-1.21-.54-1.21-1.2,0-.66,.54-1.2,1.21-1.2s1.21,.54,1.21,1.2-.54,1.2-1.21,1.2Z"/><path class="sx" d="M426.4,101.78c-.67,0-1.21-.54-1.21-1.2s.54-1.2,1.21-1.2,1.21,.54,1.21,1.2-.54,1.2-1.21,1.2Z"/><path class="sg" d="M419.27,101.78c-.67,0-1.21-.54-1.21-1.2s.54-1.2,1.21-1.2,1.2,.54,1.2,1.2-.54,1.2-1.2,1.2Z"/><path class="qm" d="M412.14,101.78c-.67,0-1.21-.54-1.21-1.2s.54-1.2,1.21-1.2,1.21,.54,1.21,1.2-.54,1.2-1.21,1.2Z"/><path class="wg" d="M405.02,101.78c-.67,0-1.2-.54-1.2-1.2s.54-1.2,1.2-1.2,1.21,.54,1.21,1.2-.54,1.2-1.21,1.2Z"/><path class="qs" d="M397.89,101.78c-.67,0-1.2-.54-1.2-1.2s.54-1.2,1.2-1.2,1.21,.54,1.21,1.2-.54,1.2-1.21,1.2Z"/><path class="pw" d="M390.76,101.78c-.67,0-1.21-.54-1.21-1.2s.54-1.2,1.21-1.2,1.21,.54,1.21,1.2-.54,1.2-1.21,1.2Z"/><path class="tu" d="M497.66,108.91c-.67,0-1.2-.54-1.2-1.2s.54-1.2,1.2-1.2,1.21,.54,1.21,1.2-.54,1.2-1.21,1.2Z"/><path class="ta" d="M490.54,108.91c-.66,0-1.21-.54-1.21-1.2s.54-1.2,1.21-1.2,1.21,.54,1.21,1.2-.54,1.2-1.21,1.2Z"/><path class="vt" d="M483.41,108.91c-.66,0-1.2-.54-1.2-1.2s.54-1.2,1.2-1.2,1.2,.54,1.2,1.2-.54,1.2-1.2,1.2Z"/><path class="ug" d="M476.28,108.91c-.66,0-1.2-.54-1.2-1.2s.54-1.2,1.2-1.2,1.21,.54,1.21,1.2-.54,1.2-1.21,1.2Z"/><path class="wb" d="M469.15,108.91c-.66,0-1.21-.54-1.21-1.2s.54-1.2,1.21-1.2,1.21,.54,1.21,1.2-.54,1.2-1.21,1.2Z"/><path class="rv" d="M462.03,108.91c-.67,0-1.21-.54-1.21-1.2s.54-1.2,1.21-1.2,1.2,.54,1.2,1.2-.54,1.2-1.2,1.2Z"/><path class="pq" d="M454.9,108.91c-.67,0-1.2-.54-1.2-1.2s.54-1.2,1.2-1.2,1.21,.54,1.21,1.2-.54,1.2-1.21,1.2Z"/><path class="qp" d="M447.78,108.91c-.67,0-1.21-.54-1.21-1.2s.54-1.2,1.21-1.2,1.21,.54,1.21,1.2-.54,1.2-1.21,1.2Z"/><path class="tx" d="M440.65,108.91c-.67,0-1.21-.54-1.21-1.2s.54-1.2,1.21-1.2,1.2,.54,1.2,1.2-.54,1.2-1.2,1.2Z"/><path class="re" d="M433.52,108.91c-.66,0-1.21-.54-1.21-1.2,0-.67,.54-1.2,1.21-1.2s1.21,.54,1.21,1.2-.54,1.2-1.21,1.2Z"/><path class="us" d="M426.4,108.91c-.67,0-1.21-.54-1.21-1.2s.54-1.2,1.21-1.2,1.21,.54,1.21,1.2-.54,1.2-1.21,1.2Z"/><path class="tc" d="M419.27,108.91c-.67,0-1.21-.54-1.21-1.2s.54-1.2,1.21-1.2,1.2,.54,1.2,1.2-.54,1.2-1.2,1.2Z"/><path class="rb" d="M412.14,108.91c-.67,0-1.21-.54-1.21-1.2s.54-1.2,1.21-1.2,1.21,.54,1.21,1.2-.54,1.2-1.21,1.2Z"/><path class="rl" d="M405.02,108.91c-.67,0-1.2-.54-1.2-1.2s.54-1.2,1.2-1.2,1.21,.54,1.21,1.2-.54,1.2-1.21,1.2Z"/><path class="we" d="M397.89,108.91c-.67,0-1.2-.54-1.2-1.2s.54-1.2,1.2-1.2,1.21,.54,1.21,1.2-.54,1.2-1.21,1.2Z"/><path class="wk" d="M390.76,108.91c-.67,0-1.21-.54-1.21-1.2s.54-1.2,1.21-1.2,1.21,.54,1.21,1.2-.54,1.2-1.21,1.2Z"/><path class="qv" d="M497.66,116.04c-.67,0-1.2-.54-1.2-1.2s.54-1.21,1.2-1.21,1.21,.54,1.21,1.21-.54,1.2-1.21,1.2Z"/><path class="rt" d="M490.54,116.04c-.66,0-1.21-.54-1.21-1.2s.54-1.21,1.21-1.21,1.21,.54,1.21,1.21-.54,1.2-1.21,1.2Z"/><path class="su" d="M483.41,116.04c-.66,0-1.2-.54-1.2-1.2s.54-1.21,1.2-1.21,1.2,.54,1.2,1.21-.54,1.2-1.2,1.2Z"/><path class="tt" d="M476.28,116.04c-.66,0-1.2-.54-1.2-1.2s.54-1.21,1.2-1.21,1.21,.54,1.21,1.21-.54,1.2-1.21,1.2Z"/><path class="sa" d="M469.15,116.04c-.66,0-1.21-.54-1.21-1.2s.54-1.21,1.21-1.21,1.21,.54,1.21,1.21-.54,1.2-1.21,1.2Z"/><path class="no" d="M462.03,116.04c-.67,0-1.21-.54-1.21-1.2s.54-1.21,1.21-1.21,1.2,.54,1.2,1.21-.54,1.2-1.2,1.2Z"/><path class="te" d="M454.9,116.04c-.67,0-1.2-.54-1.2-1.2s.54-1.21,1.2-1.21,1.21,.54,1.21,1.21-.54,1.2-1.21,1.2Z"/><path class="sf" d="M447.78,116.04c-.67,0-1.21-.54-1.21-1.2s.54-1.21,1.21-1.21,1.21,.54,1.21,1.21-.54,1.2-1.21,1.2Z"/><path class="ri" d="M440.65,116.04c-.67,0-1.21-.54-1.21-1.2s.54-1.21,1.21-1.21,1.2,.54,1.2,1.21-.54,1.2-1.2,1.2Z"/><path class="si" d="M433.52,116.04c-.66,0-1.21-.54-1.21-1.2,0-.67,.54-1.21,1.21-1.21s1.21,.54,1.21,1.21-.54,1.2-1.21,1.2Z"/><path class="s`" d="M426.4,116.04c-.67,0-1.21-.54-1.21-1.2s.54-1.21,1.21-1.21,1.21,.54,1.21,1.21-.54,1.2-1.21,1.2Z"/><path class="pu" d="M419.27,116.04c-.67,0-1.21-.54-1.21-1.2s.54-1.21,1.21-1.21,1.2,.54,1.2,1.21-.54,1.2-1.2,1.2Z"/><path class="qi" d="M412.14,116.04c-.67,0-1.21-.54-1.21-1.2s.54-1.21,1.21-1.21,1.21,.54,1.21,1.21-.54,1.2-1.21,1.2Z"/><path class="rs" d="M405.02,116.04c-.67,0-1.2-.54-1.2-1.2s.54-1.21,1.2-1.21,1.21,.54,1.21,1.21-.54,1.2-1.21,1.2Z"/><path class="vd" d="M397.89,116.04c-.67,0-1.2-.54-1.2-1.2s.54-1.21,1.2-1.21,1.21,.54,1.21,1.21-.54,1.2-1.21,1.2Z"/><path class="sk" d="M390.76,116.04c-.67,0-1.21-.54-1.21-1.2s.54-1.21,1.21-1.21,1.21,.54,1.21,1.21-.54,1.2-1.21,1.2Z"/><path class="ql" d="M497.66,123.16c-.67,0-1.2-.54-1.2-1.2,0-.67,.54-1.2,1.2-1.2s1.21,.54,1.21,1.2c0,.66-.54,1.2-1.21,1.2Z"/><path class="pi" d="M490.54,123.16c-.66,0-1.21-.54-1.21-1.2,0-.67,.54-1.2,1.21-1.2s1.21,.54,1.21,1.2c0,.66-.54,1.2-1.21,1.2Z"/><path class="qo" d="M483.41,123.16c-.66,0-1.2-.54-1.2-1.2,0-.67,.54-1.2,1.2-1.2s1.2,.54,1.2,1.2c0,.66-.54,1.2-1.2,1.2Z"/><path class="ws" d="M476.28,123.16c-.66,0-1.2-.54-1.2-1.2,0-.67,.54-1.2,1.2-1.2s1.21,.54,1.21,1.2c0,.66-.54,1.2-1.21,1.2Z"/><path class="wc" d="M469.15,123.16c-.66,0-1.21-.54-1.21-1.2,0-.67,.54-1.2,1.21-1.2s1.21,.54,1.21,1.2c0,.66-.54,1.2-1.21,1.2Z"/><path class="pf" d="M462.03,123.16c-.67,0-1.21-.54-1.21-1.2,0-.67,.54-1.2,1.21-1.2s1.2,.54,1.2,1.2c0,.66-.54,1.2-1.2,1.2Z"/><path class="ty" d="M454.9,123.16c-.67,0-1.2-.54-1.2-1.2,0-.67,.54-1.2,1.2-1.2s1.21,.54,1.21,1.2c0,.66-.54,1.2-1.21,1.2Z"/><path class="ul" d="M447.78,123.16c-.67,0-1.21-.54-1.21-1.2,0-.67,.54-1.2,1.21-1.2s1.21,.54,1.21,1.2c0,.66-.54,1.2-1.21,1.2Z"/><path class="uw" d="M440.65,123.16c-.67,0-1.21-.54-1.21-1.2,0-.67,.54-1.2,1.21-1.2s1.2,.54,1.2,1.2c0,.66-.54,1.2-1.2,1.2Z"/><path class="uf" d="M433.52,123.16c-.66,0-1.21-.54-1.21-1.2s.54-1.2,1.21-1.2,1.21,.54,1.21,1.2c0,.66-.54,1.2-1.21,1.2Z"/><path class="tg" d="M426.4,123.16c-.67,0-1.21-.54-1.21-1.2,0-.67,.54-1.2,1.21-1.2s1.21,.54,1.21,1.2c0,.66-.54,1.2-1.21,1.2Z"/><path class="pp" d="M419.27,123.16c-.67,0-1.21-.54-1.21-1.2,0-.67,.54-1.2,1.21-1.2s1.2,.54,1.2,1.2c0,.66-.54,1.2-1.2,1.2Z"/><path class="t`" d="M412.14,123.16c-.67,0-1.21-.54-1.21-1.2,0-.67,.54-1.2,1.21-1.2s1.21,.54,1.21,1.2c0,.66-.54,1.2-1.21,1.2Z"/><path class="vn" d="M405.02,123.16c-.67,0-1.2-.54-1.2-1.2,0-.67,.54-1.2,1.2-1.2s1.21,.54,1.21,1.2c0,.66-.54,1.2-1.21,1.2Z"/><path class="wu" d="M397.89,123.16c-.67,0-1.2-.54-1.2-1.2,0-.67,.54-1.2,1.2-1.2s1.21,.54,1.21,1.2c0,.66-.54,1.2-1.21,1.2Z"/><path class="sd" d="M390.76,123.16c-.67,0-1.21-.54-1.21-1.2,0-.67,.54-1.2,1.21-1.2s1.21,.54,1.21,1.2c0,.66-.54,1.2-1.21,1.2Z"/><path class="th" d="M497.66,130.29c-.67,0-1.2-.54-1.2-1.2,0-.66,.54-1.2,1.2-1.2s1.21,.54,1.21,1.2c0,.67-.54,1.2-1.21,1.2Z"/><path class="tb" d="M490.54,130.29c-.66,0-1.21-.54-1.21-1.2,0-.66,.54-1.2,1.21-1.2s1.21,.54,1.21,1.2c0,.67-.54,1.2-1.21,1.2Z"/><path class="px" d="M483.41,130.29c-.66,0-1.2-.54-1.2-1.2,0-.66,.54-1.2,1.2-1.2s1.2,.54,1.2,1.2c0,.67-.54,1.2-1.2,1.2Z"/><path class="tv" d="M476.28,130.29c-.66,0-1.2-.54-1.2-1.2,0-.66,.54-1.2,1.2-1.2s1.21,.54,1.21,1.2c0,.67-.54,1.2-1.21,1.2Z"/><path class="vm" d="M469.15,130.29c-.66,0-1.21-.54-1.21-1.2,0-.66,.54-1.2,1.21-1.2s1.21,.54,1.21,1.2c0,.67-.54,1.2-1.21,1.2Z"/><path class="r`" d="M462.03,130.29c-.67,0-1.21-.54-1.21-1.2,0-.66,.54-1.2,1.21-1.2s1.2,.54,1.2,1.2c0,.67-.54,1.2-1.2,1.2Z"/><path class="vx" d="M454.9,130.29c-.67,0-1.2-.54-1.2-1.2,0-.66,.54-1.2,1.2-1.2s1.21,.54,1.21,1.2c0,.67-.54,1.2-1.21,1.2Z"/><path class="qk" d="M447.78,130.29c-.67,0-1.21-.54-1.21-1.2,0-.66,.54-1.2,1.21-1.2s1.21,.54,1.21,1.2c0,.67-.54,1.2-1.21,1.2Z"/><path class="ua" d="M440.65,130.29c-.67,0-1.21-.54-1.21-1.2,0-.66,.54-1.2,1.21-1.2s1.2,.54,1.2,1.2c0,.67-.54,1.2-1.2,1.2Z"/><path class="uo" d="M433.52,130.29c-.66,0-1.21-.54-1.21-1.2s.54-1.2,1.21-1.2,1.21,.54,1.21,1.2c0,.67-.54,1.2-1.21,1.2Z"/><path class="vv" d="M426.4,130.29c-.67,0-1.21-.54-1.21-1.2,0-.66,.54-1.2,1.21-1.2s1.21,.54,1.21,1.2c0,.67-.54,1.2-1.21,1.2Z"/><path class="wy" d="M419.27,130.29c-.67,0-1.21-.54-1.21-1.2,0-.66,.54-1.2,1.21-1.2s1.2,.54,1.2,1.2c0,.67-.54,1.2-1.2,1.2Z"/><path class="wh" d="M412.14,130.29c-.67,0-1.21-.54-1.21-1.2,0-.66,.54-1.2,1.21-1.2s1.21,.54,1.21,1.2c0,.67-.54,1.2-1.21,1.2Z"/><path class="vi" d="M405.02,130.29c-.67,0-1.2-.54-1.2-1.2,0-.66,.54-1.2,1.2-1.2s1.21,.54,1.21,1.2c0,.67-.54,1.2-1.21,1.2Z"/><path class="xb" d="M397.89,130.29c-.67,0-1.2-.54-1.2-1.2,0-.66,.54-1.2,1.2-1.2s1.21,.54,1.21,1.2c0,.67-.54,1.2-1.21,1.2Z"/><path class="wo" d="M390.76,130.29c-.67,0-1.21-.54-1.21-1.2,0-.66,.54-1.2,1.21-1.2s1.21,.54,1.21,1.2c0,.67-.54,1.2-1.21,1.2Z"/><path class="wd" d="M497.66,137.42c-.67,0-1.2-.54-1.2-1.2,0-.67,.54-1.2,1.2-1.2s1.21,.54,1.21,1.2c0,.67-.54,1.2-1.21,1.2Z"/><path class="uj" d="M490.54,137.42c-.66,0-1.21-.54-1.21-1.2,0-.67,.54-1.2,1.21-1.2s1.21,.54,1.21,1.2c0,.67-.54,1.2-1.21,1.2Z"/><path class="ub" d="M483.41,137.42c-.66,0-1.2-.54-1.2-1.2,0-.67,.54-1.2,1.2-1.2s1.2,.54,1.2,1.2c0,.67-.54,1.2-1.2,1.2Z"/><path class="qd" d="M476.28,137.42c-.66,0-1.2-.54-1.2-1.2,0-.67,.54-1.2,1.2-1.2s1.21,.54,1.21,1.2c0,.67-.54,1.2-1.21,1.2Z"/><path class="pv" d="M469.15,137.42c-.66,0-1.21-.54-1.21-1.2,0-.67,.54-1.2,1.21-1.2s1.21,.54,1.21,1.2c0,.67-.54,1.2-1.21,1.2Z"/><path class="pm" d="M462.03,137.42c-.67,0-1.21-.54-1.21-1.2,0-.67,.54-1.2,1.21-1.2s1.2,.54,1.2,1.2c0,.67-.54,1.2-1.2,1.2Z"/><path class="sh" d="M454.9,137.42c-.67,0-1.2-.54-1.2-1.2,0-.67,.54-1.2,1.2-1.2s1.21,.54,1.21,1.2c0,.67-.54,1.2-1.21,1.2Z"/><path class="sj" d="M447.78,137.42c-.67,0-1.21-.54-1.21-1.2,0-.67,.54-1.2,1.21-1.2s1.21,.54,1.21,1.2c0,.67-.54,1.2-1.21,1.2Z"/><path class="qt" d="M440.65,137.42c-.67,0-1.21-.54-1.21-1.2,0-.67,.54-1.2,1.21-1.2s1.2,.54,1.2,1.2c0,.67-.54,1.2-1.2,1.2Z"/><path class="wl" d="M433.52,137.42c-.66,0-1.21-.54-1.21-1.2s.54-1.2,1.21-1.2,1.21,.54,1.21,1.2c0,.67-.54,1.2-1.21,1.2Z"/><path class="vf" d="M426.4,137.42c-.67,0-1.21-.54-1.21-1.2,0-.67,.54-1.2,1.21-1.2s1.21,.54,1.21,1.2c0,.67-.54,1.2-1.21,1.2Z"/><path class="rr" d="M419.27,137.42c-.67,0-1.21-.54-1.21-1.2,0-.67,.54-1.2,1.21-1.2s1.2,.54,1.2,1.2c0,.67-.54,1.2-1.2,1.2Z"/><path class="qb" d="M412.14,137.42c-.67,0-1.21-.54-1.21-1.2,0-.67,.54-1.2,1.21-1.2s1.21,.54,1.21,1.2c0,.67-.54,1.2-1.21,1.2Z"/><path class="tp" d="M405.02,137.42c-.67,0-1.2-.54-1.2-1.2,0-.67,.54-1.2,1.2-1.2s1.21,.54,1.21,1.2c0,.67-.54,1.2-1.21,1.2Z"/><path class="sq" d="M397.89,137.42c-.67,0-1.2-.54-1.2-1.2,0-.67,.54-1.2,1.2-1.2s1.21,.54,1.21,1.2c0,.67-.54,1.2-1.21,1.2Z"/><path class="x`" d="M390.76,137.42c-.67,0-1.21-.54-1.21-1.2,0-.67,.54-1.2,1.21-1.2s1.21,.54,1.21,1.2c0,.67-.54,1.2-1.21,1.2Z"/><path class="vr" d="M497.66,144.54c-.67,0-1.2-.54-1.2-1.21,0-.67,.54-1.2,1.2-1.2s1.21,.54,1.21,1.2c0,.66-.54,1.21-1.21,1.21Z"/><path class="ui" d="M490.54,144.54c-.66,0-1.21-.54-1.21-1.21,0-.67,.54-1.2,1.21-1.2s1.21,.54,1.21,1.2c0,.66-.54,1.21-1.21,1.21Z"/><path class="vq" d="M483.41,144.54c-.66,0-1.2-.54-1.2-1.21,0-.67,.54-1.2,1.2-1.2s1.2,.54,1.2,1.2c0,.66-.54,1.21-1.2,1.21Z"/><path class="rm" d="M476.28,144.54c-.66,0-1.2-.54-1.2-1.21,0-.67,.54-1.2,1.2-1.2s1.21,.54,1.21,1.2c0,.66-.54,1.21-1.21,1.21Z"/><path class="pr" d="M469.15,144.54c-.66,0-1.21-.54-1.21-1.21,0-.67,.54-1.2,1.21-1.2s1.21,.54,1.21,1.2c0,.66-.54,1.21-1.21,1.21Z"/><path class="sl" d="M462.03,144.54c-.67,0-1.21-.54-1.21-1.21,0-.67,.54-1.2,1.21-1.2s1.2,.54,1.2,1.2c0,.66-.54,1.21-1.2,1.21Z"/><path class="qe" d="M454.9,144.54c-.67,0-1.2-.54-1.2-1.21,0-.67,.54-1.2,1.2-1.2s1.21,.54,1.21,1.2c0,.66-.54,1.21-1.21,1.21Z"/><path class="po" d="M447.78,144.54c-.67,0-1.21-.54-1.21-1.21,0-.67,.54-1.2,1.21-1.2s1.21,.54,1.21,1.2c0,.66-.54,1.21-1.21,1.21Z"/><path class="rf" d="M440.65,144.54c-.67,0-1.21-.54-1.21-1.21,0-.67,.54-1.2,1.21-1.2s1.2,.54,1.2,1.2c0,.66-.54,1.21-1.2,1.21Z"/><path class="rq" d="M433.52,144.54c-.66,0-1.21-.54-1.21-1.21,0-.67,.54-1.2,1.21-1.2s1.21,.54,1.21,1.2c0,.66-.54,1.21-1.21,1.21Z"/><path class="tl" d="M426.4,144.54c-.67,0-1.21-.54-1.21-1.21,0-.67,.54-1.2,1.21-1.2s1.21,.54,1.21,1.2c0,.66-.54,1.21-1.21,1.21Z"/><path class="wa" d="M419.27,144.54c-.67,0-1.21-.54-1.21-1.21,0-.67,.54-1.2,1.21-1.2s1.2,.54,1.2,1.2c0,.66-.54,1.21-1.2,1.21Z"/><path class="tr" d="M412.14,144.54c-.67,0-1.21-.54-1.21-1.21,0-.67,.54-1.2,1.21-1.2s1.21,.54,1.21,1.2c0,.66-.54,1.21-1.21,1.21Z"/><path class="ts" d="M405.02,144.54c-.67,0-1.2-.54-1.2-1.21,0-.67,.54-1.2,1.2-1.2s1.21,.54,1.21,1.2c0,.66-.54,1.21-1.21,1.21Z"/><path class="xa" d="M397.89,144.54c-.67,0-1.2-.54-1.2-1.21,0-.67,.54-1.2,1.2-1.2s1.21,.54,1.21,1.2c0,.66-.54,1.21-1.21,1.21Z"/><path class="wx" d="M390.76,144.54c-.67,0-1.21-.54-1.21-1.21,0-.67,.54-1.2,1.21-1.2s1.21,.54,1.21,1.2c0,.66-.54,1.21-1.21,1.21Z"/><path class="rw" d="M497.66,151.67c-.67,0-1.2-.54-1.2-1.21,0-.66,.54-1.2,1.2-1.2s1.21,.54,1.21,1.2c0,.67-.54,1.21-1.21,1.21Z"/><path class="ry" d="M490.54,151.67c-.66,0-1.21-.54-1.21-1.21,0-.66,.54-1.2,1.21-1.2s1.21,.54,1.21,1.2c0,.67-.54,1.21-1.21,1.21Z"/><path class="vy" d="M483.41,151.67c-.66,0-1.2-.54-1.2-1.21,0-.66,.54-1.2,1.2-1.2s1.2,.54,1.2,1.2c0,.67-.54,1.21-1.2,1.21Z"/><path class="vc" d="M476.28,151.67c-.66,0-1.2-.54-1.2-1.21,0-.66,.54-1.2,1.2-1.2s1.21,.54,1.21,1.2c0,.67-.54,1.21-1.21,1.21Z"/><path class="qg" d="M469.15,151.67c-.66,0-1.21-.54-1.21-1.21,0-.66,.54-1.2,1.21-1.2s1.21,.54,1.21,1.2c0,.67-.54,1.21-1.21,1.21Z"/><path class="sc" d="M462.03,151.67c-.67,0-1.21-.54-1.21-1.21,0-.66,.54-1.2,1.21-1.2s1.2,.54,1.2,1.2c0,.67-.54,1.21-1.2,1.21Z"/><path class="pn" d="M454.9,151.67c-.67,0-1.2-.54-1.2-1.21,0-.66,.54-1.2,1.2-1.2s1.21,.54,1.21,1.2c0,.67-.54,1.21-1.21,1.21Z"/><path class="rj" d="M447.78,151.67c-.67,0-1.21-.54-1.21-1.21,0-.66,.54-1.2,1.21-1.2s1.21,.54,1.21,1.2c0,.67-.54,1.21-1.21,1.21Z"/><path class="vo" d="M440.65,151.67c-.67,0-1.21-.54-1.21-1.21,0-.66,.54-1.2,1.21-1.2s1.2,.54,1.2,1.2c0,.67-.54,1.21-1.2,1.21Z"/><path class="rx" d="M433.52,151.67c-.66,0-1.21-.54-1.21-1.21,0-.66,.54-1.2,1.21-1.2s1.21,.54,1.21,1.2c0,.67-.54,1.21-1.21,1.21Z"/><path class="tn" d="M426.4,151.67c-.67,0-1.21-.54-1.21-1.21,0-.66,.54-1.2,1.21-1.2s1.21,.54,1.21,1.2c0,.67-.54,1.21-1.21,1.21Z"/><path class="uc" d="M419.27,151.67c-.67,0-1.21-.54-1.21-1.21,0-.66,.54-1.2,1.21-1.2s1.2,.54,1.2,1.2c0,.67-.54,1.21-1.2,1.21Z"/><path class="vs" d="M412.14,151.67c-.67,0-1.21-.54-1.21-1.21,0-.66,.54-1.2,1.21-1.2s1.21,.54,1.21,1.2c0,.67-.54,1.21-1.21,1.21Z"/><path class="wv" d="M405.02,151.67c-.67,0-1.2-.54-1.2-1.21,0-.66,.54-1.2,1.2-1.2s1.21,.54,1.21,1.2c0,.67-.54,1.21-1.21,1.21Z"/><path class="tk" d="M397.89,151.67c-.67,0-1.2-.54-1.2-1.21,0-.66,.54-1.2,1.2-1.2s1.21,.54,1.21,1.2c0,.67-.54,1.21-1.21,1.21Z"/><path class="pl" d="M390.76,151.67c-.67,0-1.21-.54-1.21-1.21,0-.66,.54-1.2,1.21-1.2s1.21,.54,1.21,1.2c0,.67-.54,1.21-1.21,1.21Z"/></g><g><polygon class="mt" points="297.71 135.95 324.63 135.95 340.5 120.08 363.69 120.08 376.79 133.17 445.43 133.17 453.47 125.13 474.75 125.13 474.75 124.3 453.13 124.3 445.08 132.34 377.13 132.34 364.04 119.25 340.15 119.25 324.28 135.12 298.05 135.12 274.49 111.57 213.83 111.57 196.75 94.48 189.87 94.48 178.08 82.69 156.73 82.69 130.18 56.13 129.59 56.72 156.39 83.52 177.73 83.52 189.53 95.31 196.41 95.31 213.49 112.4 274.15 112.4 297.71 135.95"/><path class="lg" d="M474.67,126.27c.86,0,1.57-.7,1.57-1.56s-.7-1.56-1.57-1.56-1.56,.7-1.56,1.56,.7,1.56,1.56,1.56Z"/><path class="lw" d="M128.83,57.59c-.61-.61-.61-1.6,0-2.21,.61-.61,1.6-.61,2.21,0,.61,.61,.61,1.6,0,2.21-.61,.61-1.6,.61-2.21,0Z"/><path class="lb" d="M477.41,202.27c.86,0,1.56-.7,1.56-1.56,0-.86-.7-1.56-1.56-1.56s-1.56,.7-1.56,1.56c0,.86,.7,1.56,1.56,1.56Z"/><path class="nc" d="M472.96,157.17c.86,0,1.56-.7,1.56-1.56s-.7-1.56-1.56-1.56-1.56,.7-1.56,1.56,.7,1.56,1.56,1.56Z"/><polygon class="mk" points="279.22 163.68 299.64 163.68 313.45 149.86 359.58 149.86 371.99 162.27 387.57 162.27 407.25 142.59 445.25 142.59 454.5 133.34 472.7 133.34 472.7 132.52 454.16 132.52 444.91 141.75 406.91 141.75 387.23 161.44 372.34 161.44 359.93 149.03 313.11 149.03 299.29 162.85 279.57 162.85 268.5 151.79 233.35 151.79 223.13 162.01 181.65 162.01 157.15 137.5 108.39 137.5 98.05 127.16 97.47 127.75 108.05 138.33 156.81 138.33 181.31 162.84 223.47 162.84 233.69 152.62 268.16 152.62 279.22 163.68"/><path class="ng" d="M472.62,134.49c.86,0,1.57-.7,1.57-1.57s-.7-1.56-1.57-1.56-1.56,.7-1.56,1.56,.7,1.57,1.56,1.57Z"/><path class="lv" d="M96.71,128.62c-.61-.61-.61-1.6,0-2.21,.61-.61,1.6-.61,2.21,0,.61,.61,.61,1.6,0,2.21-.61,.61-1.6,.61-2.21,0Z"/><polygon class="mu" points="390.22 167.62 406.66 151.19 446.47 151.19 457.29 140.37 471.74 140.37 471.74 139.54 456.95 139.54 446.13 150.36 406.31 150.36 389.64 167.04 390.22 167.62"/><path class="nf" d="M471.67,141.52c.86,0,1.56-.7,1.56-1.56s-.7-1.57-1.56-1.57-1.56,.7-1.56,1.57,.7,1.56,1.56,1.56Z"/><path class="nd" d="M391.09,168.38c-.61,.61-1.6,.61-2.21,0-.61-.61-.61-1.6,0-2.21,.61-.61,1.6-.61,2.21,0,.61,.61,.61,1.6,0,2.21Z"/><polygon class="le" points="282.5 155.73 300.97 155.73 315.06 141.64 360.86 141.64 373.18 153.95 383.41 153.95 395.14 142.22 394.56 141.63 383.07 153.12 373.52 153.12 361.2 140.81 314.72 140.81 300.63 154.91 282.84 154.91 269.18 141.24 230.3 141.24 230.3 142.07 268.84 142.07 282.5 155.73"/><path class="mx" d="M395.9,143.09c.61-.61,.61-1.6,0-2.21-.61-.61-1.6-.61-2.21,0-.61,.61-.61,1.6,0,2.21,.61,.61,1.6,.61,2.21,0Z"/><path class="ly" d="M230.38,143.22c-.86,0-1.56-.7-1.56-1.56s.7-1.56,1.56-1.56,1.56,.7,1.56,1.56-.7,1.56-1.56,1.56Z"/><polygon class="nl" points="370.41 140.83 381.53 140.83 381.53 140 370.76 140 362.47 131.72 338.93 131.72 338.93 132.55 362.13 132.55 370.41 140.83"/><path class="mo" d="M381.45,141.98c.86,0,1.56-.7,1.56-1.56,0-.86-.7-1.57-1.56-1.57s-1.56,.7-1.56,1.57c0,.86,.7,1.56,1.56,1.56Z"/><path class="mw" d="M339.01,133.69c-.86,0-1.56-.7-1.56-1.56s.7-1.56,1.56-1.56,1.56,.7,1.56,1.56-.7,1.56-1.56,1.56Z"/><path class="mb" d="M291.51,146.4c.61,.61,1.6,.61,2.21,0,.61-.61,.61-1.6,0-2.21-.61-.61-1.6-.61-2.21,0-.61,.61-.61,1.6,0,2.21Z"/><polygon class="lh" points="283.17 148.41 283.76 147.82 263.74 127.81 224.97 127.81 213.34 139.43 190.79 139.43 173.59 122.22 128.58 122.22 128.58 123.05 173.24 123.05 190.45 140.26 213.69 140.26 225.31 128.64 263.4 128.64 283.17 148.41"/><path class="m`" d="M282.31,149.16c.61,.61,1.6,.61,2.21,0,.61-.61,.61-1.6,0-2.21-.61-.61-1.6-.61-2.21,0-.61,.61-.61,1.6,0,2.21Z"/><path class="my" d="M128.66,124.2c-.86,0-1.56-.7-1.56-1.56s.7-1.56,1.56-1.56,1.56,.7,1.56,1.56-.7,1.56-1.56,1.56Z"/><polygon class="mh" points="196.43 132.55 209.85 132.55 209.85 131.72 196.77 131.72 178.83 113.77 125.89 113.77 112.77 100.65 94.13 100.65 83.68 90.2 83.09 90.78 93.79 101.48 112.43 101.48 125.55 114.6 178.48 114.6 196.43 132.55"/><path class="ll" d="M209.77,133.69c.86,0,1.56-.7,1.56-1.56s-.7-1.56-1.56-1.56-1.56,.7-1.56,1.56,.7,1.56,1.56,1.56Z"/><path class="lt" d="M82.34,91.65c-.61-.61-.61-1.6,0-2.21,.61-.61,1.6-.61,2.21,0,.61,.61,.61,1.59,0,2.21-.61,.61-1.6,.61-2.21,0Z"/><polygon class="lu" points="183.31 155.79 217.26 155.79 226.46 146.59 252.43 146.59 252.43 145.76 226.11 145.76 216.91 154.96 183.66 154.96 161.56 132.87 122.37 132.87 122.37 133.7 161.22 133.7 183.31 155.79"/><path class="la" d="M252.35,147.73c.86,0,1.56-.7,1.56-1.56s-.7-1.56-1.56-1.56-1.56,.7-1.56,1.56,.7,1.56,1.56,1.56Z"/><path class="ld" d="M122.45,134.84c-.87,0-1.56-.7-1.56-1.56s.7-1.56,1.56-1.56,1.56,.7,1.56,1.56-.7,1.56-1.56,1.56Z"/><polygon class="md" points="187.23 148.65 214.73 148.65 226.69 136.69 259.56 136.69 259.56 135.86 226.35 135.86 214.38 147.83 187.57 147.83 167.55 127.81 118.53 127.81 99.31 108.59 82.56 108.59 82.56 109.42 98.97 109.42 118.18 128.64 167.2 128.64 187.23 148.65"/><path class="ni" d="M259.48,137.83c.86,0,1.56-.69,1.56-1.56s-.7-1.56-1.56-1.56-1.56,.7-1.56,1.56,.7,1.56,1.56,1.56Z"/><path class="mg" d="M82.63,110.56c-.86,0-1.56-.7-1.56-1.56s.7-1.56,1.56-1.56,1.56,.7,1.56,1.56-.7,1.56-1.56,1.56Z"/><polygon class="ml" points="203.8 117.82 268.76 117.82 268.76 116.99 204.14 116.99 179.05 91.9 153.05 91.9 136.36 75.22 109.78 75.22 92.25 57.69 91.67 58.28 109.44 76.05 136.02 76.05 152.7 92.74 178.71 92.74 203.8 117.82"/><path class="mv" d="M268.68,118.97c.86,0,1.56-.7,1.56-1.56s-.7-1.56-1.56-1.56-1.56,.7-1.56,1.56,.7,1.56,1.56,1.56Z"/><path class="ne" d="M90.91,59.14c-.61-.61-.61-1.6,0-2.21,.61-.61,1.6-.61,2.21,0,.61,.61,.61,1.6,0,2.21-.61,.61-1.6,.61-2.21,0Z"/><polygon class="lr" points="448.2 193.3 474.96 193.3 474.96 192.47 448.54 192.47 438.88 182.81 395.54 182.81 395.54 183.64 438.54 183.64 448.2 193.3"/><path class="mn" d="M474.89,194.45c.86,0,1.56-.7,1.56-1.56s-.7-1.56-1.56-1.56-1.56,.7-1.56,1.56,.7,1.56,1.56,1.56Z"/><path class="me" d="M395.62,184.78c-.86,0-1.56-.7-1.56-1.56s.7-1.56,1.56-1.56,1.56,.7,1.56,1.56-.7,1.56-1.56,1.56Z"/><path class="lf" d="M423.79,189.85c.87,0,1.56-.7,1.56-1.56,0-.86-.7-1.56-1.56-1.56s-1.56,.7-1.56,1.56c0,.86,.7,1.56,1.56,1.56Z"/><path class="lo" d="M384.67,181.56c.86,0,1.56-.7,1.56-1.56s-.7-1.57-1.56-1.57-1.56,.7-1.56,1.57,.7,1.56,1.56,1.56Z"/><polygon class="mq" points="400.61 178.58 440.26 178.58 448.54 170.29 471.74 170.29 471.74 169.46 448.2 169.46 439.92 177.74 400.61 177.74 400.61 178.58"/><path class="mr" d="M471.67,171.44c.86,0,1.56-.7,1.56-1.56s-.7-1.56-1.56-1.56-1.56,.7-1.56,1.56,.7,1.56,1.56,1.56Z"/><path class="mc" d="M400.68,179.72c-.86,0-1.56-.7-1.56-1.56s.7-1.56,1.56-1.56,1.56,.7,1.56,1.56-.7,1.56-1.56,1.56Z"/><polygon class="mm" points="406.13 169.6 434.97 169.6 443.48 161.08 475.42 161.08 475.42 160.26 443.14 160.26 434.62 168.77 406.13 168.77 406.13 169.6"/><path class="n`" d="M475.35,162.23c.86,0,1.56-.7,1.56-1.56s-.7-1.56-1.56-1.56-1.56,.7-1.56,1.56,.7,1.56,1.56,1.56Z"/><path class="mf" d="M406.21,170.75c-.86,0-1.56-.7-1.56-1.56s.7-1.56,1.56-1.56,1.56,.7,1.56,1.56-.69,1.56-1.56,1.56Z"/><polygon class="lm" points="283.7 196.87 298.38 196.87 317.83 177.43 341.65 177.43 349.7 185.48 379.69 185.48 379.69 184.65 350.05 184.65 341.99 176.59 317.48 176.59 298.04 196.04 283.7 196.04 283.7 196.87"/><path class="nk" d="M379.61,186.63c.86,0,1.56-.7,1.56-1.56s-.7-1.56-1.56-1.56-1.56,.7-1.56,1.56,.7,1.56,1.56,1.56Z"/><path class="ln" d="M283.77,198.01c-.87,0-1.56-.69-1.56-1.56s.7-1.56,1.56-1.56,1.56,.7,1.56,1.56-.7,1.56-1.56,1.56Z"/><polygon class="lj" points="306.34 199.27 322.43 183.18 337.73 183.18 345.56 191 374.63 191 374.63 190.17 345.9 190.17 338.08 182.35 322.09 182.35 305.75 198.68 306.34 199.27"/><path class="li" d="M374.55,192.15c.86,0,1.56-.7,1.56-1.56s-.7-1.56-1.56-1.56-1.56,.7-1.56,1.56,.7,1.56,1.56,1.56Z"/><path class="lp" d="M307.2,200.03c-.61,.61-1.6,.61-2.21,0-.61-.61-.61-1.6,0-2.21,.61-.61,1.59-.61,2.21,0,.61,.61,.61,1.6,0,2.21Z"/><polygon class="lq" points="177.77 170.04 178.36 169.45 158.34 149.44 104.26 149.44 87.82 133.01 87.24 133.59 103.91 150.27 158 150.27 177.77 170.04"/><path class="mp" d="M176.9,170.8c.61,.61,1.6,.61,2.21,0,.61-.61,.61-1.6,0-2.21-.61-.61-1.6-.61-2.21,0-.61,.61-.61,1.6,0,2.21Z"/><path class="mj" d="M86.48,134.46c-.61-.61-.61-1.6,0-2.21,.61-.61,1.6-.61,2.21,0,.61,.61,.61,1.6,0,2.21-.61,.61-1.6,.61-2.21,0Z"/><path class="ls" d="M172.49,176.5c.86,0,1.56-.7,1.56-1.56s-.7-1.56-1.56-1.56-1.56,.7-1.56,1.56,.7,1.56,1.56,1.56Z"/><polygon class="ms" points="109.9 170.63 123.47 170.63 134.64 159.48 154.78 159.48 163.96 168.66 164.55 168.07 155.12 158.64 134.29 158.64 123.13 169.8 110.24 169.8 99.71 159.28 84.47 159.28 75.77 150.58 75.18 151.17 84.13 160.11 99.37 160.11 109.9 170.63"/><path class="nj" d="M163.09,169.42c.61,.61,1.6,.61,2.21,0,.61-.61,.61-1.6,0-2.21-.61-.61-1.6-.61-2.21,0-.61,.61-.61,1.6,0,2.21Z"/><path class="na" d="M74.43,152.03c-.61-.61-.61-1.6,0-2.21,.61-.61,1.6-.61,2.21,0,.61,.61,.61,1.6,0,2.21-.61,.61-1.6,.61-2.21,0Z"/><polygon class="nh" points="90.57 155.1 115.03 155.1 115.03 154.27 90.91 154.27 72.75 136.11 72.16 136.7 90.57 155.1"/><path class="ma" d="M114.95,156.25c.86,0,1.56-.7,1.56-1.56s-.7-1.56-1.56-1.56-1.56,.7-1.56,1.56,.7,1.56,1.56,1.56Z"/><path class="lk" d="M71.41,137.57c-.61-.61-.61-1.6,0-2.21,.61-.61,1.6-.61,2.21,0,.61,.61,.61,1.6,0,2.21-.61,.61-1.6,.61-2.21,0Z"/><path class="lc" d="M155.46,170.06c.86,0,1.56-.7,1.56-1.56s-.7-1.57-1.56-1.57-1.56,.7-1.56,1.57,.7,1.56,1.56,1.56Z"/><polygon class="mi" points="114.32 183.86 133.49 183.86 141.07 176.28 140.49 175.7 133.14 183.04 114.32 183.04 114.32 183.86"/><path class="ky" d="M141.83,177.15c.61-.61,.61-1.6,0-2.21-.61-.61-1.6-.61-2.21,0-.61,.61-.61,1.6,0,2.21,.61,.61,1.6,.61,2.21,0Z"/><path class="l`" d="M114.4,185.02c-.86,0-1.56-.7-1.56-1.57s.7-1.56,1.56-1.56,1.56,.7,1.56,1.56-.7,1.57-1.56,1.57Z"/></g><g><polygon class="uq" points="339.13 123.56 378.33 123.56 408.04 93.86 426.64 93.86 436.19 103.41 474.41 103.41 474.41 102.87 436.41 102.87 426.86 93.33 407.82 93.33 378.11 123.03 339.35 123.03 325.16 108.84 283.4 108.84 270.07 95.52 233.25 95.52 233.25 96.04 269.85 96.04 283.18 109.37 324.95 109.37 339.13 123.56"/><path class="ux" d="M474.35,104.34c.66,0,1.2-.54,1.2-1.2,0-.66-.54-1.19-1.2-1.19s-1.2,.53-1.2,1.19,.54,1.2,1.2,1.2Z"/><path class="tf" d="M233.3,96.98c-.66,0-1.2-.54-1.2-1.2,0-.66,.54-1.2,1.2-1.2s1.2,.54,1.2,1.2c0,.66-.53,1.2-1.2,1.2Z"/></g><path class="wi" d="M414.72,195.33c.66,0,1.2-.53,1.2-1.19,0-.66-.54-1.2-1.2-1.2s-1.2,.54-1.2,1.2c0,.66,.54,1.19,1.2,1.19Z"/><g><rect class="nx" x="245.42" y="69.33" width="8.16" height="8.15"/><rect class="oe" x="234.56" y="69.33" width="8.16" height="8.15"/><rect class="oj" x="202" y="69.33" width="8.16" height="8.15"/><rect class="np" x="245.42" y="79.76" width="8.16" height="8.16"/><rect class="ns" x="223.71" y="79.76" width="8.16" height="8.16"/><rect class="pa" x="212.86" y="79.76" width="8.15" height="8.16"/><rect class="ox" x="202" y="79.76" width="8.16" height="8.16"/></g><g><g class="nq"><path class="vu" d="M200.52,32.56h8.43v8.43h-8.43v-8.43m-.85-.86v10.14h10.13v-10.14h-10.13Z"/></g><g class="nq"><path class="wj" d="M187.03,32.56h8.43v8.43h-8.43v-8.43m-.85-.86v10.14h10.13v-10.14h-10.13Z"/></g><g class="nq"><path class="wr" d="M146.57,32.56h8.43v8.43h-8.43v-8.43m-.85-.86v10.14h10.13v-10.14h-10.13Z"/></g><g class="nq"><path class="uk" d="M200.52,45.52h8.43v8.43h-8.43v-8.43m-.85-.85v10.14h10.13v-10.14h-10.13Z"/></g><g class="nq"><path class="rp" d="M173.55,45.52h8.43v8.43h-8.43v-8.43m-.86-.85v10.14h10.13v-10.14h-10.13Z"/></g><g class="nq"><path class="ru" d="M160.06,45.52h8.43v8.43h-8.43v-8.43m-.85-.85v10.14h10.13v-10.14h-10.13Z"/></g><g class="nq"><path class="qw" d="M146.57,45.52h8.43v8.43h-8.43v-8.43m-.85-.85v10.14h10.13v-10.14h-10.13Z"/></g></g><g class="ss"><rect class="nt" x="305.98" y="177.27" width="6.47" height="6.47"/><rect class="nu" x="297.37" y="177.27" width="6.47" height="6.47"/><rect class="oi" x="288.77" y="177.27" width="6.47" height="6.47"/><rect class="ot" x="280.16" y="177.27" width="6.47" height="6.47"/><rect class="oy" x="271.55" y="177.27" width="6.47" height="6.47"/><rect class="op" x="262.95" y="177.27" width="6.47" height="6.47"/><rect class="ow" x="245.73" y="177.27" width="6.46" height="6.47"/><rect class="oo" x="237.13" y="177.27" width="6.47" height="6.47"/><rect class="ob" x="228.52" y="177.27" width="6.47" height="6.47"/><rect class="on" x="219.91" y="177.27" width="6.47" height="6.47"/><rect class="nv" x="211.31" y="177.27" width="6.47" height="6.47"/><rect class="ou" x="202.7" y="177.27" width="6.46" height="6.47"/><rect class="or" x="194.09" y="177.27" width="6.47" height="6.47"/><rect class="of" x="176.88" y="177.27" width="6.47" height="6.47"/><rect class="oa" x="168.28" y="177.27" width="6.46" height="6.47"/><rect class="om" x="159.67" y="177.27" width="6.47" height="6.47"/><rect class="nr" x="305.98" y="185.54" width="6.47" height="6.46"/><rect class="oh" x="288.77" y="185.54" width="6.47" height="6.46"/><rect class="oc" x="280.16" y="185.54" width="6.47" height="6.46"/><rect class="nw" x="271.55" y="185.54" width="6.47" height="6.46"/><rect class="pc" x="262.95" y="185.54" width="6.47" height="6.46"/><rect class="ol" x="254.34" y="185.54" width="6.47" height="6.46"/><rect class="od" x="245.73" y="185.54" width="6.46" height="6.46"/><rect class="ny" x="237.13" y="185.54" width="6.47" height="6.46"/><rect class="og" x="228.52" y="185.54" width="6.47" height="6.46"/><rect class="p`" x="219.91" y="185.54" width="6.47" height="6.46"/><rect class="oq" x="211.31" y="185.54" width="6.47" height="6.46"/><rect class="ok" x="202.7" y="185.54" width="6.46" height="6.46"/><rect class="o`" x="194.09" y="185.54" width="6.47" height="6.46"/><rect class="os" x="185.49" y="185.54" width="6.47" height="6.46"/><rect class="ov" x="176.88" y="185.54" width="6.47" height="6.46"/><rect class="pd" x="159.67" y="185.54" width="6.47" height="6.46"/><rect class="pb" x="151.06" y="185.54" width="6.47" height="6.46"/></g><g class="nb"><g><polygon class="sr" points="468.81 177.46 515.11 177.46 515.11 176.46 469.22 176.46 463.87 171.12 447.37 171.12 429.82 153.57 345.08 153.57 323.48 131.96 322.78 132.66 344.67 154.56 429.41 154.56 446.96 172.11 463.46 172.11 468.81 177.46"/><path class="ra" d="M324.51,131.06c-.73-.73-1.91-.73-2.64,0-.73,.73-.73,1.91,0,2.63,.73,.73,1.91,.73,2.64,0,.73-.73,.73-1.91,0-2.63Z"/><path class="sm" d="M515.02,175.1c1.03,0,1.86,.83,1.86,1.86,0,1.03-.83,1.86-1.86,1.86s-1.86-.83-1.86-1.86c0-1.03,.84-1.86,1.86-1.86Z"/></g><g><polygon class="rd" points="407.62 198.95 457.05 198.95 457.05 197.95 408.03 197.95 385.84 175.76 301.5 175.76 269.42 143.68 148.92 143.68 148.92 144.68 269.01 144.68 301.09 176.75 385.42 176.75 407.62 198.95"/><path class="qn" d="M149.01,146.04c-1.03,0-1.86-.83-1.86-1.86s.83-1.86,1.86-1.86,1.86,.83,1.86,1.86-.83,1.86-1.86,1.86Z"/></g><g><polygon class="rn" points="404.03 154.6 404.73 153.9 380.79 129.96 339.03 129.96 324.6 115.53 205.82 115.53 205.82 116.53 324.19 116.53 338.61 130.95 380.38 130.95 404.03 154.6"/><path class="qh" d="M205.91,117.9c-1.03,0-1.86-.83-1.86-1.86s.84-1.86,1.86-1.86,1.86,.83,1.86,1.86-.83,1.86-1.86,1.86Z"/></g><g><polygon class="ur" points="378.77 154.36 379.47 153.66 369.49 143.68 353.5 143.68 353.5 144.68 369.08 144.68 378.77 154.36"/><path class="rh" d="M353.59,146.04c-1.03,0-1.86-.83-1.86-1.86s.84-1.86,1.86-1.86,1.87,.83,1.87,1.86-.84,1.86-1.87,1.86Z"/></g><g><polygon class="tm" points="286.29 161.82 309.97 161.82 319.96 151.83 319.26 151.13 309.56 160.83 286.29 160.83 286.29 161.82"/><path class="so" d="M318.23,150.23c.73-.73,1.91-.73,2.63,0,.73,.73,.73,1.9,0,2.64-.73,.73-1.91,.73-2.63,0-.73-.73-.73-1.91,0-2.64Z"/></g><g><polygon class="pt" points="288.98 186.03 338.22 186.03 347.48 176.77 346.78 176.07 337.81 185.04 289.39 185.04 258.73 154.38 213.89 154.38 213.89 155.37 258.32 155.37 288.98 186.03"/><path class="v`" d="M213.98,156.73c-1.03,0-1.86-.83-1.86-1.86s.83-1.86,1.86-1.86,1.86,.83,1.86,1.86-.84,1.86-1.86,1.86Z"/></g><g><polygon class="um" points="233.26 129.54 296.66 129.54 309.71 116.48 309.01 115.78 296.25 128.55 233.26 128.55 233.26 129.54"/><path class="to" d="M233.35,130.91c-1.03,0-1.86-.83-1.86-1.86s.83-1.87,1.86-1.87,1.87,.83,1.87,1.87-.84,1.86-1.87,1.86Z"/></g><g><polygon class="vl" points="226.69 144.33 227.4 143.63 218.37 134.6 169.5 134.6 169.5 135.6 217.96 135.6 226.69 144.33"/><path class="qr" d="M169.59,136.96c-1.03,0-1.86-.83-1.86-1.86s.83-1.86,1.86-1.86,1.87,.83,1.87,1.86-.84,1.86-1.87,1.86Z"/></g><g><polygon class="un" points="154.1 177.47 165.11 166.46 236.33 166.46 247.57 155.22 246.87 154.52 235.92 165.47 164.7 165.47 153.4 176.77 154.1 177.47"/><path class="wt" d="M155.13,178.37c-.73,.73-1.91,.73-2.64,0-.73-.73-.73-1.91,0-2.63,.73-.73,1.91-.73,2.64,0,.73,.73,.73,1.91,0,2.63Z"/></g><g><polygon class="va" points="488.93 172.11 508.49 172.11 518.73 161.87 518.03 161.17 508.08 171.12 489.34 171.12 451.2 132.99 423.36 132.99 393.7 103.33 354.31 103.33 354.31 104.32 393.29 104.32 422.95 133.98 450.79 133.98 488.93 172.11"/><path class="vk" d="M354.4,101.96c-1.03,0-1.87,.83-1.87,1.86s.84,1.86,1.87,1.86,1.86-.83,1.86-1.86-.83-1.86-1.86-1.86Z"/><path class="qf" d="M517,160.27c.73-.73,1.91-.73,2.63,0,.73,.73,.73,1.91,0,2.63-.73,.73-1.91,.73-2.63,0-.73-.73-.73-1.9,0-2.63Z"/></g><g><polygon class="sb" points="460.08 162.03 479.04 162.03 479.04 161.03 460.49 161.03 443.74 144.28 426.95 144.28 426.95 145.28 443.33 145.28 460.08 162.03"/><path class="uh" d="M427.04,146.65c-1.03,0-1.86-.83-1.86-1.86s.83-1.86,1.86-1.86,1.87,.84,1.87,1.86-.83,1.86-1.87,1.86Z"/></g><g><polygon class="sv" points="369.08 122.28 411.46 122.28 411.46 121.29 369.49 121.29 360.71 112.51 336.6 112.51 332.5 108.41 331.8 109.11 336.19 113.5 360.3 113.5 369.08 122.28"/><path class="qy" d="M330.9,110.14c-.73-.73-.73-1.91,0-2.64,.73-.73,1.91-.73,2.63,0,.73,.73,.73,1.91,0,2.64-.73,.73-1.9,.73-2.63,0Z"/></g><g><polygon class="sw" points="393.3 143.66 407.02 143.66 413.58 137.1 412.88 136.4 406.61 142.67 393.3 142.67 393.3 143.66"/><path class="ph" d="M411.85,135.5c.72-.73,1.91-.73,2.63,0,.73,.73,.73,1.91,0,2.64-.72,.73-1.91,.73-2.63,0-.73-.73-.73-1.91,0-2.64Z"/></g><g><polygon class="rk" points="190.16 113.47 197.39 106.24 275.37 106.24 286.16 95.44 332.36 95.44 350.17 113.25 350.87 112.55 332.77 94.45 285.75 94.45 274.96 105.25 196.98 105.25 189.46 112.76 190.16 113.47"/><path class="tw" d="M191.19,114.37c-.73,.73-1.9,.73-2.63,0-.73-.73-.73-1.91,0-2.63,.73-.73,1.91-.73,2.63,0,.73,.73,.73,1.9,0,2.63Z"/></g><g><polygon class="uy" points="288.97 146.5 293.43 142.05 332.36 142.05 332.36 141.06 293.02 141.06 288.27 145.81 288.97 146.5"/><path class="vb" d="M290.01,147.41c-.73,.73-1.91,.73-2.64,0-.73-.73-.73-1.91,0-2.63,.73-.73,1.91-.73,2.64,0,.72,.73,.72,1.9,0,2.63Z"/></g><g><polygon class="pg" points="286.97 105.96 309.69 105.96 320.32 95.33 319.62 94.63 309.28 104.97 286.97 104.97 286.97 105.96"/><path class="tq" d="M287.06,107.33c-1.03,0-1.86-.83-1.86-1.86s.84-1.86,1.86-1.86,1.87,.83,1.87,1.86-.84,1.86-1.87,1.86Z"/></g><g><polygon class="ut" points="241.44 136.45 269.87 136.45 276.77 129.55 276.06 128.85 269.46 135.46 241.44 135.46 241.44 136.45"/><path class="ti" d="M241.53,137.82c-1.03,0-1.87-.83-1.87-1.86s.83-1.86,1.87-1.86,1.86,.83,1.86,1.86-.83,1.86-1.86,1.86Z"/></g><g><polygon class="wq" points="257.1 106 257.8 105.3 240.45 87.95 167.41 87.95 154.1 74.64 153.4 75.33 167 88.94 240.04 88.94 257.1 106"/><path class="q`" d="M152.49,76.37c-.73-.73-.73-1.91,0-2.63,.73-.73,1.91-.73,2.64,0,.73,.73,.73,1.91,0,2.63-.73,.73-1.91,.73-2.64,0Z"/></g></g><g class="nq"><polygon class="td" points="199.47 111.26 195.67 113.45 199.47 115.64 199.47 111.26"/><polygon class="vj" points="266.87 172.55 258.68 177.28 266.87 182.01 266.87 172.55"/><polygon class="wm" points="297.6 156.35 290.74 160.31 297.6 164.27 297.6 156.35"/><polygon class="nm" points="341.88 141.71 335.92 145.15 341.88 148.59 341.88 141.71"/><polygon class="nn" points="203.89 169.47 199.97 171.73 203.89 173.99 203.89 169.47"/><polygon class="sn" points="356.61 94.95 362.15 91.76 356.61 88.56 356.61 94.95"/><polygon class="py" points="369.7 200.17 373.08 198.22 369.7 196.27 369.7 200.17"/><polygon class="qj" points="287.81 110.27 292.47 107.58 287.81 104.89 287.81 110.27"/><polygon class="pj" points="265.89 113.9 269.36 111.9 265.89 109.9 265.89 113.9"/><polygon class="ro" points="234.69 140.69 238.89 138.27 234.69 135.84 234.69 140.69"/></g></g></g></g></g></svg>