<?xml version="1.0" encoding="UTF-8"?><svg id="Layer_1" xmlns="http://www.w3.org/2000/svg" viewBox="0 0 512 296"><path d="M256.12,230.41c2.83-3.7,4.32-6.15,6.28-8.12,66.59-66.67,133.17-133.35,199.98-199.79,4.11-4.08,9.75-7.5,15.29-9.06,8.64-2.45,18.1,2.7,22.69,10.49,4.65,7.88,4.11,17.83-1.52,25.11-1.57,2.03-3.46,3.82-5.28,5.64-72.75,72.77-145.51,145.53-218.28,218.29-13.6,13.59-25.14,13.61-38.66,.09C163.36,199.8,90.09,126.56,16.86,53.27,2.82,39.23,7.09,18.56,24.98,13.74c8.71-2.35,16.16,.23,22.45,6.51,12.6,12.59,25.2,25.18,37.8,37.78,54.86,54.86,109.73,109.72,164.56,164.61,1.81,1.81,3.27,3.98,6.33,7.77Z"/></svg>