<?xml version="1.0" encoding="utf-8"?>
<!-- Generator: Adobe Illustrator 26.0.3, SVG Export Plug-In . SVG Version: 6.00 Build 0)  -->
<svg version="1.1" id="Layer_1" xmlns="http://www.w3.org/2000/svg" xmlns:xlink="http://www.w3.org/1999/xlink" x="0px" y="0px"
	 viewBox="0 0 497.5 105" style="enable-background:new 0 0 497.5 105;" xml:space="preserve">
<style type="text/css">
	.st0{display:none;}
	.st1{fill:#FFFFFF;}
	.st2{fill:#F97233;}
	.st3{display:inline;fill:#12FD29;}
	.st4{display:none;fill:#12FD29;}
	.st5{font-family:'Poppins-BoldItalic';}
	.st6{font-size:74px;}
	.st7{display:none;fill:#FFFFFF;}
	.st8{font-family:'Poppins-SemiBoldItalic';}
	.st9{font-size:51px;}
</style>
<rect class="st0" width="497.5" height="105"/>
<path class="st1" d="M114.2,0l-4.1,10L106,20V0H42.9L0,104.3h42.7l4.1-10l4.1-9.9v19.9h20.7L83,76.6c-5.7,1.3-11.6,0.7-16.9-1.7
	c-5.3-2.5-9.6-6.6-12.2-11.8c-2.6-5.2-3.5-11.1-2.3-16.9c1.1-5.7,4.2-10.9,8.6-14.7c4.4-3.8,10-6,15.8-6.3
	c5.8-0.3,11.6,1.5,16.3,4.9c4.7,3.4,8.2,8.3,9.8,13.9c1.6,5.6,1.3,11.6-0.8,17h0l-17.8,43.3h21.8L148.1,0L114.2,0z"/>
<path class="st2" d="M77.1,36.1c-3,0-5.9,0.9-8.4,2.5s-4.4,4-5.6,6.8c-1.1,2.8-1.4,5.8-0.9,8.7c0.6,2.9,2,5.6,4.1,7.7
	c2.1,2.1,4.8,3.6,7.7,4.1c2.9,0.6,6,0.3,8.7-0.9c2.8-1.1,5.1-3.1,6.8-5.6c1.7-2.5,2.5-5.4,2.5-8.4c0-4-1.6-7.9-4.4-10.7
	C84.9,37.7,81.1,36.1,77.1,36.1L77.1,36.1z"/>
<g class="st0">
	<path class="st3" d="M205.5,84.1h-7.3v20.2h7.3V84.1z"/>
	<path class="st3" d="M205.5,66.4h-7.3v10.4h7.3V66.4z"/>
	<path class="st3" d="M225,66.4h-7.3v10.4h7.3V66.4z"/>
	<path class="st3" d="M217.7,84.1v-7.3h-12.2v7.3H217.7z"/>
	<path class="st3" d="M225,84.1h-7.3v20.2h7.3V84.1z"/>
	<path class="st3" d="M172.1,70.1h-7.3v34.2h7.3V70.1z"/>
	<path class="st3" d="M164.7,66.4v7.3h26.1v-7.3H164.7z"/>
	<path class="st3" d="M164.7,84.1v7.3h20.4v-7.3H164.7z"/>
	<path class="st3" d="M128.1,66.4h-7.3v23.2h7.3V66.4z"/>
	<path class="st3" d="M157.4,66.4H150v23.2h7.3V66.4z"/>
	<path class="st3" d="M135.4,89.6h-7.3V97h7.3V89.6z"/>
	<path class="st3" d="M142.7,97h-7.3v7.3h7.3V97z"/>
	<path class="st3" d="M150,89.6h-7.3V97h7.3V89.6z"/>
</g>
<text transform="matrix(1 0 0 1 116.4171 56.142)" class="st4 st5 st6">VFX</text>
<g class="st0">
	<path class="st3" d="M128.3,6.7H143l0.5,42.9l27.7-42.9H186l-38.2,56.9h-17.3L128.3,6.7z"/>
	<path class="st3" d="M191.7,6.7h37l-3.5,10.9h-23.2l-3.8,12.2h17.3l-3.4,10.5h-17.3l-7.3,23.2h-13.9L191.7,6.7z"/>
	<path class="st3" d="M246.8,46.2L231,63.6h-15.7l27.4-28.9l-9.8-28h16.1l6,17.2l15.5-17.2h15.7l-27.2,28.7l9.9,28.2h-16.1
		L246.8,46.2z"/>
</g>
<g>
	<path class="st2" d="M128.3,6.7H143l0.5,42.9l27.7-42.9H186l-38.2,56.9h-17.3L128.3,6.7z"/>
	<path class="st2" d="M191.7,6.7h37l-3.5,10.9h-23.2l-3.8,12.2h17.3l-3.4,10.5h-17.3l-7.3,23.2h-13.9L191.7,6.7z"/>
	<path class="st2" d="M246.8,46.2L231,63.6h-15.7l27.4-28.9l-9.8-28h16.1l6,17.2l15.5-17.2h15.7l-27.2,28.7l9.9,28.2h-16.1
		L246.8,46.2z"/>
</g>
<g>
	<path class="st1" d="M131.4,69.4h8.1l1.1,26.4l21.5-26.4h8.1L156.4,105h-7.2l8.9-23l-18.4,23h-5.5l-0.6-23.1l-8.9,23.1h-7.2
		L131.4,69.4z"/>
	<path class="st1" d="M187.9,98.2h-14.2l-4.9,6.8h-7.5l26.6-35.6h8.3l-1,35.6h-7.5L187.9,98.2z M188.8,77.6l-11,15.1h10.4
		L188.8,77.6z"/>
	<path class="st1" d="M227.1,69.4c8.6,0,10.9,4.9,8.6,10.9c-1.7,4.3-5.7,8.7-12,10.2l2.9,14.4h-8.3l-2.4-13.9h-3.4l-5.4,13.9h-7.2
		l13.8-35.6H227.1z M224.6,75.2h-6l-4.1,10.7h6c3.9,0,6.6-2.1,7.9-5.4C229.6,77.3,228.6,75.2,224.6,75.2z"/>
	<path class="st1" d="M246,89.1l-6.1,15.9h-7.2l13.8-35.6h7.1l-6.2,16l19.1-16h8.6L253.7,87l8.2,18h-9.1L246,89.1z"/>
	<path class="st1" d="M298.8,75h-13.5l-3.6,9.2h12l-2.1,5.5h-12l-3.7,9.6h13.5l-2.2,5.7h-20.7l13.8-35.6h20.7L298.8,75z"/>
	<path class="st1" d="M305.5,69.4h26.1l-2.2,5.6H320l-11.6,30h-7.2l11.6-30h-9.5L305.5,69.4z"/>
	<path class="st1" d="M341.4,91.3h-6l-5.3,13.7H323l13.8-35.6h13.1c8.6,0,10.9,4.8,8.5,11C356.4,85.8,350.6,91.3,341.4,91.3z
		 M343.3,85.7c4,0,6.6-2.1,7.8-5.3c1.2-3.3,0.3-5.4-3.8-5.4h-5.6l-4.1,10.7H343.3z"/>
	<path class="st1" d="M375,69.4l-11.6,30.1H375l-2.1,5.5H354l13.8-35.6H375z"/>
	<path class="st1" d="M401.9,98.2h-14.2l-4.9,6.8h-7.5l26.6-35.6h8.3l-1,35.6h-7.5L401.9,98.2z M402.8,77.6l-11,15.1h10.4
		L402.8,77.6z"/>
	<path class="st1" d="M444.2,68.9c7.9,0,12.7,4.2,12.3,11.5h-8.2c-0.4-3.3-2.8-4.9-6.7-4.9c-6.3,0-12.4,4.5-15.1,11.6
		c-2.8,7-0.1,11.6,6.1,11.6c3.8,0,7.6-1.7,10.5-5h8.2c-5.3,7.3-13.3,11.5-21.2,11.5c-10.3,0-15.1-7.5-11-18.2
		C423.3,76.5,434,68.9,444.2,68.9z"/>
	<path class="st1" d="M485.4,75h-13.5l-3.6,9.2h12l-2.1,5.5h-12l-3.7,9.6H476l-2.2,5.7h-20.7l13.8-35.6h20.7L485.4,75z"/>
</g>
<text transform="matrix(1 0 0 1 125.4759 100)" class="st7 st8 st9">Marketplace</text>
</svg>
