<?xml version="1.0" encoding="UTF-8"?><svg id="a" xmlns="http://www.w3.org/2000/svg" viewBox="0 0 437 372.51"><defs><style>.b{fill:#fbf2e4;}.c{fill:#2d1d26;}.d{fill:#f27043;}</style></defs><path class="c" d="M425.2,146.34c0-19.64-14-36-32.77-39.43,.39-1.88,.59-3.8,.59-5.75,0-15.57-12.67-28.24-28.24-28.24-1.03,0-2.06,.06-3.08,.17-.16-2.21-.54-4.36-1.12-6.43-3.37-14.03-16.01-24.5-31.07-24.5-3.03,0-5.96,.43-8.74,1.22-4.29,1.06-8.33,2.96-11.88,5.61-7.38-17.97-24.94-30-44.87-30-4.04,0-7.99,.49-11.79,1.43-1.46,.35-2.88,.77-4.27,1.27-5.23,1.83-10.12,4.55-14.48,8.11-6.12-11.2-17.89-18.36-31.02-18.36-9.87,0-19.23,4.13-25.87,11.25-7.48-6.2-16.6-9.87-26.31-10.6-1.51-.17-3.05-.26-4.6-.26-.4,0-.79,.07-1.16,.17-19.03,.87-35.61,13.16-42.03,30.93-.66-.09-1.33-.16-2.01-.22-1.56-.19-3.13-.29-4.71-.29-21.44,0-38.88,17.43-38.88,38.86,0,3.55,.48,7.04,1.42,10.41-14.3,4.63-24.23,17.97-24.23,33.41,0,3.48,.51,6.89,1.51,10.19-14.4,6.91-23.8,21.6-23.8,37.83,0,10.33,3.69,20.05,10.47,27.72-2.88,5.45-4.39,11.51-4.39,17.72,0,11.86,5.47,22.88,14.77,30.06-.42,2.08-.64,4.2-.64,6.34,0,15.52,11.17,28.48,25.9,31.27-.13,.37-.2,.56-.2,.56,63.96,5.4,54.16,75.77,54.16,75.77h64.5v-72.58c0-33.65,31.97-44.04,31.97-44.04,4.62-.27,9.15-1.34,13.38-3.15,4.22,17.71,20.26,30.81,38.99,30.81,2.52,0,5-.24,7.42-.69,7.39-1.05,14.07-4.35,19.31-9.19,4.87,6.67,12.65,10.74,21.21,10.74,11.31,0,20.96-7.01,24.68-17.13,5.99,3.39,12.81,5.21,19.75,5.21,9.63,0,18.48-3.42,25.4-9.1,.55-.17,1.07-.44,1.53-.84,4.57-3.94,7.86-8.82,9.82-14.11,1.76-4.01,2.88-8.37,3.24-12.93,10.82-3.4,18.35-13.43,18.35-25.07,0-7.16-2.83-13.79-7.72-18.63,12.98-6.81,21.5-20.43,21.5-35.51Z"/><polygon class="b" points="144.56 325.78 143.16 324.39 165.27 302.28 165.27 253.2 167.25 253.2 167.25 303.1 144.56 325.78"/><path class="b" d="M352.82,241.24c-2.2,0-3.99-1.79-3.99-3.99s1.79-3.99,3.99-3.99,3.99,1.79,3.99,3.99-1.79,3.99-3.99,3.99Zm0-5.99c-1.11,0-2.01,.9-2.01,2.01s.9,2.01,2.01,2.01,2.01-.9,2.01-2.01-.9-2.01-2.01-2.01Z"/><path class="b" d="M352.82,250.69c-2.2,0-3.99-1.79-3.99-3.99s1.79-3.99,3.99-3.99,3.99,1.79,3.99,3.99-1.79,3.99-3.99,3.99Zm0-5.99c-1.11,0-2.01,.9-2.01,2.01s.9,2.01,2.01,2.01,2.01-.9,2.01-2.01-.9-2.01-2.01-2.01Z"/><polygon class="b" points="350.3 238.24 283.55 238.24 283.55 222.1 285.53 222.1 285.53 236.26 350.3 236.26 350.3 238.24"/><polygon class="b" points="349.82 247.7 273.32 247.7 273.32 223.96 275.3 223.96 275.3 245.72 349.82 245.72 349.82 247.7"/><polygon class="b" points="167.24 217.68 165.26 217.68 165.26 204.72 182.42 188.17 182.42 134.86 184.4 134.86 184.4 189.01 167.24 205.56 167.24 217.68"/><polygon class="b" points="177.31 217.68 175.33 217.68 175.33 204.72 192.49 188.17 192.49 134.86 194.47 134.86 194.47 189.01 177.31 205.56 177.31 217.68"/><polygon class="b" points="187.06 217.68 185.08 217.68 185.08 204.72 202.23 188.17 202.23 134.86 204.21 134.86 204.21 189.01 187.06 205.56 187.06 217.68"/><path class="b" d="M186.08,224.95c-2.2,0-3.99-1.79-3.99-3.99s1.79-3.99,3.99-3.99,3.99,1.79,3.99,3.99-1.79,3.99-3.99,3.99Zm0-5.99c-1.11,0-2.01,.9-2.01,2.01s.9,2.01,2.01,2.01,2.01-.9,2.01-2.01-.9-2.01-2.01-2.01Z"/><polygon class="b" points="197.13 217.68 195.15 217.68 195.15 204.72 212.3 188.17 212.3 119.91 214.28 119.91 214.28 189.01 197.13 205.56 197.13 217.68"/><path class="b" d="M196.15,224.95c-2.2,0-3.99-1.79-3.99-3.99s1.79-3.99,3.99-3.99,3.99,1.79,3.99,3.99-1.79,3.99-3.99,3.99Zm0-5.99c-1.11,0-2.01,.9-2.01,2.01s.9,2.01,2.01,2.01,2.01-.9,2.01-2.01-.9-2.01-2.01-2.01Z"/><path class="b" d="M224.49,91.73c-2.2,0-3.99-1.79-3.99-3.99s1.79-3.99,3.99-3.99,3.99,1.79,3.99,3.99-1.79,3.99-3.99,3.99Zm0-5.99c-1.11,0-2.01,.9-2.01,2.01s.9,2.01,2.01,2.01,2.01-.9,2.01-2.01-.9-2.01-2.01-2.01Z"/><path class="b" d="M224.49,165.52c-2.2,0-3.99-1.79-3.99-3.99s1.79-3.99,3.99-3.99,3.99,1.79,3.99,3.99-1.79,3.99-3.99,3.99Zm0-5.99c-1.11,0-2.01,.9-2.01,2.01s.9,2.01,2.01,2.01,2.01-.9,2.01-2.01-.9-2.01-2.01-2.01Z"/><path class="b" d="M233.35,165.52c-2.2,0-3.99-1.79-3.99-3.99s1.79-3.99,3.99-3.99,3.99,1.79,3.99,3.99-1.79,3.99-3.99,3.99Zm0-5.99c-1.11,0-2.01,.9-2.01,2.01s.9,2.01,2.01,2.01,2.01-.9,2.01-2.01-.9-2.01-2.01-2.01Z"/><path class="b" d="M242.58,165.52c-2.2,0-3.99-1.79-3.99-3.99s1.79-3.99,3.99-3.99,3.99,1.79,3.99,3.99-1.79,3.99-3.99,3.99Zm0-5.99c-1.11,0-2.01,.9-2.01,2.01s.9,2.01,2.01,2.01,2.01-.9,2.01-2.01-.9-2.01-2.01-2.01Z"/><path class="b" d="M333.46,142.26c-2.2,0-3.99-1.79-3.99-3.99s1.79-3.99,3.99-3.99,3.99,1.79,3.99,3.99-1.79,3.99-3.99,3.99Zm0-5.99c-1.11,0-2.01,.9-2.01,2.01s.9,2.01,2.01,2.01,2.01-.9,2.01-2.01-.9-2.01-2.01-2.01Z"/><path class="b" d="M274.05,169.39c-2.2,0-3.99-1.79-3.99-3.99s1.79-3.99,3.99-3.99,3.99,1.79,3.99,3.99-1.79,3.99-3.99,3.99Zm0-5.99c-1.11,0-2.01,.9-2.01,2.01s.9,2.01,2.01,2.01,2.01-.9,2.01-2.01-.9-2.01-2.01-2.01Z"/><path class="b" d="M282.86,169.39c-2.2,0-3.99-1.79-3.99-3.99s1.79-3.99,3.99-3.99,3.99,1.79,3.99,3.99-1.79,3.99-3.99,3.99Zm0-5.99c-1.11,0-2.01,.9-2.01,2.01s.9,2.01,2.01,2.01,2.01-.9,2.01-2.01-.9-2.01-2.01-2.01Z"/><path class="b" d="M298.16,109.42c-2.2,0-3.99-1.79-3.99-3.99s1.79-3.99,3.99-3.99,3.99,1.79,3.99,3.99-1.79,3.99-3.99,3.99Zm0-5.99c-1.11,0-2.01,.9-2.01,2.01s.9,2.01,2.01,2.01,2.01-.9,2.01-2.01-.9-2.01-2.01-2.01Z"/><path class="b" d="M298.16,118.38c-2.2,0-3.99-1.79-3.99-3.99s1.79-3.99,3.99-3.99,3.99,1.79,3.99,3.99-1.79,3.99-3.99,3.99Zm0-5.99c-1.11,0-2.01,.9-2.01,2.01s.9,2.01,2.01,2.01,2.01-.9,2.01-2.01-.9-2.01-2.01-2.01Z"/><path class="b" d="M299.16,232.25c-2.2,0-3.99-1.79-3.99-3.99s1.79-3.99,3.99-3.99,3.99,1.79,3.99,3.99-1.79,3.99-3.99,3.99Zm0-5.99c-1.11,0-2.01,.9-2.01,2.01s.9,2.01,2.01,2.01,2.01-.9,2.01-2.01-.9-2.01-2.01-2.01Z"/><path class="b" d="M307.99,232.25c-2.2,0-3.99-1.79-3.99-3.99s1.79-3.99,3.99-3.99,3.99,1.79,3.99,3.99-1.79,3.99-3.99,3.99Zm0-5.99c-1.11,0-2.01,.9-2.01,2.01s.9,2.01,2.01,2.01,2.01-.9,2.01-2.01-.9-2.01-2.01-2.01Z"/><path class="b" d="M378.83,229.08c-2.2,0-3.99-1.79-3.99-3.99s1.79-3.99,3.99-3.99,3.99,1.79,3.99,3.99-1.79,3.99-3.99,3.99Zm0-5.99c-1.11,0-2.01,.9-2.01,2.01s.9,2.01,2.01,2.01,2.01-.9,2.01-2.01-.9-2.01-2.01-2.01Z"/><path class="b" d="M389.35,220.89c-2.2,0-3.99-1.79-3.99-3.99s1.79-3.99,3.99-3.99,3.99,1.79,3.99,3.99-1.79,3.99-3.99,3.99Zm0-5.99c-1.11,0-2.01,.9-2.01,2.01s.9,2.01,2.01,2.01,2.01-.9,2.01-2.01-.9-2.01-2.01-2.01Z"/><path class="b" d="M342.75,142.26c-2.2,0-3.99-1.79-3.99-3.99s1.79-3.99,3.99-3.99,3.99,1.79,3.99,3.99-1.79,3.99-3.99,3.99Zm0-5.99c-1.11,0-2.01,.9-2.01,2.01s.9,2.01,2.01,2.01,2.01-.9,2.01-2.01-.9-2.01-2.01-2.01Z"/><path class="b" d="M317.42,172.39c-2.2,0-3.99-1.79-3.99-3.99s1.79-3.99,3.99-3.99,3.99,1.79,3.99,3.99-1.79,3.99-3.99,3.99Zm0-5.99c-1.11,0-2.01,.9-2.01,2.01s.9,2.01,2.01,2.01,2.01-.9,2.01-2.01-.9-2.01-2.01-2.01Z"/><path class="b" d="M381.28,148.39c-2.2,0-3.99-1.79-3.99-3.99s1.79-3.99,3.99-3.99,3.99,1.79,3.99,3.99-1.79,3.99-3.99,3.99Zm0-5.99c-1.11,0-2.01,.9-2.01,2.01s.9,2.01,2.01,2.01,2.01-.9,2.01-2.01-.9-2.01-2.01-2.01Z"/><path class="b" d="M369.71,138.07c-2.2,0-3.99-1.79-3.99-3.99s1.79-3.99,3.99-3.99,3.99,1.79,3.99,3.99-1.79,3.99-3.99,3.99Zm0-5.99c-1.11,0-2.01,.9-2.01,2.01s.9,2.01,2.01,2.01,2.01-.9,2.01-2.01-.9-2.01-2.01-2.01Z"/><path class="b" d="M377.49,131.45c-2.2,0-3.99-1.79-3.99-3.99s1.79-3.99,3.99-3.99,3.99,1.79,3.99,3.99-1.79,3.99-3.99,3.99Zm0-5.99c-1.11,0-2.01,.9-2.01,2.01s.9,2.01,2.01,2.01,2.01-.9,2.01-2.01-.9-2.01-2.01-2.01Z"/><path class="b" d="M357.45,95.61c-2.2,0-3.99-1.79-3.99-3.99s1.79-3.99,3.99-3.99,3.99,1.79,3.99,3.99-1.79,3.99-3.99,3.99Zm0-5.99c-1.11,0-2.01,.9-2.01,2.01s.9,2.01,2.01,2.01,2.01-.9,2.01-2.01-.9-2.01-2.01-2.01Z"/><path class="b" d="M386.65,124.37c-2.2,0-3.99-1.79-3.99-3.99s1.79-3.99,3.99-3.99,3.99,1.79,3.99,3.99-1.79,3.99-3.99,3.99Zm0-5.99c-1.11,0-2.01,.9-2.01,2.01s.9,2.01,2.01,2.01,2.01-.9,2.01-2.01-.9-2.01-2.01-2.01Z"/><path class="b" d="M400.41,157.46c-2.2,0-3.99-1.79-3.99-3.99s1.79-3.99,3.99-3.99,3.99,1.79,3.99,3.99-1.79,3.99-3.99,3.99Zm0-5.99c-1.11,0-2.01,.9-2.01,2.01s.9,2.01,2.01,2.01,2.01-.9,2.01-2.01-.9-2.01-2.01-2.01Z"/><path class="b" d="M400.41,168.11c-2.2,0-3.99-1.79-3.99-3.99s1.79-3.99,3.99-3.99,3.99,1.79,3.99,3.99-1.79,3.99-3.99,3.99Zm0-5.99c-1.11,0-2.01,.9-2.01,2.01s.9,2.01,2.01,2.01,2.01-.9,2.01-2.01-.9-2.01-2.01-2.01Z"/><path class="b" d="M224.49,203.71c-2.2,0-3.99-1.79-3.99-3.99s1.79-3.99,3.99-3.99,3.99,1.79,3.99,3.99-1.79,3.99-3.99,3.99Zm0-5.99c-1.11,0-2.01,.9-2.01,2.01s.9,2.01,2.01,2.01,2.01-.9,2.01-2.01-.9-2.01-2.01-2.01Z"/><path class="b" d="M224.49,213.09c-2.2,0-3.99-1.79-3.99-3.99s1.79-3.99,3.99-3.99,3.99,1.79,3.99,3.99-1.79,3.99-3.99,3.99Zm0-5.99c-1.11,0-2.01,.9-2.01,2.01s.9,2.01,2.01,2.01,2.01-.9,2.01-2.01-.9-2.01-2.01-2.01Z"/><path class="b" d="M224.49,223.09c-2.2,0-3.99-1.79-3.99-3.99s1.79-3.99,3.99-3.99,3.99,1.79,3.99,3.99-1.79,3.99-3.99,3.99Zm0-5.99c-1.11,0-2.01,.9-2.01,2.01s.9,2.01,2.01,2.01,2.01-.9,2.01-2.01-.9-2.01-2.01-2.01Z"/><path class="b" d="M227.49,180.25c-2.2,0-3.99-1.79-3.99-3.99s1.79-3.99,3.99-3.99,3.99,1.79,3.99,3.99-1.79,3.99-3.99,3.99Zm0-5.99c-1.11,0-2.01,.9-2.01,2.01s.9,2.01,2.01,2.01,2.01-.9,2.01-2.01-.9-2.01-2.01-2.01Z"/><path class="d" d="M147.19,347.23h-5.94v-97.19c0-3.12-3.56-5.75-7.76-5.75h-16.22v-5.94h16.22c7.56,0,13.7,5.25,13.7,11.69v97.19Z"/><path class="d" d="M65.67,278c-6.43,0-11.67-5.23-11.67-11.67s5.23-11.67,11.67-11.67,11.67,5.24,11.67,11.67-5.23,11.67-11.67,11.67Zm0-17.4c-3.16,0-5.73,2.57-5.73,5.73s2.57,5.73,5.73,5.73,5.73-2.57,5.73-5.73-2.57-5.73-5.73-5.73Z"/><path class="d" d="M59.62,166.01c-6.43,0-11.67-5.23-11.67-11.67s5.23-11.67,11.67-11.67,11.67,5.24,11.67,11.67-5.23,11.67-11.67,11.67Zm0-17.4c-3.16,0-5.73,2.57-5.73,5.73s2.57,5.73,5.73,5.73,5.73-2.57,5.73-5.73-2.57-5.73-5.73-5.73Z"/><path class="d" d="M167.67,87.09c-6.43,0-11.67-5.23-11.67-11.67s5.23-11.67,11.67-11.67,11.67,5.23,11.67,11.67-5.23,11.67-11.67,11.67Zm0-17.4c-3.16,0-5.73,2.57-5.73,5.73s2.57,5.73,5.73,5.73,5.73-2.57,5.73-5.73-2.57-5.73-5.73-5.73Z"/><path class="d" d="M139.45,201.57c-6.43,0-11.67-5.23-11.67-11.67s5.23-11.67,11.67-11.67,11.67,5.24,11.67,11.67-5.23,11.67-11.67,11.67Zm0-17.4c-3.16,0-5.73,2.57-5.73,5.73s2.57,5.73,5.73,5.73,5.73-2.57,5.73-5.73-2.57-5.73-5.73-5.73Z"/><polygon class="b" points="124.85 129.15 122.87 129.15 122.87 75 140.03 58.45 140.03 46.33 142.01 46.33 142.01 59.29 124.85 75.84 124.85 129.15"/><path class="b" d="M141.01,47.03c-2.2,0-3.99-1.79-3.99-3.99s1.79-3.99,3.99-3.99,3.99,1.79,3.99,3.99-1.79,3.99-3.99,3.99Zm0-5.99c-1.11,0-2.01,.9-2.01,2.01s.9,2.01,2.01,2.01,2.01-.9,2.01-2.01-.9-2.01-2.01-2.01Z"/><polygon class="b" points="114.78 129.15 112.8 129.15 112.8 75 129.96 58.45 129.96 46.33 131.94 46.33 131.94 59.29 114.78 75.84 114.78 129.15"/><path class="b" d="M130.94,47.03c-2.2,0-3.99-1.79-3.99-3.99s1.79-3.99,3.99-3.99,3.99,1.79,3.99,3.99-1.79,3.99-3.99,3.99Zm0-5.99c-1.11,0-2.01,.9-2.01,2.01s.9,2.01,2.01,2.01,2.01-.9,2.01-2.01-.9-2.01-2.01-2.01Z"/><path class="b" d="M97.14,79.89c-2.2,0-3.99-1.79-3.99-3.99s1.79-3.99,3.99-3.99,3.99,1.79,3.99,3.99-1.79,3.99-3.99,3.99Zm0-5.99c-1.11,0-2.01,.9-2.01,2.01s.9,2.01,2.01,2.01,2.01-.9,2.01-2.01-.9-2.01-2.01-2.01Z"/><path class="b" d="M186.34,44.03c-2.2,0-3.99-1.79-3.99-3.99s1.79-3.99,3.99-3.99,3.99,1.79,3.99,3.99-1.79,3.99-3.99,3.99Zm0-5.99c-1.11,0-2.01,.9-2.01,2.01s.9,2.01,2.01,2.01,2.01-.9,2.01-2.01-.9-2.01-2.01-2.01Z"/><path class="b" d="M260.12,44.03c-2.2,0-3.99-1.79-3.99-3.99s1.79-3.99,3.99-3.99,3.99,1.79,3.99,3.99-1.79,3.99-3.99,3.99Zm0-5.99c-1.11,0-2.01,.9-2.01,2.01s.9,2.01,2.01,2.01,2.01-.9,2.01-2.01-.9-2.01-2.01-2.01Z"/><path class="b" d="M269.33,44.03c-2.2,0-3.99-1.79-3.99-3.99s1.79-3.99,3.99-3.99,3.99,1.79,3.99,3.99-1.79,3.99-3.99,3.99Zm0-5.99c-1.11,0-2.01,.9-2.01,2.01s.9,2.01,2.01,2.01,2.01-.9,2.01-2.01-.9-2.01-2.01-2.01Z"/><path class="b" d="M277.5,56.02c-2.2,0-3.99-1.79-3.99-3.99s1.79-3.99,3.99-3.99,3.99,1.79,3.99,3.99-1.79,3.99-3.99,3.99Zm0-5.99c-1.11,0-2.01,.9-2.01,2.01s.9,2.01,2.01,2.01,2.01-.9,2.01-2.01-.9-2.01-2.01-2.01Z"/><path class="b" d="M286.21,56.02c-2.2,0-3.99-1.79-3.99-3.99s1.79-3.99,3.99-3.99,3.99,1.79,3.99,3.99-1.79,3.99-3.99,3.99Zm0-5.99c-1.11,0-2.01,.9-2.01,2.01s.9,2.01,2.01,2.01,2.01-.9,2.01-2.01-.9-2.01-2.01-2.01Z"/><path class="b" d="M219,42.33c-2.2,0-3.99-1.79-3.99-3.99s1.79-3.99,3.99-3.99,3.99,1.79,3.99,3.99-1.79,3.99-3.99,3.99Zm0-5.99c-1.11,0-2.01,.9-2.01,2.01s.9,2.01,2.01,2.01,2.01-.9,2.01-2.01-.9-2.01-2.01-2.01Z"/><path class="b" d="M226.61,50.02c-2.2,0-3.99-1.79-3.99-3.99s1.79-3.99,3.99-3.99,3.99,1.79,3.99,3.99-1.79,3.99-3.99,3.99Zm0-5.99c-1.11,0-2.01,.9-2.01,2.01s.9,2.01,2.01,2.01,2.01-.9,2.01-2.01-.9-2.01-2.01-2.01Z"/><path class="b" d="M166.26,224.95c-2.2,0-3.99-1.79-3.99-3.99s1.79-3.99,3.99-3.99,3.99,1.79,3.99,3.99-1.79,3.99-3.99,3.99Zm0-5.99c-1.11,0-2.01,.9-2.01,2.01s.9,2.01,2.01,2.01,2.01-.9,2.01-2.01-.9-2.01-2.01-2.01Z"/><path class="b" d="M155.06,213.79c-2.2,0-3.99-1.79-3.99-3.99s1.79-3.99,3.99-3.99,3.99,1.79,3.99,3.99-1.79,3.99-3.99,3.99Zm0-5.99c-1.11,0-2.01,.9-2.01,2.01s.9,2.01,2.01,2.01,2.01-.9,2.01-2.01-.9-2.01-2.01-2.01Z"/><path class="b" d="M130.75,213.79c-2.2,0-3.99-1.79-3.99-3.99s1.79-3.99,3.99-3.99,3.99,1.79,3.99,3.99-1.79,3.99-3.99,3.99Zm0-5.99c-1.11,0-2.01,.9-2.01,2.01s.9,2.01,2.01,2.01,2.01-.9,2.01-2.01-.9-2.01-2.01-2.01Z"/><path class="b" d="M148.15,175.39c-2.2,0-3.99-1.79-3.99-3.99s1.79-3.99,3.99-3.99,3.99,1.79,3.99,3.99-1.79,3.99-3.99,3.99Zm0-5.99c-1.11,0-2.01,.9-2.01,2.01s.9,2.01,2.01,2.01,2.01-.9,2.01-2.01-.9-2.01-2.01-2.01Z"/><path class="b" d="M134.99,175.39c-2.2,0-3.99-1.79-3.99-3.99s1.79-3.99,3.99-3.99,3.99,1.79,3.99,3.99-1.79,3.99-3.99,3.99Zm0-5.99c-1.11,0-2.01,.9-2.01,2.01s.9,2.01,2.01,2.01,2.01-.9,2.01-2.01-.9-2.01-2.01-2.01Z"/><path class="b" d="M111.87,172.78c-2.2,0-3.99-1.79-3.99-3.99s1.79-3.99,3.99-3.99,3.99,1.79,3.99,3.99-1.79,3.99-3.99,3.99Zm0-5.99c-1.11,0-2.01,.9-2.01,2.01s.9,2.01,2.01,2.01,2.01-.9,2.01-2.01-.9-2.01-2.01-2.01Z"/><path class="b" d="M39.78,180.25c-2.2,0-3.99-1.79-3.99-3.99s1.79-3.99,3.99-3.99,3.99,1.79,3.99,3.99-1.79,3.99-3.99,3.99Zm0-5.99c-1.11,0-2.01,.9-2.01,2.01s.9,2.01,2.01,2.01,2.01-.9,2.01-2.01-.9-2.01-2.01-2.01Z"/><path class="b" d="M39.78,192.47c-2.2,0-3.99-1.79-3.99-3.99s1.79-3.99,3.99-3.99,3.99,1.79,3.99,3.99-1.79,3.99-3.99,3.99Zm0-5.99c-1.11,0-2.01,.9-2.01,2.01s.9,2.01,2.01,2.01,2.01-.9,2.01-2.01-.9-2.01-2.01-2.01Z"/><path class="b" d="M39.78,206.16c-2.2,0-3.99-1.79-3.99-3.99s1.79-3.99,3.99-3.99,3.99,1.79,3.99,3.99-1.79,3.99-3.99,3.99Zm0-5.99c-1.11,0-2.01,.9-2.01,2.01s.9,2.01,2.01,2.01,2.01-.9,2.01-2.01-.9-2.01-2.01-2.01Z"/><path class="b" d="M119.56,183.25c-2.2,0-3.99-1.79-3.99-3.99s1.79-3.99,3.99-3.99,3.99,1.79,3.99,3.99-1.79,3.99-3.99,3.99Zm0-5.99c-1.11,0-2.01,.9-2.01,2.01s.9,2.01,2.01,2.01,2.01-.9,2.01-2.01-.9-2.01-2.01-2.01Z"/><path class="b" d="M42.78,239.32c-2.2,0-3.99-1.79-3.99-3.99s1.79-3.99,3.99-3.99,3.99,1.79,3.99,3.99-1.79,3.99-3.99,3.99Zm0-5.99c-1.11,0-2.01,.9-2.01,2.01s.9,2.01,2.01,2.01,2.01-.9,2.01-2.01-.9-2.01-2.01-2.01Z"/><path class="b" d="M53.92,248.27c-2.2,0-3.99-1.79-3.99-3.99s1.79-3.99,3.99-3.99,3.99,1.79,3.99,3.99-1.79,3.99-3.99,3.99Zm0-5.99c-1.11,0-2.01,.9-2.01,2.01s.9,2.01,2.01,2.01,2.01-.9,2.01-2.01-.9-2.01-2.01-2.01Z"/><path class="b" d="M107.31,298.26c-2.2,0-3.99-1.79-3.99-3.99s1.79-3.99,3.99-3.99,3.99,1.79,3.99,3.99-1.79,3.99-3.99,3.99Zm0-5.99c-1.11,0-2.01,.9-2.01,2.01s.9,2.01,2.01,2.01,2.01-.9,2.01-2.01-.9-2.01-2.01-2.01Z"/><path class="b" d="M132.11,315.28c-2.2,0-3.99-1.79-3.99-3.99s1.79-3.99,3.99-3.99,3.99,1.79,3.99,3.99-1.79,3.99-3.99,3.99Zm0-5.99c-1.11,0-2.01,.9-2.01,2.01s.9,2.01,2.01,2.01,2.01-.9,2.01-2.01-.9-2.01-2.01-2.01Z"/><path class="b" d="M155.33,295.75c-2.2,0-3.99-1.79-3.99-3.99s1.79-3.99,3.99-3.99,3.99,1.79,3.99,3.99-1.79,3.99-3.99,3.99Zm0-5.99c-1.11,0-2.01,.9-2.01,2.01s.9,2.01,2.01,2.01,2.01-.9,2.01-2.01-.9-2.01-2.01-2.01Z"/><path class="b" d="M166.25,254.27c-2.2,0-3.99-1.79-3.99-3.99s1.79-3.99,3.99-3.99,3.99,1.79,3.99,3.99-1.79,3.99-3.99,3.99Zm0-5.99c-1.11,0-2.01,.9-2.01,2.01s.9,2.01,2.01,2.01,2.01-.9,2.01-2.01-.9-2.01-2.01-2.01Z"/><path class="b" d="M158.33,175.39c-2.2,0-3.99-1.79-3.99-3.99s1.79-3.99,3.99-3.99,3.99,1.79,3.99,3.99-1.79,3.99-3.99,3.99Zm0-5.99c-1.11,0-2.01,.9-2.01,2.01s.9,2.01,2.01,2.01,2.01-.9,2.01-2.01-.9-2.01-2.01-2.01Z"/><path class="b" d="M176.33,224.95c-2.2,0-3.99-1.79-3.99-3.99s1.79-3.99,3.99-3.99,3.99,1.79,3.99,3.99-1.79,3.99-3.99,3.99Zm0-5.99c-1.11,0-2.01,.9-2.01,2.01s.9,2.01,2.01,2.01,2.01-.9,2.01-2.01-.9-2.01-2.01-2.01Z"/><polygon class="b" points="263.55 100 235.35 100 225.91 90.56 227.31 89.16 236.17 98.02 263.55 98.02 263.55 100"/><polygon class="b" points="225.48 159.09 223.5 159.09 223.5 102.8 263.55 102.8 263.55 104.78 225.48 104.78 225.48 159.09"/><polygon class="b" points="234.27 159.09 232.29 159.09 232.29 109.55 263.55 109.55 263.55 111.53 234.27 111.53 234.27 159.09"/><polygon class="b" points="243.46 159.12 241.48 159.12 241.48 116.45 263.55 116.45 263.55 118.43 243.46 118.43 243.46 159.12"/><polygon class="b" points="254 177.26 230.35 177.26 230.35 175.28 252.02 175.28 252.02 123.86 261.77 123.86 261.77 125.84 254 125.84 254 177.26"/><polygon class="b" points="228.05 199.24 226.92 197.62 243.71 185.89 287.51 185.89 287.51 187.87 244.33 187.87 228.05 199.24"/><polygon class="b" points="228.05 208.32 226.92 206.7 243.71 194.97 287.51 194.97 287.51 196.95 244.33 196.95 228.05 208.32"/><polygon class="b" points="227.99 217.52 226.85 215.9 243.64 204.18 287.44 204.18 287.44 206.16 244.27 206.16 227.99 217.52"/><polygon class="b" points="146.61 130.33 144.63 130.33 144.63 98.02 185.35 98.02 185.35 43.04 187.33 43.04 187.33 100 146.61 100 146.61 130.33"/><polygon class="b" points="153.49 131.44 151.51 131.44 151.51 104.99 193.65 104.99 193.65 57.09 216.53 39.27 217.75 40.83 195.63 58.05 195.63 106.97 153.49 106.97 153.49 131.44"/><polygon class="b" points="162.15 132.16 160.17 132.16 160.17 111.27 202.31 111.27 202.31 63.37 224.03 46.71 225.24 48.28 204.29 64.35 204.29 113.25 162.15 113.25 162.15 132.16"/><polygon class="b" points="219.99 78.9 218.01 78.9 218.01 61.51 259.13 61.51 259.13 43.04 261.11 43.04 261.11 63.49 219.99 63.49 219.99 78.9"/><polygon class="b" points="229.22 78.9 227.24 78.9 227.24 67.12 268.34 67.12 268.34 43.04 270.32 43.04 270.32 69.1 229.22 69.1 229.22 78.9"/><polygon class="b" points="343.74 135.28 341.76 135.28 341.76 114.93 301.5 89.05 263.55 89.05 263.55 87.07 302.08 87.07 302.32 87.23 343.74 113.85 343.74 135.28"/><polygon class="b" points="334.45 135.28 332.47 135.28 332.47 118.69 298.51 98.23 264.95 98.23 264.95 96.25 299.06 96.25 334.45 117.58 334.45 135.28"/><polygon class="b" points="284.21 162.41 282.23 162.41 282.23 140.15 263.55 140.15 263.55 138.17 284.21 138.17 284.21 162.41"/><polygon class="b" points="275.1 162.55 273.12 162.55 273.12 145.39 264.95 145.39 264.95 143.41 275.1 143.41 275.1 162.55"/><rect class="b" x="265.73" y="104.44" width="30.35" height="1.98"/><rect class="b" x="265.73" y="113.4" width="30.35" height="1.98"/><rect class="b" x="298.17" y="179.07" width="1.98" height="46.19"/><polygon class="b" points="386.57 215.45 373.84 202.72 323.11 202.72 323.11 179.41 325.09 179.41 325.09 200.75 374.66 200.75 387.97 214.05 386.57 215.45"/><polygon class="b" points="376.08 223.61 365.4 212.93 314.67 212.93 314.67 180.72 316.65 180.72 316.65 210.95 366.22 210.95 377.48 222.21 376.08 223.61"/><rect class="b" x="307" y="179.41" width="1.98" height="45.95"/><polygon class="b" points="367.88 132.02 337.64 102.24 337.64 63.6 300.69 63.6 300.69 80.16 298.71 80.16 298.71 61.62 339.62 61.62 339.62 101.41 369.27 130.61 367.88 132.02"/><polygon class="b" points="373.79 126.55 345.13 97.66 345.13 58.39 294.76 58.39 294.76 81.71 292.78 81.71 292.78 56.41 347.11 56.41 347.11 96.84 375.2 125.16 373.79 126.55"/><polygon class="b" points="337.45 181.67 335.47 181.67 335.47 163.14 398.03 163.14 398.03 165.12 337.45 165.12 337.45 181.67"/><polygon class="b" points="330.4 179.07 328.42 179.07 328.42 152.48 398.03 152.48 398.03 154.46 330.4 154.46 330.4 179.07"/><polygon class="b" points="316.18 169.78 289.51 169.78 289.51 131.32 263.55 131.32 263.55 129.34 291.49 129.34 291.49 167.8 316.18 167.8 316.18 169.78"/><polygon class="b" points="378.83 146.63 323.11 146.63 323.11 124.03 302.16 124.03 302.16 122.05 325.09 122.05 325.09 144.65 378.83 144.65 378.83 146.63"/><rect class="b" x="276.51" y="54.69" width="1.98" height="24.21"/><rect class="b" x="285.22" y="54.69" width="1.98" height="24.21"/><rect class="b" x="371" y="88.08" width="1.98" height="36" transform="translate(33.95 294.11) rotate(-45)"/><polygon class="b" points="159.32 169.94 157.34 169.94 157.34 145.39 101.32 145.39 101.32 143.41 159.32 143.41 159.32 169.94"/><polygon class="b" points="149.45 170.04 147.47 170.04 147.47 152.48 98.24 152.48 98.24 150.5 149.45 150.5 149.45 170.04"/><polygon class="b" points="112.86 210.09 101.32 210.09 101.32 208.11 110.89 208.11 110.89 171.79 112.86 171.79 112.86 210.09"/><polygon class="b" points="120.55 216.94 101.32 216.94 101.32 214.96 118.57 214.96 118.57 181.2 120.55 181.2 120.55 216.94"/><polygon class="b" points="135.98 168.4 134 168.4 134 160.11 101.32 160.11 101.32 158.13 135.98 158.13 135.98 168.4"/><polygon class="b" points="86.3 187 84.32 187 84.32 127.58 96.15 115.75 96.15 78.9 98.13 78.9 98.13 116.57 86.3 128.4 86.3 187"/><path class="b" d="M86.25,79.89c-2.2,0-3.99-1.79-3.99-3.99s1.79-3.99,3.99-3.99,3.99,1.79,3.99,3.99-1.79,3.99-3.99,3.99Zm0-5.99c-1.11,0-2.01,.9-2.01,2.01s.9,2.01,2.01,2.01,2.01-.9,2.01-2.01-.9-2.01-2.01-2.01Z"/><polygon class="b" points="75.42 187 73.44 187 73.44 127.58 85.26 115.75 85.26 78.9 87.24 78.9 87.24 116.57 75.42 128.4 75.42 187"/><polygon class="b" points="98.24 202.83 63.54 202.83 40.45 179.74 41.85 178.34 64.36 200.86 98.24 200.86 98.24 202.83"/><polygon class="b" points="98.24 214.24 63.54 214.24 40.45 191.14 41.85 189.74 64.36 212.26 98.24 212.26 98.24 214.24"/><polygon class="b" points="98.24 227.3 63.54 227.3 40.45 204.21 41.85 202.81 64.36 225.32 98.24 225.32 98.24 227.3"/><rect class="b" x="46" y="234.35" width="55.32" height="1.98"/><rect class="b" x="56.97" y="243.3" width="44.35" height="1.98"/><rect class="b" x="131.12" y="243.71" width="1.98" height="64.58"/><polygon class="b" points="110.07 292.46 108.67 291.06 118.57 281.16 118.57 241.31 120.55 241.31 120.55 281.98 110.07 292.46"/><polygon class="b" points="156.32 288.77 154.34 288.77 154.34 226.35 101.32 226.35 101.32 224.37 156.32 224.37 156.32 288.77"/><rect class="b" x="133.74" y="208.81" width="19.23" height="1.98"/><path class="b" d="M72.74,109.46c-1.06,0-2.07-.41-2.82-1.17-.75-.75-1.17-1.75-1.17-2.82s.41-2.07,1.17-2.82,1.75-1.17,2.82-1.17,2.07,.41,2.82,1.17c1.55,1.55,1.55,4.08,0,5.64-.75,.75-1.75,1.17-2.82,1.17Zm0-5.99c-.54,0-1.04,.21-1.42,.59-.38,.38-.59,.88-.59,1.42s.21,1.04,.59,1.42c.76,.76,2.08,.76,2.84,0,.78-.78,.78-2.05,0-2.84-.38-.38-.88-.59-1.42-.59Z"/><path class="b" d="M55.55,126.65c-1.06,0-2.07-.41-2.82-1.17-.75-.75-1.17-1.75-1.17-2.82s.41-2.07,1.17-2.82,1.75-1.17,2.82-1.17,2.07,.41,2.82,1.17c1.55,1.55,1.55,4.08,0,5.64-.75,.75-1.75,1.17-2.82,1.17Zm0-5.99c-.54,0-1.04,.21-1.42,.59s-.59,.88-.59,1.42,.21,1.04,.59,1.42c.76,.76,2.08,.76,2.84,0,.38-.38,.59-.88,.59-1.42s-.21-1.04-.59-1.42-.88-.59-1.42-.59Z"/><rect class="b" x="54.85" y="112.76" width="19.23" height="1.98" transform="translate(-61.55 78.9) rotate(-45)"/><path class="b" d="M255.13,250.91c-1.06,0-2.07-.41-2.82-1.17-.75-.75-1.17-1.75-1.17-2.82s.41-2.07,1.17-2.82c.75-.75,1.75-1.17,2.82-1.17s2.07,.41,2.82,1.17c.75,.75,1.17,1.75,1.17,2.82s-.41,2.07-1.17,2.82-1.75,1.17-2.82,1.17Zm0-5.99c-.54,0-1.04,.21-1.42,.59-.38,.38-.59,.88-.59,1.42s.21,1.04,.59,1.42c.76,.76,2.08,.76,2.84,0,.38-.38,.59-.88,.59-1.42s-.21-1.04-.59-1.42-.88-.59-1.42-.59Z"/><path class="b" d="M237.94,233.72c-1.06,0-2.07-.41-2.82-1.17-.75-.75-1.17-1.75-1.17-2.82s.41-2.07,1.17-2.82,1.75-1.17,2.82-1.17,2.07,.41,2.82,1.17c.75,.75,1.17,1.75,1.17,2.82s-.41,2.07-1.17,2.82c-.75,.75-1.75,1.17-2.82,1.17Zm0-5.99c-.54,0-1.04,.21-1.42,.59-.38,.38-.59,.88-.59,1.42s.21,1.04,.59,1.42c.76,.76,2.08,.76,2.84,0,.38-.38,.59-.88,.59-1.42s-.21-1.04-.59-1.42-.88-.59-1.42-.59Z"/><rect class="b" x="245.87" y="229.04" width="1.98" height="19.23" transform="translate(-96.45 244.46) rotate(-45)"/><path class="b" d="M382.98,188.07c-1.06,0-2.07-.41-2.82-1.17-1.55-1.55-1.55-4.08,0-5.64,.75-.75,1.75-1.17,2.82-1.17s2.07,.41,2.82,1.17c1.55,1.55,1.55,4.08,0,5.64-.75,.75-1.75,1.17-2.82,1.17Zm0-5.99c-.54,0-1.04,.21-1.42,.59-.78,.78-.78,2.05,0,2.84s2.08,.76,2.84,0c.78-.78,.78-2.05,0-2.84-.38-.38-.88-.59-1.42-.59Z"/><path class="b" d="M400.52,205.6c-1.06,0-2.07-.41-2.82-1.17-.75-.75-1.17-1.75-1.17-2.82s.41-2.07,1.17-2.82,1.75-1.17,2.82-1.17,2.07,.41,2.82,1.17c.75,.75,1.17,1.75,1.17,2.82s-.41,2.07-1.17,2.82-1.75,1.17-2.82,1.17Zm0-5.99c-.54,0-1.04,.21-1.42,.59-.38,.38-.59,.88-.59,1.42s.21,1.04,.59,1.42c.76,.76,2.08,.76,2.84,0,.38-.38,.59-.88,.59-1.42s-.21-1.04-.59-1.42-.88-.59-1.42-.59Z"/><rect class="b" x="390.91" y="183.39" width="1.98" height="19.23" transform="translate(-21.69 333.64) rotate(-45)"/><path class="b" d="M175.42,56.02c-2.2,0-3.99-1.79-3.99-3.99s1.79-3.99,3.99-3.99,3.99,1.79,3.99,3.99-1.79,3.99-3.99,3.99Zm0-5.99c-1.11,0-2.01,.9-2.01,2.01s.9,2.01,2.01,2.01,2.01-.9,2.01-2.01-.9-2.01-2.01-2.01Z"/><path class="b" d="M151.11,56.02c-2.2,0-3.99-1.79-3.99-3.99s1.79-3.99,3.99-3.99,3.99,1.79,3.99,3.99-1.79,3.99-3.99,3.99Zm0-5.99c-1.11,0-2.01,.9-2.01,2.01s.9,2.01,2.01,2.01,2.01-.9,2.01-2.01-.9-2.01-2.01-2.01Z"/><rect class="b" x="154.1" y="51.04" width="19.23" height="1.98"/><g><path class="d" d="M126.91,244.28h-16.22c-7.56,0-13.7-5.25-13.7-11.69v-82.6h5.94v82.6c0,3.12,3.56,5.75,7.76,5.75h16.22v5.94Z"/><path class="d" d="M89.22,269.3h-16.22v-5.94h16.22c4.21,0,7.76-2.63,7.76-5.75v-82.6h5.94v82.6c0,6.45-6.15,11.69-13.7,11.69Z"/><path class="d" d="M99.96,191.45h-31.61c-6.45,0-11.69-6.15-11.69-13.7v-16.22h5.94v16.22c0,4.21,2.64,7.76,5.75,7.76h31.61v5.94Z"/><path class="d" d="M137.96,132.16h-5.94v-48.02c0-6.45,6.15-11.69,13.7-11.69h16.22v5.94h-16.22c-4.21,0-7.76,2.64-7.76,5.75v48.02Z"/><path class="d" d="M161.71,192.87h-16.22v-5.94h16.22c4.21,0,7.76-2.63,7.76-5.75v-48.02h5.94v48.02c0,6.45-6.15,11.69-13.7,11.69Z"/><path class="d" d="M279.77,226.99h-16.22v-5.94h16.22c4.21,0,7.76-2.63,7.76-5.75v-35.89h5.94v35.89c0,6.45-6.15,11.69-13.7,11.69Z"/><path class="d" d="M311.13,141.72h-5.94v-7.95c0-4.21-2.63-7.76-5.75-7.76h-35.89v-5.94h35.89c6.45,0,11.69,6.15,11.69,13.7v7.95Z"/><path class="d" d="M202.56,135.13h-16.22v-5.94h16.22c4.21,0,7.76-2.63,7.76-5.75v-23.28h5.94v23.28c0,6.45-6.15,11.69-13.7,11.69Z"/><path class="d" d="M216.26,110.9h-5.94v-23.28c0-6.45,6.15-11.69,13.7-11.69h89.78v5.94h-89.78c-4.21,0-7.77,2.63-7.77,5.75v23.28Z"/><path class="d" d="M322.51,90.57c-6.43,0-11.67-5.23-11.67-11.67s5.24-11.67,11.67-11.67,11.67,5.23,11.67,11.67-5.24,11.67-11.67,11.67Zm0-17.4c-3.16,0-5.73,2.57-5.73,5.73s2.57,5.73,5.73,5.73,5.73-2.57,5.73-5.73-2.57-5.73-5.73-5.73Z"/><path class="d" d="M307.48,162.09c-6.43,0-11.67-5.24-11.67-11.67s5.24-11.67,11.67-11.67,11.67,5.23,11.67,11.67-5.24,11.67-11.67,11.67Zm0-17.4c-3.16,0-5.73,2.57-5.73,5.73s2.57,5.73,5.73,5.73,5.73-2.57,5.73-5.73-2.57-5.73-5.73-5.73Z"/><path class="d" d="M355.81,191.08c-6.43,0-11.67-5.24-11.67-11.67s5.24-11.67,11.67-11.67,11.67,5.24,11.67,11.67-5.24,11.67-11.67,11.67Zm0-17.4c-3.16,0-5.73,2.57-5.73,5.73s2.57,5.73,5.73,5.73,5.73-2.57,5.73-5.73-2.57-5.73-5.73-5.73Z"/><path class="d" d="M257.96,235.82c-6.43,0-11.67-5.24-11.67-11.67s5.23-11.67,11.67-11.67,11.67,5.24,11.67,11.67-5.24,11.67-11.67,11.67Zm0-17.4c-3.16,0-5.73,2.57-5.73,5.73s2.57,5.73,5.73,5.73,5.73-2.57,5.73-5.73-2.57-5.73-5.73-5.73Z"/><path class="d" d="M347.11,182.38h-74.84c-6.45,0-11.69-6.15-11.69-13.7V78.9h5.94v89.78c0,4.21,2.63,7.76,5.75,7.76h74.84v5.94Z"/><path class="d" d="M102.93,159.12h-5.94v-16.22c0-7.56,5.25-13.7,11.69-13.7h82.6v5.94H108.68c-3.12,0-5.75,3.56-5.75,7.76v16.22Z"/></g></svg>