<?xml version="1.0" encoding="UTF-8"?><svg id="a" xmlns="http://www.w3.org/2000/svg" viewBox="0 0 426 426"><path d="M8.86,215.59c2.07,2.55,3.94,5.3,6.25,7.62,29.5,29.59,59.05,59.12,88.6,88.66,4.48,4.48,9.41,5.13,13.47,1.86,3.91-3.15,4.69-8.38,1.71-12.42-1.18-1.59-2.6-3.02-4.01-4.43-23.42-23.44-46.84-46.87-70.29-70.27-1.02-1.02-2.28-1.8-3.43-2.69l.56-1.32c1.62,0,3.24,0,4.87,0,119.09,0,238.18,0,357.26-.02,2.24,0,4.53-.12,6.72-.57,4.19-.87,7.16-4.82,7.03-8.97-.13-4.07-3.03-7.78-7.04-8.58-2.19-.44-4.48-.54-6.73-.54-118.95-.02-237.91-.02-356.86-.02h-6.12c1.74-1.84,2.75-2.97,3.82-4.04,23.97-24.01,47.94-48.03,71.94-72.01,3.23-3.23,5.22-6.73,3.4-11.41-2.11-5.41-8.82-7.54-13.55-4.2-1.62,1.14-3.03,2.6-4.44,4-28.99,28.96-57.99,57.92-86.92,86.95-2.31,2.31-4.17,5.07-6.23,7.62v4.79Z"/></svg>