<?xml version="1.0" encoding="utf-8"?>
<!-- Generator: Adobe Illustrator 26.2.1, SVG Export Plug-In . SVG Version: 6.00 Build 0)  -->
<svg version="1.1" id="Layer_1" xmlns="http://www.w3.org/2000/svg" xmlns:xlink="http://www.w3.org/1999/xlink" x="0px" y="0px"
	 viewBox="0 0 347.6 305.2" style="enable-background:new 0 0 347.6 305.2;" xml:space="preserve">
<style type="text/css">
	.st0{opacity:0.4;fill:none;stroke:#F97233;stroke-width:0.75;stroke-linejoin:round;enable-background:new    ;}
	.st1{fill:#F97233;}
	.st2{fill:#F97233;stroke:#FFFFFF;stroke-width:0.75;stroke-linejoin:round;}
	.st3{fill:url(#SVGID_1_);stroke:#FFFFFF;stroke-width:0.75;stroke-linejoin:round;}
	.st4{opacity:0.5;}
	.st5{fill:none;stroke:#8AA9FF;stroke-width:5;stroke-linecap:round;stroke-linejoin:round;stroke-dasharray:0,0,0.1,20.34;}
	.st6{opacity:0.2;fill:#FFFFFF;enable-background:new    ;}
	.st7{fill:#FFFFFF;}
	.st8{opacity:0.1;fill:url(#SVGID_00000106850185276228995920000000175988289887388316_);enable-background:new    ;}
</style>
<g>
	<g id="a">
		<g>
			<g>
				<g>
					<g>
						<g>
							<polyline class="st0" points="205.9,144.7 243.5,144.7 260.8,171.5 299.5,171.5 							"/>
							<polyline class="st0" points="266.7,171.9 288.8,193.9 311.5,193.9 							"/>
							<path class="st1" d="M315.8,193.9c0,1.6-1.3,2.9-2.9,2.9s-2.9-1.3-2.9-2.9s1.3-2.9,2.9-2.9S315.8,192.3,315.8,193.9z"/>
							<path class="st1" d="M302.4,171.9c0,1.6-1.3,2.9-2.9,2.9s-2.9-1.3-2.9-2.9s1.3-2.9,2.9-2.9S302.4,170.3,302.4,171.9z"/>
						</g>
						<g>
							<polyline class="st0" points="205.9,171.5 275.3,171.5 292.5,151.3 318.6,151.3 							"/>
							<path class="st1" d="M320.5,151.6c0,1.1-0.9,1.9-1.9,1.9s-1.9-0.9-1.9-1.9s0.9-1.9,1.9-1.9S320.5,150.6,320.5,151.6z"/>
						</g>
						<g>
							<polyline class="st0" points="205.9,119.2 275.3,119.2 292.5,94.6 318.6,94.6 							"/>
							<polyline class="st0" points="262.2,119.2 284.3,141.2 307,141.2 							"/>
							<path class="st1" d="M323.4,94.6c0,1.6-1.3,2.9-2.9,2.9s-2.9-1.3-2.9-2.9s1.3-2.9,2.9-2.9S323.4,93,323.4,94.6z"/>
							<circle class="st1" cx="307" cy="141.2" r="1.9"/>
						</g>
					</g>
					<g>
						<g>
							<path class="st1" d="M134.6,29.9c0-1.6,1.3-2.9,2.9-2.9s2.9,1.3,2.9,2.9s-1.3,2.9-2.9,2.9S134.6,31.5,134.6,29.9z"/>
							<path class="st1" d="M156.9,56.3c0-1.6,1.3-2.9,2.9-2.9s2.9,1.3,2.9,2.9s-1.3,2.9-2.9,2.9S156.9,57.9,156.9,56.3z"/>
							<polyline class="st0" points="142.6,104.9 142.6,73.6 159.8,56.3 							"/>
							<polyline class="st0" points="152.6,63.5 137.4,48.3 137.4,29.9 							"/>
						</g>
						<g>
							<path class="st1" d="M161.1,24.2c0-1.6,1.3-2.9,2.9-2.9s2.9,1.3,2.9,2.9s-1.3,2.9-2.9,2.9S161.1,25.8,161.1,24.2z"/>
							<circle class="st1" cx="188.8" cy="22.8" r="2"/>
							<polyline class="st0" points="168.8,104.9 168.8,42.9 188.8,22.8 							"/>
							<line class="st0" x1="175.4" y1="36.2" x2="164.5" y2="25.3"/>
						</g>
						<g>
							<path class="st1" d="M178.8,67.1c0-1.5,1.2-2.7,2.7-2.7s2.7,1.2,2.7,2.7s-1.2,2.7-2.7,2.7S178.8,68.6,178.8,67.1z"/>
							<path class="st1" d="M207.6,53.5c0-1.2,1-2.2,2.2-2.2s2.2,1,2.2,2.2s-1,2.2-2.2,2.2S207.6,54.7,207.6,53.5z"/>
							<polyline class="st0" points="194.9,104.9 194.9,80.6 181.5,67.1 							"/>
							<line class="st0" x1="209.9" y1="53.5" x2="188.8" y2="74.5"/>
						</g>
					</g>
					<g>
						<g>
							<polyline class="st0" points="135.4,145.4 97.8,145.4 80.5,118.6 41.8,118.6 							"/>
							<path class="st1" d="M38.9,118.3c0-1.6,1.3-2.9,2.9-2.9s2.9,1.3,2.9,2.9s-1.3,2.9-2.9,2.9S38.9,119.8,38.9,118.3z"/>
						</g>
						<g>
							<polyline class="st0" points="135.4,118.6 66,118.6 48.8,138.8 22.7,138.8 							"/>
							<polyline class="st0" points="74.6,118.3 52.5,96.2 29.8,96.2 							"/>
							<path class="st1" d="M25.5,96.2c0-1.6,1.3-2.9,2.9-2.9s2.9,1.3,2.9,2.9s-1.3,2.9-2.9,2.9S25.5,97.8,25.5,96.2z"/>
							<circle class="st1" cx="22.7" cy="138.5" r="1.9"/>
						</g>
						<g>
							<polyline class="st0" points="135.4,170.9 66,170.9 48.8,195.5 22.7,195.5 							"/>
							<polyline class="st0" points="79.1,170.9 57,148.9 34.2,148.9 							"/>
							<path class="st1" d="M17.9,195.5c0-1.6,1.3-2.9,2.9-2.9s2.9,1.3,2.9,2.9s-1.3,2.9-2.9,2.9S17.9,197.1,17.9,195.5z"/>
							<circle class="st1" cx="34.2" cy="148.9" r="1.9"/>
						</g>
					</g>
					<g>
						<g>
							<path class="st1" d="M203.1,275.2c0,1.6-1.3,2.9-2.9,2.9s-2.9-1.3-2.9-2.9s1.3-2.9,2.9-2.9S203.1,273.6,203.1,275.2z"/>
							<path class="st1" d="M180.8,248.8c0,1.6-1.3,2.9-2.9,2.9s-2.9-1.3-2.9-2.9s1.3-2.9,2.9-2.9S180.8,247.2,180.8,248.8z"/>
							<polyline class="st0" points="195.1,200.3 195.1,231.6 177.9,248.8 							"/>
							<polyline class="st0" points="185,241.7 200.2,256.8 200.2,275.2 							"/>
						</g>
						<g>
							<circle class="st1" cx="173.7" cy="281" r="2.9"/>
							<circle class="st1" cx="148.8" cy="282.4" r="2"/>
							<polyline class="st0" points="168.9,200.3 168.9,262.3 148.8,282.4 							"/>
							<line class="st0" x1="162.2" y1="269" x2="173.1" y2="279.9"/>
						</g>
						<g>
							<path class="st1" d="M158.8,238.1c0,1.5-1.2,2.7-2.7,2.7s-2.7-1.2-2.7-2.7s1.2-2.7,2.7-2.7S158.8,236.6,158.8,238.1z"/>
							<circle class="st1" cx="127.8" cy="251.7" r="2.2"/>
							<polyline class="st0" points="142.7,200.3 142.7,224.6 156.2,238.1 							"/>
							<line class="st0" x1="127.8" y1="251.7" x2="148.8" y2="230.7"/>
						</g>
					</g>
				</g>
				<g>
					<g>
						<g>
							<rect x="138.2" y="90.4" class="st2" width="8.9" height="109.8"/>
							<rect x="164.4" y="90.4" class="st2" width="8.9" height="109.8"/>
							<rect x="190.6" y="90.4" class="st2" width="8.9" height="109.8"/>
						</g>
						<g>
							<rect x="113.9" y="167.1" class="st2" width="109.8" height="8.9"/>
							<rect x="113.9" y="140.9" class="st2" width="109.8" height="8.9"/>
							<rect x="113.9" y="114.7" class="st2" width="109.8" height="8.9"/>
						</g>
					</g>
					<g>
						
							<linearGradient id="SVGID_1_" gradientUnits="userSpaceOnUse" x1="245.6867" y1="240.4232" x2="109.4367" y2="98.0332" gradientTransform="matrix(1 0 0 -1 0 306)">
							<stop  offset="0" style="stop-color:#7B97F7"/>
							<stop  offset="0" style="stop-color:#7B97F7"/>
							<stop  offset="0" style="stop-color:#7692F2"/>
							<stop  offset="0" style="stop-color:#7B97F7"/>
							<stop  offset="0.1741" style="stop-color:#4E6ACD"/>
							<stop  offset="0.63" style="stop-color:#2C3E7E"/>
						</linearGradient>
						<path class="st3" d="M130.5,102.2h76.8c2.9,0,5.3,2.4,5.3,5.3v76.8c0,2.9-2.4,5.3-5.3,5.3h-76.8c-2.9,0-5.3-2.4-5.3-5.3v-76.8
							C125.2,104.6,127.6,102.2,130.5,102.2z"/>
						<g class="st4">
							<path class="st5" d="M200.1,182.9h-62.5c-3.2,0-5.8-2.6-5.8-5.8v-62.5c0-3.2,2.6-5.8,5.8-5.8h62.5c3.2,0,5.8,2.6,5.8,5.8
								v62.5C205.9,180.3,203.3,182.9,200.1,182.9C200.1,182.9,203.3,182.9,200.1,182.9z"/>
						</g>
						<path class="st6" d="M143.5,114.7h50.7c3.2,0,5.8,2.6,5.8,5.8v50.7c0,3.2-2.6,5.8-5.8,5.8h-50.7c-3.2,0-5.8-2.6-5.8-5.8v-50.7
							C137.8,117.3,140.4,114.7,143.5,114.7z"/>
						<g>
							<path class="st7" d="M168.4,159.5l-2.1-7h-10.7l-2.1,7h-6.7l10.4-29.6h7.6l10.4,29.6H168.4z M164.8,147.2
								c-2-6.4-3.1-9.9-3.3-10.8c-0.2-0.8-0.4-1.5-0.5-2c-0.4,1.7-1.7,6-3.8,12.8H164.8L164.8,147.2z"/>
							<path class="st7" d="M183,159.5V130h6.2v29.5L183,159.5L183,159.5z"/>
						</g>
						
							<linearGradient id="SVGID_00000077281914302684861470000016927458024176159375_" gradientUnits="userSpaceOnUse" x1="142.5126" y1="109.5467" x2="181.1021" y2="183.6156" gradientTransform="matrix(1 0 0 -1 0 306)">
							<stop  offset="8.000000e-02" style="stop-color:#6937A6"/>
							<stop  offset="0.22" style="stop-color:#6835A5"/>
							<stop  offset="0.55" style="stop-color:#6531A3"/>
							<stop  offset="0.82" style="stop-color:#632FA2"/>
							<stop  offset="1" style="stop-color:#04020E"/>
						</linearGradient>
						
							<path style="opacity:0.1;fill:url(#SVGID_00000077281914302684861470000016927458024176159375_);enable-background:new    ;" d="
							M212.5,168.4v15.8c0,2.9-2.4,5.3-5.3,5.3h-76.8c-2.9,0-5.3-2.4-5.3-5.3v-76.8c0-2.9,2.3-5.3,5.3-5.3h11.9
							C147.2,120.9,163.5,162.3,212.5,168.4L212.5,168.4z"/>
					</g>
				</g>
			</g>
		</g>
	</g>
</g>
</svg>
