<?xml version="1.0" encoding="UTF-8"?><svg xmlns="http://www.w3.org/2000/svg" xmlns:xlink="http://www.w3.org/1999/xlink" viewBox="0 0 453.15 236.24"><defs><style>.ai{fill:url(#ac);}.ai,.aj,.ak,.al,.am,.an,.ao,.ap,.aq,.ar,.as,.at,.au,.av,.aw,.ax,.ay,.b`,.ba,.bb,.bc,.bd,.be,.bf,.bg,.bh,.bi,.bj,.bk{mix-blend-mode:color-dodge;}.aj{fill:url(#n);}.ak{fill:url(#l);}.al{fill:url(#k);}.am{fill:url(#ae);}.an{fill:url(#y);}.ao{fill:url(#g);}.bl{isolation:isolate;}.ap{fill:url(#r);}.aq{fill:url(#e);}.ar{fill:url(#u);}.as{fill:url(#i);}.at{fill:url(#ab);}.au{fill:url(#h);}.av{fill:url(#ad);}.aw{fill:url(#q);}.bm{fill:url(#ah);}.bm,.bn,.bo{mix-blend-mode:color-burn;}.bn{fill:url(#ag);}.ax{fill:url(#p);}.ay{fill:url(#d);}.b`{fill:url(#a`);}.bp{clip-path:url(#b);}.ba{fill:url(#t);}.bb{fill:url(#x);}.bc{fill:url(#o);}.bd{fill:url(#aa);}.be{fill:url(#m);}.bq{fill:none;}.bf{fill:url(#v);}.bg{fill:url(#f);}.bh{fill:url(#c);}.bi{fill:url(#w);}.bj{fill:url(#s);}.bo{fill:url(#af);}.bk{fill:url(#j);}</style><clipPath id="b"><rect class="bq" x=".17" y=".12" width="453.18" height="235.06" transform="translate(453.51 235.29) rotate(-180)"/></clipPath><linearGradient id="c" x1="102.28" y1="176.32" x2="463.02" y2="176.32" gradientTransform="translate(453.51) rotate(-180) scale(1 -1)" gradientUnits="userSpaceOnUse"><stop offset="0" stop-color="#d6d6d6"/><stop offset=".29" stop-color="#929399"/><stop offset=".45" stop-color="#6c6e7a"/><stop offset=".71" stop-color="#32374c"/><stop offset=".9" stop-color="#0e152f"/><stop offset="1" stop-color="#010825"/></linearGradient><linearGradient id="d" x1="93" y1="46.88" x2="465.86" y2="46.88" xlink:href="#c"/><linearGradient id="e" x1="28.52" y1="83.46" x2="461.25" y2="83.46" xlink:href="#c"/><linearGradient id="f" x1="68.97" y1="125.11" x2="460.89" y2="125.11" xlink:href="#c"/><linearGradient id="g" x1="371.96" y1="115.99" x2="459.9" y2="115.99" xlink:href="#c"/><linearGradient id="h" x1="206.45" y1="121.9" x2="380.18" y2="121.9" xlink:href="#c"/><linearGradient id="i" x1="319.09" y1="133.97" x2="366.34" y2="133.97" xlink:href="#c"/><linearGradient id="j" x1="29.84" y1="162.7" x2="274.22" y2="162.7" xlink:href="#c"/><linearGradient id="k" x1="100.96" y1="134.93" x2="264.68" y2="134.93" xlink:href="#c"/><linearGradient id="l" x1="54.07" y1="159.83" x2="188.3" y2="159.83" xlink:href="#c"/><linearGradient id="m" x1="94.52" y1="126.21" x2="232.46" y2="126.21" xlink:href="#c"/><linearGradient id="n" x1="53.23" y1="142.5" x2="239.86" y2="142.5" xlink:href="#c"/><linearGradient id="o" x1="62.96" y1="184.32" x2="249.4" y2="184.32" xlink:href="#c"/><linearGradient id="p" x1="377.8" y1="80.27" x2="463.24" y2="80.27" xlink:href="#c"/><linearGradient id="q" x1="45.59" y1="68.34" x2="410.26" y2="68.34" xlink:href="#c"/><linearGradient id="r" x1="47.98" y1="80.38" x2="369.69" y2="80.38" xlink:href="#c"/><linearGradient id="s" x1="383.05" y1="94.83" x2="459.9" y2="94.83" xlink:href="#c"/><linearGradient id="t" x1="388.78" y1="104.26" x2="463.72" y2="104.26" xlink:href="#c"/><linearGradient id="u" x1="261.81" y1="81.05" x2="364.43" y2="81.05" xlink:href="#c"/><linearGradient id="v" x1="284.97" y1="76.79" x2="359.19" y2="76.79" xlink:href="#c"/><linearGradient id="w" x1="58.36" y1="118.16" x2="155.37" y2="118.16" xlink:href="#c"/><linearGradient id="x" x1="14.45" y1="78.52" x2="149.65" y2="78.52" xlink:href="#c"/><linearGradient id="y" x1="45.86" y1="109.37" x2="141.05" y2="109.37" xlink:href="#c"/><linearGradient id="a`" x1="42.73" y1="124.33" x2="89.98" y2="124.33" xlink:href="#c"/><linearGradient id="aa" x1="23.34" y1="110.81" x2="131.99" y2="110.81" xlink:href="#c"/><linearGradient id="ab" x1="86.16" y1="88.89" x2="116.71" y2="88.89" xlink:href="#c"/><linearGradient id="ac" x1="29.84" y1="34.57" x2="128.17" y2="34.57" xlink:href="#c"/><linearGradient id="ad" x1="15.04" y1="41.91" x2="122.92" y2="41.91" xlink:href="#c"/><linearGradient id="ae" x1="39.39" y1="42.9" x2="80.91" y2="42.9" xlink:href="#c"/><linearGradient id="af" x1="122.86" y1="99.91" x2="496.17" y2="99.91" gradientTransform="translate(453.51) rotate(-180) scale(1 -1)" gradientUnits="userSpaceOnUse"><stop offset="0" stop-color="#c9c9c9"/><stop offset=".53" stop-color="#e7e7e7"/><stop offset="1" stop-color="#fff"/></linearGradient><linearGradient id="ag" x1="54.97" y1="76.53" x2="424.78" y2="76.53" xlink:href="#af"/><linearGradient id="ah" x1="60.69" y1="128.36" x2="500.11" y2="128.36" xlink:href="#af"/></defs><g class="bl"><g id="a"><g class="bp"><g><path class="bh" d="M-7.89,144.34c.74,0,1.36,.51,1.55,1.19H14.1l8.34-8.34H93.62l13.58,13.58h24.05l16.46-16.46h27.92l24.43,24.43h62.9l17.72,17.72h7.13l12.23,12.23h22.14l26.63,26.64c.62-.35,1.41-.27,1.94,.26,.63,.63,.63,1.66,0,2.29-.63,.63-1.66,.63-2.29,0-.53-.53-.61-1.32-.26-1.94l-26.38-26.38h-22.13l-12.23-12.23h-7.13l-17.72-17.72h-62.9l-24.43-24.43h-27.21l-16.46,16.46h-24.77l-13.58-13.58H22.8l-8.34,8.34H-6.34c-.19,.68-.81,1.19-1.55,1.19-.9,0-1.62-.72-1.62-1.62s.72-1.62,1.62-1.62Z"/><path class="ay" d="M-10.73,65.53c.74,0,1.37,.5,1.56,1.19H23.68l6.92,6.92h46.33l8.96-8.97h20.85l3.69,3.68h32.17l17.15-17.15h33.26l14.86,14.86h30.23l19.38-19.38h19.68l15.52,15.52h11.1l22.99-22.99h13.19l17.53-17.53c-.35-.62-.27-1.41,.26-1.94,.63-.63,1.66-.63,2.29,0,.63,.63,.63,1.66,0,2.29-.53,.53-1.32,.61-1.94,.26l-17.78,17.78h-13.19l-22.99,22.99h-11.82l-15.52-15.52h-18.96l-19.38,19.37h-30.94l-14.86-14.85h-32.55l-17.15,17.15h-32.88l-3.69-3.68h-20.14l-8.96,8.96H30.25l-6.92-6.92H-9.18c-.19,.68-.81,1.19-1.56,1.19-.89,0-1.62-.73-1.62-1.62s.73-1.62,1.62-1.62Z"/><path class="aq" d="M-6.12,112.3c.74,0,1.36,.51,1.55,1.19H58.74l18.91-18.9h25.38l14.74,14.73h36.92l16.33-16.33h26.98l6.21,6.21h23.61l9.67-9.67h19.08l10.43,10.43h20.1l13.96-13.96h25.45l18.16-18.16h63.26l14.04-14.05c-.35-.62-.27-1.41,.26-1.94,.63-.63,1.66-.63,2.29,0,.63,.63,.63,1.66,0,2.29-.53,.53-1.32,.61-1.94,.26l-14.3,14.3h-63.26l-18.16,18.16h-25.45l-13.96,13.96h-20.81l-10.43-10.43h-18.37l-9.67,9.67h-24.32l-6.21-6.21h-26.27l-16.33,16.33h-37.64l-14.74-14.73h-24.67l-18.9,18.9H-4.56c-.19,.68-.81,1.19-1.55,1.19-.89,0-1.62-.72-1.62-1.62s.72-1.62,1.62-1.62Z"/><path class="bg" d="M22.97,128.28l-9.59,9.58H-4.21c-.19,.69-.81,1.19-1.55,1.19-.89,0-1.62-.72-1.62-1.62s.72-1.62,1.62-1.62c.74,0,1.36,.5,1.55,1.19H13.03l9.59-9.58H62.03l20.41-20.41h16.16l12.87,12.87h47.84l14.33-14.33h21.17l11.47,11.47h35.74l10.6-10.59h43.73l25.41,25.41h50.56l9.82,9.82c.62-.35,1.41-.27,1.94,.26,.63,.63,.63,1.66,0,2.29-.63,.63-1.66,.63-2.29,0-.53-.53-.61-1.32-.26-1.94l-9.57-9.56h-50.56l-25.41-25.41h-43.01l-10.6,10.6h-36.46l-11.48-11.47h-20.45l-14.33,14.33h-48.55l-12.87-12.87h-15.44l-20.41,20.41H22.97Z"/><path class="ao" d="M78.79,100.68c.63-.63,1.66-.63,2.29,0,.63,.63,.63,1.66,0,2.29-.53,.52-1.32,.61-1.94,.26l-16.14,16.14H21.72l-11.22,11.22H-3.22c-.19,.68-.81,1.19-1.55,1.19-.9,0-1.62-.72-1.62-1.62s.72-1.62,1.62-1.62c.74,0,1.36,.51,1.55,1.19H10.14l11.22-11.22H62.64l15.89-15.89c-.35-.62-.27-1.41,.26-1.94Z"/><path class="au" d="M76.09,129.2c-.63,.63-1.66,.63-2.29,0-.63-.63-.63-1.66,0-2.29,.53-.53,1.32-.61,1.94-.26l11.01-11.01h10.62l12.77,12.77h47.49l14.62-14.62h19.15l14.18,14.17h38.32c.19-.68,.81-1.19,1.55-1.19,.89,0,1.62,.73,1.62,1.62s-.72,1.62-1.62,1.62c-.74,0-1.36-.51-1.55-1.19h-38.68l-14.17-14.17h-18.44l-14.62,14.62h-48.21l-12.77-12.77h-9.91l-10.75,10.76c.35,.62,.26,1.41-.26,1.94Z"/><path class="as" d="M90.34,129.24h9.9l8.59,8.59h22.43c.19-.68,.81-1.19,1.55-1.19,.9,0,1.62,.72,1.62,1.62s-.72,1.62-1.62,1.62c-.74,0-1.36-.51-1.55-1.19h-22.78l-8.59-8.59h-9.54c-.19,.68-.81,1.19-1.55,1.19-.89,0-1.61-.73-1.61-1.62s.72-1.62,1.61-1.62c.74,0,1.36,.5,1.55,1.19Z"/><path class="bk" d="M377.2,185.47h-21.48l-16.71-16.71h-41.53l-20.52-20.52h-73.03l-22.23-22.22c-.62,.35-1.41,.27-1.94-.26-.63-.63-.63-1.66,0-2.29,.63-.63,1.66-.63,2.29,0,.52,.53,.61,1.32,.26,1.94l21.97,21.97h73.03l20.52,20.52h41.53l16.71,16.71h21.48l15.75,15.75h27.2c.19-.68,.81-1.19,1.55-1.19,.89,0,1.62,.72,1.62,1.62s-.72,1.62-1.62,1.62c-.74,0-1.36-.51-1.55-1.19h-27.55l-15.75-15.75Z"/><path class="al" d="M251.07,142.75h-40.22l-19.6-19.6c-.62,.35-1.41,.27-1.94-.26-.63-.63-.63-1.66,0-2.29,.64-.63,1.66-.63,2.29,0,.53,.53,.61,1.32,.26,1.94l19.35,19.35h39.5l12.05-12.05h24.11l17.84,17.84h44.67c.19-.68,.81-1.19,1.56-1.19,.89,0,1.62,.73,1.62,1.62s-.73,1.62-1.62,1.62c-.74,0-1.37-.51-1.56-1.19h-45.03l-17.84-17.84h-23.39l-12.05,12.05Z"/><path class="ak" d="M367.41,170.92l-13.6-13.61h-54.89l-18.62-18.61h-11.92c-.19,.68-.81,1.19-1.55,1.19-.89,0-1.61-.73-1.61-1.62s.72-1.62,1.61-1.62c.75,0,1.37,.5,1.55,1.19h12.28l18.61,18.62h54.89l13.61,13.6h19.34l9.93,9.93c.62-.35,1.41-.27,1.94,.26,.63,.63,.63,1.66,0,2.29-.63,.63-1.66,.63-2.29,0-.52-.53-.6-1.32-.26-1.94l-9.68-9.68h-19.34Z"/><path class="be" d="M355.82,137.5h-39.01l-22.91-22.91h-34.48l-9.54,9.55h-25.65c-.19,.68-.81,1.19-1.55,1.19-.9,0-1.62-.73-1.62-1.62s.72-1.62,1.62-1.62c.74,0,1.36,.5,1.55,1.19h25.29l9.55-9.55h35.2l22.91,22.91h38.65c.19-.68,.81-1.19,1.55-1.19,.9,0,1.62,.72,1.62,1.62s-.72,1.62-1.62,1.62c-.74,0-1.36-.51-1.55-1.19Z"/><path class="aj" d="M398.67,163.87c-.74,0-1.37-.5-1.56-1.19h-15.74l-19.93-19.93h-50.83l-20.76-20.76h-27.81l-12.41,12.41h-32.81c-.19,.68-.81,1.19-1.55,1.19-.89,0-1.61-.73-1.61-1.62s.72-1.62,1.61-1.62c.75,0,1.36,.5,1.55,1.19h32.45l12.41-12.41h28.51l20.77,20.76h50.83l19.93,19.93h15.38c.19-.68,.81-1.19,1.56-1.19,.89,0,1.62,.72,1.62,1.62s-.73,1.62-1.62,1.62Z"/><path class="bc" d="M342.95,197.29l-17.3-17.3h-26.97l-26.01-26.01h-65.38c-.19,.68-.81,1.19-1.56,1.19-.89,0-1.61-.72-1.61-1.62s.72-1.62,1.61-1.62c.75,0,1.37,.51,1.56,1.19h65.74l26.01,26.01h26.97l17.3,17.3h27.57l17.27,17.27c.62-.35,1.41-.27,1.94,.26,.63,.63,.63,1.66,0,2.29-.63,.63-1.66,.63-2.29,0-.53-.53-.61-1.32-.26-1.94l-17.02-17.02h-27.57Z"/><path class="ax" d="M-8.11,76.88c-.89,0-1.62-.73-1.62-1.62s.72-1.62,1.62-1.62c.74,0,1.36,.5,1.55,1.19H19.57l10.02,10.02h42.95c.19-.68,.81-1.19,1.55-1.19,.89,0,1.62,.73,1.62,1.62s-.73,1.62-1.62,1.62c-.74,0-1.36-.51-1.55-1.19H29.23l-10.02-10.02H-6.55c-.19,.68-.81,1.19-1.55,1.19Z"/><path class="aw" d="M44.88,78.42c.74,0,1.36,.5,1.55,1.19h36.26l7.4-7.4h56.57l14.44-14.44h27.44l18.08,18.08h39.79l16.26-16.26h17.51l11.92,11.92h17.32l15.28-15.28h80.05c.19-.68,.81-1.19,1.56-1.19,.89,0,1.62,.72,1.62,1.62s-.73,1.62-1.62,1.62c-.74,0-1.37-.5-1.56-1.19h-79.69l-15.28,15.28h-18.03l-11.92-11.92h-16.8l-16.26,16.26h-40.51l-18.08-18.08h-26.73l-14.44,14.44h-56.56l-7.4,7.4H46.43c-.19,.68-.81,1.19-1.55,1.19-.9,0-1.62-.73-1.62-1.62s.72-1.62,1.62-1.62Z"/><path class="ap" d="M218.49,90.22h7.4l7.93-7.94h30.13l7.25,7.25h16.26l8.55-8.55h26.3l20.02-20.02h60.04c.19-.68,.81-1.19,1.55-1.19,.9,0,1.62,.73,1.62,1.62s-.72,1.62-1.62,1.62c-.74,0-1.36-.5-1.55-1.19h-59.68l-20.02,20.02h-26.3l-8.55,8.55h-16.98l-7.25-7.25h-29.42l-7.93,7.94h-8.11l-6.56-6.56h-40.46l-16.47,16.47h-29.47l-11.93-11.93h-26.24c-.19,.68-.81,1.19-1.56,1.19-.89,0-1.62-.73-1.62-1.62s.73-1.62,1.62-1.62c.74,0,1.37,.51,1.56,1.19h26.6l11.93,11.93h28.76l16.47-16.47h41.16l6.56,6.56Z"/><path class="bj" d="M28.16,90.96l-8.59,8.59H-3.22c-.19,.68-.81,1.19-1.55,1.19-.9,0-1.62-.73-1.62-1.62s.72-1.62,1.62-1.62c.74,0,1.36,.51,1.55,1.19H19.21l8.59-8.59h39.49c.19-.68,.81-1.19,1.56-1.19,.89,0,1.61,.73,1.61,1.62s-.72,1.62-1.61,1.62c-.75,0-1.37-.51-1.56-1.19H28.16Z"/><path class="ba" d="M-8.59,107.05c.74,0,1.37,.5,1.55,1.19H24.46l8.83-8.83h28.27c.19-.68,.81-1.19,1.55-1.19,.89,0,1.61,.73,1.61,1.62s-.72,1.62-1.61,1.62c-.75,0-1.36-.5-1.55-1.19h-27.91l-8.83,8.83H-7.03c-.19,.68-.81,1.19-1.55,1.19-.89,0-1.62-.73-1.62-1.62s.72-1.62,1.62-1.62Z"/><path class="ar" d="M188.53,71.13c.19-.68,.81-1.19,1.55-1.19,.9,0,1.62,.72,1.62,1.62s-.72,1.62-1.62,1.62c-.74,0-1.36-.5-1.55-1.19h-13.24l-20.16,20.17h-25.42l-8.35-8.35h-29.11c-.19,.68-.81,1.19-1.55,1.19-.89,0-1.61-.73-1.61-1.62s.72-1.62,1.61-1.62c.75,0,1.37,.5,1.55,1.19h29.47l8.35,8.35h24.7l20.17-20.17h13.6Z"/><path class="bf" d="M165.78,67.86c.64-.63,1.66-.63,2.29,0,.63,.63,.63,1.66,0,2.29-.53,.52-1.32,.61-1.94,.26l-15.78,15.78h-16.59l-8.11-8.11h-28.15c-.19,.68-.81,1.19-1.55,1.19-.89,0-1.62-.73-1.62-1.62s.73-1.62,1.62-1.62c.74,0,1.36,.51,1.55,1.19h28.51l8.11,8.11h15.87l15.53-15.53c-.35-.62-.27-1.41,.26-1.94Z"/><path class="bi" d="M376.6,119.46l16.14,16.14c.62-.35,1.42-.27,1.94,.26,.63,.63,.63,1.66,0,2.29-.63,.63-1.66,.63-2.29,0-.53-.52-.61-1.32-.26-1.94l-15.89-15.89h-56.08l-19.6-19.6c-.62,.35-1.41,.27-1.94-.26-.63-.63-.63-1.66,0-2.29,.64-.63,1.66-.63,2.29,0,.53,.53,.61,1.32,.26,1.94l19.35,19.35h56.08Z"/><path class="bb" d="M421.47,79.75h-16.95l-7.87,7.88h-18.02l-9.07-9.07h-22.55l-15.75,15.75h-24.21c-.19,.68-.81,1.19-1.55,1.19-.89,0-1.62-.73-1.62-1.62s.72-1.62,1.62-1.62c.74,0,1.36,.5,1.55,1.19h23.86l15.75-15.75h23.26l9.07,9.07h17.3l7.88-7.88h16.94l14.94-14.93c-.35-.62-.27-1.42,.26-1.94,.64-.63,1.66-.63,2.29,0,.63,.63,.63,1.66,0,2.29-.53,.53-1.32,.61-1.94,.26l-15.18,15.19Z"/><path class="an" d="M344.74,109.91l11.58-11.57h14.08l10.92,10.92h15.81l8.12,8.12c.62-.35,1.41-.27,1.94,.26,.63,.63,.63,1.66,0,2.29-.63,.63-1.66,.63-2.29,0-.53-.53-.61-1.32-.26-1.94l-7.86-7.86h-15.81l-10.92-10.92h-13.36l-11.57,11.58h-21.6l-8.62-8.62c-.62,.35-1.41,.27-1.94-.26-.63-.63-.63-1.66,0-2.29,.63-.63,1.66-.63,2.29,0,.52,.53,.61,1.32,.26,1.94l8.37,8.37h20.88Z"/><path class="b`" d="M366.7,115.31c-.19,.68-.81,1.19-1.55,1.19-.89,0-1.62-.73-1.62-1.62s.72-1.62,1.62-1.62c.74,0,1.36,.5,1.55,1.19h23.74l17.93,17.93c.62-.35,1.41-.27,1.94,.26,.63,.63,.63,1.66,0,2.29-.63,.63-1.66,.63-2.29,0-.53-.53-.61-1.32-.26-1.94l-17.68-17.68h-23.38Z"/><path class="bd" d="M403.45,102.3h-17.07l-8.23-8.23h-33.3l-6.92,6.92h-13.23c-.19,.68-.81,1.19-1.56,1.19-.89,0-1.62-.72-1.62-1.62s.73-1.62,1.62-1.62c.74,0,1.37,.51,1.56,1.19h12.88l6.92-6.92h34.01l8.23,8.23h17.06l23.96,23.96c.62-.35,1.41-.27,1.94,.26,.64,.63,.64,1.66,0,2.29-.63,.63-1.66,.63-2.29,0-.52-.53-.6-1.32-.26-1.94l-23.7-23.71Z"/><path class="at" d="M339.57,93.88c-.63,.63-1.65,.63-2.29,0-.63-.63-.63-1.66,0-2.29,.53-.53,1.32-.61,1.94-.26l6.71-6.71h18.25c.19-.68,.81-1.19,1.55-1.19,.89,0,1.62,.73,1.62,1.62s-.73,1.62-1.62,1.62c-.74,0-1.36-.51-1.55-1.19h-17.89l-6.46,6.46c.35,.62,.27,1.41-.26,1.94Z"/><path class="ai" d="M422.05,24.14c-.74,0-1.36-.51-1.55-1.19h-22.18l-4.53,4.53h-26.26l-19.57,19.57h-19.44c-.19,.68-.81,1.19-1.55,1.19-.89,0-1.62-.72-1.62-1.62s.73-1.62,1.62-1.62c.74,0,1.36,.51,1.55,1.19h19.08l19.57-19.57h26.26l4.53-4.54h22.54c.19-.68,.81-1.19,1.55-1.19,.89,0,1.62,.73,1.62,1.62s-.72,1.62-1.62,1.62Z"/><path class="av" d="M436.85,33.09c-.75,0-1.36-.5-1.55-1.19h-36.15l-3.94,3.94h-21.72l-16.95,16.95h-22.78c-.19,.68-.81,1.19-1.56,1.19-.89,0-1.61-.73-1.61-1.62s.72-1.62,1.61-1.62c.75,0,1.37,.5,1.56,1.19h22.42l16.95-16.95h21.72l3.94-3.94h36.5c.19-.68,.81-1.19,1.55-1.19,.89,0,1.62,.73,1.62,1.62s-.72,1.62-1.62,1.62Z"/><path class="am" d="M411.36,36.12c.63-.63,1.66-.63,2.29,0,.63,.63,.63,1.66,0,2.29-.53,.53-1.32,.61-1.94,.26l-10.29,10.29h-25.64c-.19,.68-.81,1.19-1.55,1.19-.89,0-1.62-.73-1.62-1.62s.72-1.62,1.62-1.62c.74,0,1.36,.5,1.55,1.19h25.29l10.03-10.04c-.35-.62-.26-1.41,.26-1.94Z"/></g><g><path class="bo" d="M61.72,90.29h30.23l.05-.05,.05,.05h70.79l14.93,14.93h46.22l3.73-3.73c-.48-.85-.37-1.94,.35-2.66,.87-.87,2.28-.87,3.15,0,.87,.87,.87,2.28,0,3.14-.73,.72-1.82,.84-2.67,.36l-4.08,4.07h-45.53l8.43,8.43c.85-.48,1.94-.37,2.66,.35,.87,.87,.87,2.28,0,3.14-.87,.87-2.28,.87-3.14,0-.72-.72-.84-1.81-.36-2.66l-24.19-24.19h-39.26l10.62,10.62h16.34c.26-.94,1.11-1.63,2.13-1.63,1.23,0,2.22,1,2.22,2.22s-1,2.23-2.22,2.23c-1.02,0-1.87-.69-2.13-1.63h-16.83l-11.8-11.8h-28.18l26.99,26.99h49.84l17.21,17.21h17.33l15.53-15.53h23.73l8.24-8.24h31.68c.26-.94,1.11-1.63,2.13-1.63,1.23,0,2.22,1,2.22,2.22s-.99,2.23-2.22,2.23c-1.02,0-1.87-.69-2.13-1.63h-31.19l-7.06,7.06h48.01c.26-.94,1.11-1.63,2.14-1.63,1.23,0,2.22,1,2.22,2.22s-1,2.22-2.22,2.22c-1.02,0-1.88-.69-2.14-1.63h-72.92l-14.35,14.35h120.01c.26-.94,1.11-1.63,2.13-1.63,1.23,0,2.22,1,2.22,2.22s-1,2.22-2.22,2.22c-1.02,0-1.87-.69-2.13-1.63H186.79l-17.22-17.21h-49.84l-15.17-15.17h-15.64l-5.89,5.89c.48,.85,.37,1.94-.36,2.66-.86,.87-2.27,.87-3.14,0-.87-.87-.87-2.28,0-3.14,.72-.72,1.82-.83,2.66-.35l6.24-6.24h14.95l-11.82-11.82h-30.34l-20.95-20.95H20.59l-6.38-6.38H-38.3c-.26,.94-1.11,1.63-2.14,1.63-1.23,0-2.22-1-2.22-2.22s.99-2.22,2.22-2.22c1.02,0,1.88,.69,2.14,1.63H14.7l6.38,6.38h19.7l20.95,20.95Z"/><path class="bn" d="M304.39,103.27l9.65,9.65h55.59c.26-.94,1.11-1.63,2.13-1.63,1.23,0,2.22,1,2.22,2.22s-.99,2.22-2.22,2.22c-1.02,0-1.87-.69-2.13-1.63h-56.08l-10.77-10.76,.07-.07h-50.21l-20.47-20.46h-27.44l-9.99,9.99c.48,.85,.37,1.94-.36,2.67-.87,.87-2.28,.87-3.14,0-.87-.87-.87-2.28,0-3.15,.72-.72,1.81-.83,2.66-.36l10.34-10.33h26.75l-16.63-16.63H113.72l-26.48-26.48H28.73v-1.18h58.99l26.49,26.48h45.3l-.02-.02,11.05-11.05h58.75l36.6,36.6h12.99l13.24-13.24h84.99l11.55-11.55c-.48-.85-.37-1.94,.36-2.66,.87-.87,2.28-.87,3.15,0,.87,.87,.87,2.28,0,3.14-.72,.72-1.82,.84-2.66,.36l-11.9,11.9h-84.99l-12.06,12.06h36.11c.26-.94,1.11-1.63,2.13-1.63,1.23,0,2.22,1,2.22,2.22s-1,2.23-2.22,2.23c-1.02,0-1.87-.69-2.13-1.63h-51.26l-36.59-36.6h-57.78l-9.89,9.89h53.71l38.28,38.28h141.06c.26-.94,1.11-1.63,2.13-1.63,1.23,0,2.23,1,2.23,2.22s-1,2.23-2.23,2.23c-1.02,0-1.87-.69-2.13-1.63h-89.8Z"/><path class="bm" d="M-45.94,80.33c.72-.72,1.81-.83,2.66-.35l10.63-10.63H-9.31l12.04,12.04H25.13l19.98,19.98h17.31c.26-.94,1.11-1.63,2.14-1.63,1.23,0,2.22,1,2.22,2.22s-.99,2.22-2.22,2.22c-1.03,0-1.88-.69-2.14-1.63h-17.79l-19.99-19.98H3.92l32.28,32.28h33.23l13.96,13.96h50.32l10.47,10.47h28.77l3.66,3.65c.85-.48,1.94-.37,2.66,.36,.87,.87,.87,2.28,0,3.15-.87,.87-2.28,.87-3.14,0-.72-.72-.84-1.81-.36-2.66l-3.3-3.31h-15.3l20.36,20.37h14.51l12.55-12.55h24.87c.26-.94,1.11-1.63,2.14-1.63,1.23,0,2.22,.99,2.22,2.22s-.99,2.22-2.22,2.22c-1.02,0-1.88-.69-2.14-1.63h-24.39l-11.36,11.37h38.95l12.88-12.88h93.06l7.04-7.04c-.48-.85-.37-1.94,.36-2.66,.87-.87,2.27-.87,3.14,0s.87,2.28,0,3.15c-.72,.72-1.82,.84-2.67,.35l-7.39,7.39h-70.84l19.46,19.46h87.16l14.64,14.64c.85-.48,1.94-.37,2.66,.35,.87,.87,.87,2.28,0,3.14-.87,.87-2.28,.87-3.15,0-.72-.72-.84-1.81-.36-2.66l-14.3-14.3h-87.16l-20.64-20.64h-20.54l-12.88,12.88h-56.11l-21.54-21.55h-11.8l-10.47-10.47h-48.65l20.25,20.24h44.27c.26-.94,1.11-1.63,2.13-1.63,1.23,0,2.23,1,2.23,2.23s-1,2.22-2.23,2.22c-1.02,0-1.87-.69-2.13-1.63h-44.76l-35.4-35.39H35.71L-9.79,70.52h-22.37l-10.29,10.28c.48,.85,.37,1.94-.36,2.66-.87,.87-2.28,.87-3.14,0-.87-.87-.87-2.28,0-3.14Z"/></g></g></g></g></svg>