<?xml version="1.0" encoding="UTF-8"?><svg xmlns="http://www.w3.org/2000/svg" xmlns:xlink="http://www.w3.org/1999/xlink" viewBox="0 0 359.18 288"><defs><style>.ae{fill:url(#n);}.ae,.af,.ag,.ah,.ai,.aj,.ak,.al,.am,.an,.ao,.ap,.aq,.ar,.as,.at,.au,.av,.aw,.ax,.ay,.b`,.ba,.bb,.bc{mix-blend-mode:color-dodge;}.af{fill:url(#l);}.ag{fill:url(#k);}.ah{fill:url(#y);}.ai{fill:url(#g);}.bd{isolation:isolate;}.aj{fill:url(#r);}.ak{fill:url(#e);}.al{fill:url(#u);}.am{fill:url(#i);}.an{fill:url(#h);}.ao{fill:url(#q);}.ap{fill:url(#p);}.aq{fill:url(#d);}.ar{fill:url(#a`);}.be{clip-path:url(#b);}.as{fill:url(#t);}.at{fill:url(#x);}.au{fill:url(#o);}.av{fill:url(#aa);}.aw{fill:url(#m);}.bf{fill:url(#ab);}.bf,.bg,.bh{mix-blend-mode:color-burn;}.bi{fill:none;}.ax{fill:url(#v);}.ay{fill:url(#f);}.b`{fill:url(#c);}.bg{fill:url(#ad);}.ba{fill:url(#w);}.bh{fill:url(#ac);}.bb{fill:url(#s);}.bc{fill:url(#j);}</style><clipPath id="b"><rect class="bi" x="-216.82" width="576" height="288"/></clipPath><linearGradient id="c" x1="98.18" y1="204.85" x2="458.92" y2="204.85" gradientTransform="matrix(1, 0, 0, 1, 0, 0)" gradientUnits="userSpaceOnUse"><stop offset="0" stop-color="#d6d6d6"/><stop offset=".29" stop-color="#929399"/><stop offset=".45" stop-color="#6c6e7a"/><stop offset=".71" stop-color="#32374c"/><stop offset=".9" stop-color="#0e152f"/><stop offset="1" stop-color="#010825"/></linearGradient><linearGradient id="d" x1="88.89" y1="75.41" x2="461.76" y2="75.41" xlink:href="#c"/><linearGradient id="e" x1="24.41" y1="111.99" x2="457.14" y2="111.99" xlink:href="#c"/><linearGradient id="f" x1="64.87" y1="153.64" x2="456.79" y2="153.64" xlink:href="#c"/><linearGradient id="g" x1="202.34" y1="150.43" x2="376.08" y2="150.43" xlink:href="#c"/><linearGradient id="h" x1="314.99" y1="162.5" x2="362.24" y2="162.5" xlink:href="#c"/><linearGradient id="i" x1="25.74" y1="191.23" x2="270.12" y2="191.23" xlink:href="#c"/><linearGradient id="j" x1="96.86" y1="163.46" x2="260.57" y2="163.46" xlink:href="#c"/><linearGradient id="k" x1="49.96" y1="188.36" x2="184.2" y2="188.36" xlink:href="#c"/><linearGradient id="l" x1="90.41" y1="154.74" x2="228.36" y2="154.74" xlink:href="#c"/><linearGradient id="m" x1="49.12" y1="171.03" x2="235.75" y2="171.03" xlink:href="#c"/><linearGradient id="n" x1="58.86" y1="212.85" x2="245.3" y2="212.85" xlink:href="#c"/><linearGradient id="o" x1="41.48" y1="96.87" x2="406.16" y2="96.87" xlink:href="#c"/><linearGradient id="p" x1="43.88" y1="108.91" x2="365.58" y2="108.91" xlink:href="#c"/><linearGradient id="q" x1="257.71" y1="109.58" x2="360.33" y2="109.58" xlink:href="#c"/><linearGradient id="r" x1="280.86" y1="105.32" x2="355.08" y2="105.32" xlink:href="#c"/><linearGradient id="s" x1="54.26" y1="146.69" x2="151.27" y2="146.69" xlink:href="#c"/><linearGradient id="t" x1="10.35" y1="107.05" x2="145.54" y2="107.05" xlink:href="#c"/><linearGradient id="u" x1="41.76" y1="137.89" x2="136.95" y2="137.89" xlink:href="#c"/><linearGradient id="v" x1="38.63" y1="152.86" x2="85.88" y2="152.86" xlink:href="#c"/><linearGradient id="w" x1="19.23" y1="139.34" x2="127.88" y2="139.34" xlink:href="#c"/><linearGradient id="x" x1="82.06" y1="117.42" x2="112.6" y2="117.42" xlink:href="#c"/><linearGradient id="y" x1="25.74" y1="63.1" x2="124.07" y2="63.1" xlink:href="#c"/><linearGradient id="a`" x1="10.94" y1="70.44" x2="118.81" y2="70.44" xlink:href="#c"/><linearGradient id="aa" x1="35.29" y1="71.43" x2="76.81" y2="71.43" xlink:href="#c"/><linearGradient id="ab" x1="118.76" y1="128.44" x2="492.07" y2="128.44" gradientTransform="matrix(1, 0, 0, 1, 0, 0)" gradientUnits="userSpaceOnUse"><stop offset="0" stop-color="#c9c9c9"/><stop offset=".53" stop-color="#e7e7e7"/><stop offset="1" stop-color="#fff"/></linearGradient><linearGradient id="ac" x1="50.86" y1="105.06" x2="420.68" y2="105.06" xlink:href="#ab"/><linearGradient id="ad" x1="56.59" y1="156.89" x2="496" y2="156.89" xlink:href="#ab"/></defs><g class="bd"><g id="a"><g class="be"><g><path class="b`" d="M457.3,172.87c-.74,0-1.36,.51-1.55,1.19h-20.44l-8.34-8.34h-71.18l-13.58,13.58h-24.05l-16.46-16.46h-27.92l-24.43,24.43h-62.9l-17.72,17.72h-7.13l-12.23,12.23h-22.14l-26.63,26.64c-.62-.35-1.41-.27-1.94,.26-.63,.63-.63,1.66,0,2.29,.63,.63,1.66,.63,2.29,0,.53-.53,.61-1.32,.26-1.94l26.38-26.38h22.13l12.23-12.23h7.13l17.72-17.72h62.9l24.43-24.43h27.21l16.46,16.46h24.77l13.58-13.58h70.47l8.34,8.34h20.79c.19,.68,.81,1.19,1.55,1.19,.9,0,1.62-.72,1.62-1.62s-.72-1.62-1.62-1.62Z"/><path class="aq" d="M460.14,94.06c-.74,0-1.37,.5-1.56,1.19h-32.86l-6.92,6.92h-46.33l-8.96-8.97h-20.85l-3.69,3.68h-32.17l-17.15-17.15h-33.26l-14.86,14.86h-30.23l-19.38-19.38h-19.68l-15.52,15.52h-11.1l-22.99-22.99h-13.19l-17.53-17.53c.35-.62,.27-1.41-.26-1.94-.63-.63-1.66-.63-2.29,0-.63,.63-.63,1.66,0,2.29,.53,.53,1.32,.61,1.94,.26l17.78,17.78h13.19l22.99,22.99h11.82l15.52-15.52h18.96l19.38,19.37h30.94l14.86-14.85h32.55l17.15,17.15h32.88l3.69-3.68h20.14l8.96,8.96h47.04l6.92-6.92h32.5c.19,.68,.81,1.19,1.56,1.19,.89,0,1.62-.73,1.62-1.62s-.73-1.62-1.62-1.62Z"/><path class="ak" d="M455.52,140.83c-.74,0-1.36,.51-1.55,1.19h-63.3l-18.91-18.9h-25.38l-14.74,14.73h-36.92l-16.33-16.33h-26.98l-6.21,6.21h-23.61l-9.67-9.67h-19.08l-10.43,10.43h-20.1l-13.96-13.96h-25.45l-18.16-18.16H41.48l-14.04-14.05c.35-.62,.27-1.41-.26-1.94-.63-.63-1.66-.63-2.29,0-.63,.63-.63,1.66,0,2.29,.53,.53,1.32,.61,1.94,.26l14.3,14.3h63.26l18.16,18.16h25.45l13.96,13.96h20.81l10.43-10.43h18.37l9.67,9.68h24.32l6.21-6.21h26.27l16.33,16.33h37.64l14.74-14.73h24.67l18.9,18.9h63.66c.19,.68,.81,1.19,1.55,1.19,.89,0,1.62-.72,1.62-1.62s-.72-1.62-1.62-1.62Z"/><path class="ay" d="M426.43,156.81l9.59,9.58h17.59c.19,.69,.81,1.19,1.55,1.19,.89,0,1.62-.72,1.62-1.62s-.72-1.62-1.62-1.62c-.74,0-1.36,.5-1.55,1.19h-17.24l-9.59-9.58h-39.41l-20.41-20.41h-16.16l-12.87,12.87h-47.84l-14.33-14.33h-21.17l-11.47,11.47h-35.74l-10.59-10.59h-43.73l-25.41,25.41h-50.56l-9.82,9.82c-.62-.35-1.41-.27-1.94,.26-.63,.63-.63,1.66,0,2.29,.63,.63,1.66,.63,2.29,0,.53-.53,.61-1.32,.26-1.94l9.57-9.56h50.56l25.41-25.41h43.01l10.6,10.6h36.46l11.48-11.47h20.45l14.33,14.33h48.55l12.87-12.87h15.44l20.41,20.41h39.41Z"/><path class="ai" d="M373.32,157.72c.63,.63,1.66,.63,2.29,0,.63-.63,.63-1.66,0-2.29-.53-.53-1.32-.61-1.94-.26l-11.01-11.01h-10.62l-12.77,12.77h-47.49l-14.62-14.62h-19.15l-14.18,14.17h-38.32c-.19-.68-.81-1.19-1.55-1.19-.89,0-1.62,.73-1.62,1.62s.72,1.62,1.62,1.62c.74,0,1.36-.51,1.55-1.19h38.68l14.17-14.17h18.44l14.62,14.62h48.21l12.77-12.77h9.91l10.75,10.76c-.35,.62-.26,1.41,.26,1.94Z"/><path class="an" d="M359.07,157.77h-9.9l-8.59,8.59h-22.43c-.19-.68-.81-1.19-1.55-1.19-.9,0-1.62,.72-1.62,1.62s.72,1.62,1.62,1.62c.74,0,1.36-.51,1.55-1.19h22.78l8.59-8.59h9.54c.19,.68,.81,1.19,1.55,1.19,.89,0,1.61-.73,1.61-1.62s-.72-1.62-1.61-1.62c-.74,0-1.36,.5-1.55,1.19Z"/><path class="am" d="M72.21,214h21.48l16.71-16.71h41.53l20.52-20.52h73.03l22.23-22.22c.62,.35,1.41,.27,1.94-.26,.63-.63,.63-1.66,0-2.29-.63-.63-1.66-.63-2.29,0-.52,.53-.61,1.32-.26,1.94l-21.97,21.97h-73.03l-20.52,20.52h-41.53l-16.71,16.71h-21.48l-15.75,15.75H28.91c-.19-.68-.81-1.19-1.55-1.19-.89,0-1.62,.72-1.62,1.62s.72,1.62,1.62,1.62c.74,0,1.36-.51,1.55-1.19h27.55l15.75-15.75Z"/><path class="bc" d="M198.34,171.28h40.22l19.6-19.6c.62,.35,1.41,.27,1.94-.26,.63-.63,.63-1.66,0-2.29-.64-.63-1.66-.63-2.29,0-.53,.53-.61,1.32-.26,1.94l-19.35,19.35h-39.5l-12.05-12.05h-24.11l-17.84,17.84h-44.67c-.19-.68-.81-1.19-1.56-1.19-.89,0-1.62,.73-1.62,1.62s.73,1.62,1.62,1.62c.74,0,1.37-.51,1.56-1.19h45.03l17.84-17.84h23.39l12.05,12.05Z"/><path class="ag" d="M82,199.44l13.6-13.61h54.89l18.62-18.61h11.92c.19,.68,.81,1.19,1.55,1.19,.89,0,1.61-.73,1.61-1.62s-.72-1.62-1.61-1.62c-.75,0-1.37,.5-1.55,1.19h-12.28l-18.61,18.62h-54.89l-13.61,13.6h-19.34l-9.93,9.93c-.62-.35-1.41-.27-1.94,.26-.63,.63-.63,1.66,0,2.29,.63,.63,1.66,.63,2.29,0,.52-.53,.6-1.32,.26-1.94l9.68-9.68h19.34Z"/><path class="af" d="M93.58,166.03h39.01l22.91-22.91h34.48l9.54,9.55h25.65c.19,.68,.81,1.19,1.55,1.19,.9,0,1.62-.73,1.62-1.62s-.72-1.62-1.62-1.62c-.74,0-1.36,.5-1.55,1.19h-25.29l-9.55-9.55h-35.2l-22.91,22.91h-38.65c-.19-.68-.81-1.19-1.55-1.19-.9,0-1.62,.72-1.62,1.62s.72,1.62,1.62,1.62c.74,0,1.36-.51,1.55-1.19Z"/><path class="aw" d="M50.74,192.4c.74,0,1.37-.5,1.56-1.19h15.74l19.93-19.93h50.83l20.76-20.76h27.81l12.41,12.41h32.81c.19,.68,.81,1.19,1.55,1.19,.89,0,1.61-.73,1.61-1.62s-.72-1.62-1.61-1.62c-.75,0-1.36,.5-1.55,1.19h-32.45l-12.41-12.41h-28.51l-20.77,20.76h-50.83l-19.93,19.93h-15.38c-.19-.68-.81-1.19-1.56-1.19-.89,0-1.62,.72-1.62,1.62s.73,1.62,1.62,1.62Z"/><path class="ae" d="M106.46,225.82l17.3-17.3h26.97l26.01-26.01h65.38c.19,.68,.81,1.19,1.56,1.19,.89,0,1.61-.72,1.61-1.62s-.72-1.62-1.61-1.62c-.75,0-1.37,.51-1.56,1.19h-65.74l-26.01,26.01h-26.97l-17.3,17.3h-27.57l-17.27,17.27c-.62-.35-1.41-.27-1.94,.26-.63,.63-.63,1.66,0,2.29,.63,.63,1.66,.63,2.29,0,.53-.53,.61-1.32,.26-1.94l17.02-17.02h27.57Z"/><path class="au" d="M404.53,106.94c-.74,0-1.36,.5-1.55,1.19h-36.26l-7.4-7.4h-56.57l-14.44-14.44h-27.44l-18.08,18.08h-39.79l-16.26-16.26h-17.51l-11.92,11.92h-17.32l-15.28-15.28H44.66c-.19-.68-.81-1.19-1.56-1.19-.89,0-1.62,.72-1.62,1.62s.73,1.62,1.62,1.62c.74,0,1.37-.5,1.56-1.19H124.36l15.28,15.28h18.03l11.92-11.92h16.8l16.26,16.26h40.51l18.08-18.08h26.73l14.44,14.44h56.56l7.4,7.4h36.62c.19,.68,.81,1.19,1.55,1.19,.9,0,1.62-.73,1.62-1.62s-.72-1.62-1.62-1.62Z"/><path class="ap" d="M230.92,118.75h-7.4l-7.93-7.94h-30.13l-7.25,7.25h-16.26l-8.55-8.55h-26.3l-20.02-20.02H47.04c-.19-.68-.81-1.19-1.55-1.19-.9,0-1.62,.73-1.62,1.62s.72,1.62,1.62,1.62c.74,0,1.36-.5,1.55-1.19h59.68l20.02,20.02h26.3l8.55,8.55h16.98l7.25-7.25h29.42l7.93,7.94h8.11l6.56-6.56h40.46l16.47,16.47h29.47l11.93-11.93h26.24c.19,.68,.81,1.19,1.56,1.19,.89,0,1.62-.73,1.62-1.62s-.73-1.62-1.62-1.62c-.74,0-1.37,.51-1.56,1.19h-26.6l-11.93,11.93h-28.76l-16.47-16.47h-41.16l-6.56,6.56Z"/><path class="ao" d="M260.88,99.66c-.19-.68-.81-1.19-1.55-1.19-.9,0-1.62,.72-1.62,1.62s.72,1.62,1.62,1.62c.74,0,1.36-.5,1.55-1.19h13.24l20.16,20.17h25.42l8.35-8.35h29.11c.19,.68,.81,1.19,1.55,1.19,.89,0,1.61-.73,1.61-1.62s-.72-1.62-1.61-1.62c-.75,0-1.37,.5-1.55,1.19h-29.47l-8.35,8.35h-24.7l-20.17-20.17h-13.6Z"/><path class="aj" d="M283.63,96.39c-.64-.63-1.66-.63-2.29,0-.63,.63-.63,1.66,0,2.29,.53,.52,1.32,.61,1.94,.26l15.78,15.78h16.59l8.11-8.11h28.15c.19,.68,.81,1.19,1.55,1.19,.89,0,1.62-.73,1.62-1.62s-.73-1.62-1.62-1.62c-.74,0-1.36,.51-1.55,1.19h-28.51l-8.11,8.11h-15.87l-15.53-15.53c.35-.62,.27-1.41-.26-1.94Z"/><path class="bb" d="M72.81,147.99l-16.14,16.14c-.62-.35-1.42-.27-1.94,.26-.63,.63-.63,1.66,0,2.29,.63,.63,1.66,.63,2.29,0,.53-.52,.61-1.32,.26-1.94l15.89-15.89h56.08l19.6-19.6c.62,.35,1.41,.27,1.94-.26,.63-.63,.63-1.66,0-2.29-.64-.63-1.66-.63-2.29,0-.53,.53-.61,1.32-.26,1.94l-19.35,19.35h-56.08Z"/><path class="as" d="M27.94,108.28h16.95l7.87,7.88h18.02l9.07-9.07h22.55l15.75,15.75h24.21c.19,.68,.81,1.19,1.55,1.19,.89,0,1.62-.73,1.62-1.62s-.72-1.62-1.62-1.62c-.74,0-1.36,.5-1.55,1.19h-23.86l-15.75-15.75h-23.26l-9.07,9.07h-17.3l-7.88-7.88H28.3l-14.94-14.93c.35-.62,.27-1.42-.26-1.94-.64-.63-1.66-.63-2.29,0-.63,.63-.63,1.66,0,2.29,.53,.53,1.32,.61,1.94,.26l15.18,15.19Z"/><path class="al" d="M104.67,138.44l-11.58-11.57h-14.08l-10.92,10.92h-15.81l-8.12,8.12c-.62-.35-1.41-.27-1.94,.26-.63,.63-.63,1.66,0,2.29,.63,.63,1.66,.63,2.29,0,.53-.53,.61-1.32,.26-1.94l7.86-7.86h15.81l10.92-10.92h13.36l11.57,11.58h21.6l8.62-8.62c.62,.35,1.41,.27,1.94-.26,.63-.63,.63-1.66,0-2.29-.63-.63-1.66-.63-2.29,0-.52,.53-.61,1.32-.26,1.94l-8.37,8.37h-20.88Z"/><path class="ax" d="M82.71,143.84c.19,.68,.81,1.19,1.55,1.19,.89,0,1.62-.73,1.62-1.62s-.72-1.62-1.62-1.62c-.74,0-1.36,.5-1.55,1.19h-23.74l-17.93,17.93c-.62-.35-1.41-.27-1.94,.26-.63,.63-.63,1.66,0,2.29,.63,.63,1.66,.63,2.29,0,.53-.53,.61-1.32,.26-1.94l17.68-17.68h23.38Z"/><path class="ba" d="M45.96,130.83h17.07l8.23-8.23h33.3l6.92,6.92h13.23c.19,.68,.81,1.19,1.56,1.19,.89,0,1.62-.72,1.62-1.62s-.73-1.62-1.62-1.62c-.74,0-1.37,.51-1.56,1.19h-12.88l-6.92-6.92h-34.01l-8.23,8.23h-17.06l-23.96,23.96c-.62-.35-1.41-.27-1.94,.26-.64,.63-.64,1.66,0,2.29,.63,.63,1.66,.63,2.29,0,.52-.53,.6-1.32,.26-1.94l23.7-23.71Z"/><path class="at" d="M109.84,122.4c.63,.63,1.65,.63,2.29,0,.63-.63,.63-1.66,0-2.29-.53-.53-1.32-.61-1.94-.26l-6.71-6.71h-18.25c-.19-.68-.81-1.19-1.55-1.19-.89,0-1.62,.73-1.62,1.62s.73,1.62,1.62,1.62c.74,0,1.36-.51,1.55-1.19h17.89l6.46,6.46c-.35,.62-.27,1.41,.26,1.94Z"/><path class="ah" d="M27.36,52.67c.74,0,1.36-.51,1.55-1.19h22.18l4.53,4.53h26.26l19.57,19.57h19.44c.19,.68,.81,1.19,1.55,1.19,.89,0,1.62-.72,1.62-1.62s-.73-1.62-1.62-1.62c-.74,0-1.36,.51-1.55,1.19h-19.08l-19.57-19.57h-26.26l-4.53-4.54H28.91c-.19-.68-.81-1.19-1.55-1.19-.89,0-1.62,.73-1.62,1.62s.72,1.62,1.62,1.62Z"/><path class="ar" d="M12.56,61.62c.75,0,1.36-.5,1.55-1.19H50.26l3.94,3.94h21.72l16.95,16.95h22.78c.19,.68,.81,1.19,1.56,1.19,.89,0,1.61-.73,1.61-1.62s-.72-1.62-1.61-1.62c-.75,0-1.37,.5-1.56,1.19h-22.42l-16.95-16.95h-21.72l-3.94-3.94H14.11c-.19-.68-.81-1.19-1.55-1.19-.89,0-1.62,.73-1.62,1.62s.72,1.62,1.62,1.62Z"/><path class="av" d="M38.05,64.65c-.63-.63-1.66-.63-2.29,0-.63,.63-.63,1.66,0,2.29,.53,.53,1.32,.61,1.94,.26l10.29,10.29h25.64c.19,.68,.81,1.19,1.55,1.19,.89,0,1.62-.73,1.62-1.62s-.72-1.62-1.62-1.62c-.74,0-1.36,.5-1.55,1.19h-25.29l-10.03-10.04c.35-.62,.26-1.41-.26-1.94Z"/></g><g><path class="bf" d="M387.69,118.82h-30.23l-.05-.05-.05,.05h-70.79l-14.93,14.93h-46.22l-3.73-3.73c.48-.85,.37-1.94-.35-2.66-.87-.87-2.28-.87-3.15,0-.87,.87-.87,2.28,0,3.14,.73,.72,1.82,.84,2.67,.36l4.08,4.07h45.53l-8.43,8.43c-.85-.48-1.94-.37-2.66,.35-.87,.87-.87,2.28,0,3.14,.87,.87,2.28,.87,3.14,0,.72-.72,.84-1.81,.36-2.66l24.19-24.19h39.26l-10.62,10.62h-16.34c-.26-.94-1.11-1.63-2.13-1.63-1.23,0-2.22,1-2.22,2.22s1,2.23,2.22,2.23c1.02,0,1.87-.69,2.13-1.63h16.83l11.81-11.8h28.18l-26.99,26.99h-49.84l-17.21,17.21h-17.33l-15.53-15.53h-23.73l-8.24-8.24h-31.68c-.26-.94-1.11-1.63-2.13-1.63-1.23,0-2.22,1-2.22,2.22s.99,2.23,2.22,2.23c1.02,0,1.87-.69,2.13-1.63h31.19l7.06,7.06h-48.01c-.26-.94-1.11-1.63-2.14-1.63-1.23,0-2.22,1-2.22,2.22s1,2.22,2.22,2.22c1.02,0,1.88-.69,2.14-1.63h72.92l14.35,14.35H123.12c-.26-.94-1.11-1.63-2.13-1.63-1.23,0-2.22,1-2.22,2.22s1,2.22,2.22,2.22c1.02,0,1.87-.69,2.13-1.63h139.5l17.22-17.21h49.84l15.17-15.17h15.64l5.89,5.89c-.48,.85-.37,1.94,.36,2.66,.86,.87,2.27,.87,3.14,0,.87-.87,.87-2.28,0-3.14-.72-.72-1.82-.83-2.66-.35l-6.24-6.24h-14.95l11.82-11.82h30.34l20.95-20.95h19.69l6.38-6.38h52.52c.26,.94,1.11,1.63,2.14,1.63,1.23,0,2.22-1,2.22-2.22s-.99-2.22-2.22-2.22c-1.02,0-1.88,.69-2.14,1.63h-53l-6.38,6.38h-19.7l-20.95,20.95Z"/><path class="bh" d="M145.02,131.8l-9.65,9.65h-55.59c-.26-.94-1.11-1.63-2.13-1.63-1.23,0-2.22,1-2.22,2.22s.99,2.22,2.22,2.22c1.02,0,1.87-.69,2.13-1.63h56.08l10.77-10.76-.07-.07h50.21l20.47-20.46h27.44l9.99,9.99c-.48,.85-.37,1.94,.36,2.67,.87,.87,2.28,.87,3.14,0,.87-.87,.87-2.28,0-3.15-.72-.72-1.81-.83-2.66-.36l-10.34-10.33h-26.75l16.64-16.63h100.64l26.48-26.48h58.5v-1.18h-58.99l-26.49,26.48h-45.3l.02-.02-11.05-11.05h-58.75l-36.6,36.6h-12.99l-13.24-13.24H72.3l-11.55-11.55c.48-.85,.37-1.94-.36-2.66-.87-.87-2.28-.87-3.15,0-.87,.87-.87,2.28,0,3.14,.72,.72,1.82,.84,2.66,.36l11.9,11.9h84.99l12.06,12.06h-36.11c-.26-.94-1.11-1.63-2.13-1.63-1.23,0-2.22,1-2.22,2.22s1,2.23,2.22,2.23c1.02,0,1.87-.69,2.13-1.63h51.26l36.59-36.6h57.78l9.89,9.89h-53.71l-38.28,38.28H55.22c-.26-.94-1.11-1.63-2.13-1.63-1.23,0-2.23,1-2.23,2.22s1,2.23,2.23,2.23c1.02,0,1.87-.69,2.13-1.63h89.8Z"/><path class="bg" d="M495.35,108.85c-.72-.72-1.81-.83-2.66-.35l-10.63-10.63h-23.35l-12.04,12.04h-22.39l-19.98,19.98h-17.31c-.26-.94-1.11-1.63-2.14-1.63-1.23,0-2.22,1-2.22,2.22s.99,2.22,2.22,2.22c1.03,0,1.88-.69,2.14-1.63h17.79l19.99-19.98h20.71l-32.28,32.28h-33.23l-13.97,13.96h-50.32l-10.47,10.47h-28.77l-3.66,3.65c-.85-.48-1.94-.37-2.66,.36-.87,.87-.87,2.28,0,3.15,.87,.87,2.28,.87,3.14,0,.72-.72,.84-1.81,.36-2.66l3.3-3.31h15.3l-20.36,20.37h-14.51l-12.55-12.55h-24.87c-.26-.94-1.11-1.63-2.14-1.63-1.23,0-2.22,.99-2.22,2.22s.99,2.22,2.22,2.22c1.02,0,1.88-.69,2.14-1.63h24.39l11.36,11.37h-38.95l-12.88-12.88H110.82l-7.04-7.04c.48-.85,.37-1.94-.36-2.66-.87-.87-2.27-.87-3.14,0s-.87,2.28,0,3.15c.72,.72,1.82,.84,2.67,.35l7.39,7.39h70.84l-19.46,19.46H74.55l-14.64,14.64c-.85-.48-1.94-.37-2.66,.35-.87,.87-.87,2.28,0,3.14,.87,.87,2.28,.87,3.15,0,.72-.72,.84-1.81,.36-2.66l14.3-14.3h87.16l20.64-20.64h20.54l12.88,12.88h56.11l21.54-21.55h11.8l10.47-10.47h48.65l-20.25,20.24h-44.27c-.26-.94-1.11-1.63-2.13-1.63-1.23,0-2.23,1-2.23,2.23s1,2.22,2.23,2.22c1.02,0,1.87-.69,2.13-1.63h44.76l35.4-35.39h33.23l45.5-45.5h22.37l10.29,10.28c-.48,.85-.37,1.94,.36,2.66,.87,.87,2.28,.87,3.14,0,.87-.87,.87-2.28,0-3.14Z"/></g></g></g></g></svg>